<?xml version="1.0" encoding="utf-8"?>
<!-- Generator: Adobe Illustrator 21.0.1, SVG Export Plug-In . SVG Version: 6.00 Build 0)  -->
<svg version="1.1" id="Layer_1" xmlns="http://www.w3.org/2000/svg" xmlns:xlink="http://www.w3.org/1999/xlink" x="0px" y="0px"
	 viewBox="0 0 151.4 53.6" style="enable-background:new 0 0 151.4 53.6;" xml:space="preserve">
<style type="text/css">
	.st0{fill:#492812;}
	.st1{fill:#683A17;}
	.st2{fill:#784418;}
	.st3{opacity:0.47;fill:#492812;enable-background:new    ;}
	.st4{enable-background:new    ;}
	.st5{fill:#EAEAEA;}
</style>
<title>back</title>
<polygon class="st0" points="0,45.1 1.7,46.4 7.9,51.2 77.7,52.4 86.7,52.6 98.9,52.8 148.6,53.6 151.4,16.4 150.5,14.8 143,2.2 
	80,5.2 72,5.6 14.1,8.4 5.4,14.5 3.5,15.9 "/>
<polygon class="st1" points="2.2,41 9.9,46.9 77.9,48.1 95,48.4 147.8,49.3 150.5,14.8 150.6,13.6 142.3,0 80.1,2.9 72.1,3.2 
	15.9,5.9 5.6,13.1 5.4,14.5 "/>
<polygon class="st2" points="144.1,44.9 146.5,14.9 140.2,4.5 17.1,10.2 9.3,15.6 6.4,38.9 11.2,42.5 "/>
<polygon class="st3" points="0,45.1 1.6,46.4 82.3,52.3 94.5,53.2 93.9,52.5 90.1,48.2 86.3,43.7 67.3,28.1 68.5,3.1 15.2,5.8 
	5.4,13.1 5.2,14.5 3.4,15.9 "/>
<g class="st4">
	<path class="st5" d="M68.2,17.4c2.4-0.4,4.3-0.8,5.8-0.9c1.5-0.2,2.7-0.2,3.6-0.2c0.9,0,1.7,0.1,2.4,0.2c0.7,0.3,1.2,0.6,1.7,0.9
		c0.4,0.3,0.8,0.7,1.2,1.2c0.4,0.5,0.6,1,0.7,1.6s0,1.3-0.4,2.1c-0.3,0.8-1,1.7-2,2.6c1.4,0.7,2.4,1.5,3,2.4c0.6,0.8,0.9,1.7,1,2.5
		c0.1,0.8-0.1,1.6-0.4,2.4s-0.7,1.4-1.1,2s-1,1.2-1.6,1.9c0,0-0.1,0.1-0.3,0.2c-0.2,0.1-0.6,0.3-1.2,0.4c-0.6,0.2-1.4,0.3-2.4,0.4
		c-1,0.1-2.3,0.2-4,0.2c-1.6,0-3.5-0.1-5.8-0.4L68.2,17.4z M78.5,29.8c0-0.2-0.1-0.4-0.2-0.6c-0.1-0.2-0.3-0.4-0.6-0.5
		c-0.3-0.1-0.7-0.2-1.2-0.1c-0.5,0.1-1.2,0.3-2,0.7l0.3,2.6c0.9,0.1,1.6,0,2.1-0.1c0.5-0.2,0.9-0.4,1.1-0.6c0.2-0.2,0.4-0.6,0.5-1
		C78.5,30,78.5,29.9,78.5,29.8z M77,22.1c-0.1-0.2-0.4-0.3-0.7-0.3c-0.3-0.1-0.8,0-1.5,0.3l-0.1,2.6c0.5,0.1,0.9,0,1.3-0.1
		c0.3-0.2,0.6-0.4,0.8-0.6c0.2-0.2,0.3-0.6,0.4-1C77.2,22.6,77.2,22.3,77,22.1z"/>
	<path class="st5" d="M93.4,35.2L93.4,35.2c-0.5,0.6-1.1,1.1-1.8,1.3c-0.7,0.2-1.4,0.4-2.2,0.4c-0.7,0-1.3-0.1-1.9-0.4
		s-1.1-0.6-1.6-1c-0.5-0.4-0.8-1-1.1-1.6c-0.3-0.6-0.4-1.3-0.4-2.1c0-0.7,0.1-1.3,0.4-1.9c0.3-0.6,0.6-1.1,1.1-1.5
		c0.5-0.4,1-0.8,1.6-1c0.6-0.2,1.3-0.4,2-0.4c0.8,0,1.4,0.1,1.9,0.3c0.5,0.2,1,0.5,1.3,0.8v-0.8c0-0.8-0.2-1.3-0.8-1.5
		s-1.2-0.4-2-0.4c-0.7,0-1.4,0.1-2,0.2c-0.6,0.1-1.3,0.3-1.9,0.5l1-4c0.8-0.2,1.6-0.4,2.5-0.5s1.8-0.1,2.7-0.1
		c0.8,0,1.6,0.1,2.4,0.3c0.8,0.2,1.5,0.5,2.1,0.9c0.6,0.4,1.1,1,1.4,1.7c0.3,0.7,0.5,1.5,0.5,2.5l-0.3,9.5l-5,0.4V35.2z M90.2,30.6
		c-0.6,0.1-1,0.3-1.4,0.6c-0.4,0.3-0.5,0.7-0.5,1c0.1,0.4,0.3,0.7,0.7,0.9c0.4,0.2,0.9,0.2,1.6,0.1c0.6-0.1,1.1-0.3,1.4-0.6
		c0.3-0.3,0.4-0.7,0.4-1c0-0.3-0.3-0.6-0.6-0.8C91.4,30.5,90.9,30.5,90.2,30.6z"/>
	<path class="st5" d="M111.9,36c-0.5,0.2-1,0.4-1.5,0.6c-0.5,0.2-1,0.3-1.5,0.3c-0.5,0.1-1,0.1-1.5,0.1c-1.1,0-2.2-0.2-3.1-0.6
		c-1-0.4-1.8-0.9-2.5-1.6c-0.7-0.7-1.3-1.5-1.7-2.4s-0.6-1.9-0.6-2.9c0-1.2,0.2-2.3,0.6-3.3c0.4-1,1-1.8,1.7-2.5
		c0.7-0.7,1.6-1.2,2.6-1.5c1-0.4,2.1-0.5,3.3-0.5c1.2,0,2.2,0.2,3.1,0.6c0.9,0.4,1.6,0.8,2.2,1.2l-3.3,4.3c-0.2-0.2-0.5-0.3-0.8-0.5
		c-0.3-0.1-0.6-0.2-0.9-0.2c-0.3,0-0.6-0.1-0.9,0c-0.3,0-0.5,0.1-0.7,0.2c-0.3,0.2-0.6,0.4-0.8,0.6c-0.2,0.2-0.4,0.5-0.5,0.7
		s-0.2,0.6-0.2,0.9c0,0.3,0.1,0.6,0.3,0.9c0.3,0.7,0.8,1.1,1.4,1.2c0.6,0.1,1.3,0.1,2-0.3l1.3-0.7l3.4,4.5
		C112.8,35.5,112.4,35.8,111.9,36z"/>
	<path class="st5" d="M113.6,17l5.7-0.5l-0.5,10.5h0.1l2.4-5.1l5.5,0.4l-3.2,6.3l3.8,5.8l-5.2,2.6l-3.2-6.3h0l0.2,5.8l-5.2,0.5
		L113.6,17z"/>
</g>
<polygon class="st5" points="18.1,25.6 39.7,13.1 39.7,38.1 "/>
<polygon class="st5" points="31.1,29.8 55.6,34.5 55.6,17.8 31.1,22.5 "/>
</svg>
