<?xml version="1.0" encoding="utf-8"?>
<!-- Generator: Adobe Illustrator 21.0.1, SVG Export Plug-In . SVG Version: 6.00 Build 0)  -->
<svg version="1.1" id="Layer_1" xmlns="http://www.w3.org/2000/svg" xmlns:xlink="http://www.w3.org/1999/xlink" x="0px" y="0px"
	 viewBox="0 0 453 634.8" style="enable-background:new 0 0 453 634.8;" xml:space="preserve">
<style type="text/css">
	.st0{clip-path:url(#SVGID_2_);}
	.st1{fill:url(#_Rectangle__1_);}
	.st2{opacity:0.24;fill:#FFFFFF;enable-background:new    ;}
	.st3{opacity:8.000000e-02;fill:#FFFFFF;enable-background:new    ;}
	.st4{opacity:0.27;}
	.st5{fill:#FFE7E1;}
	.st6{fill:url(#_Path_5_1_);}
	.st7{fill:url(#_Path_6_1_);}
	.st8{fill:#FFFFFF;}
	.st9{opacity:0.81;}
	.st10{fill:url(#_Path_9_1_);}
	.st11{fill:url(#_Path_10_1_);}
	.st12{fill:url(#_Path_13_1_);}
	.st13{fill:url(#_Path_14_1_);}
	.st14{opacity:0.16;}
	.st15{fill:#AD5236;}
	.st16{opacity:0.12;}
	.st17{fill:url(#_Path_17_1_);}
	.st18{fill:url(#_Path_18_1_);}
	.st19{opacity:0.49;}
	.st20{fill:url(#_Path_21_1_);}
	.st21{fill:url(#_Path_22_1_);}
	.st22{opacity:0.76;fill:#AD5236;enable-background:new    ;}
	.st23{fill:#CE783F;}
	.st24{fill:#B4673E;}
	.st25{fill:#E49345;}
	.st26{fill:#9B5C3F;}
	.st27{fill:none;stroke:#2D2D2D;stroke-miterlimit:10;}
	.st28{fill:none;}
	.st29{fill:#82820F;}
	.st30{opacity:0.62;}
	.st31{opacity:0.39;}
	.st32{fill:url(#SVGID_3_);}
	.st33{opacity:0.21;fill:#AD5236;enable-background:new    ;}
	.st34{opacity:0.5;fill:#492E17;enable-background:new    ;}
	.st35{fill:url(#SVGID_4_);}
	.st36{fill:none;stroke:#F9F9F9;stroke-width:0.5;stroke-linecap:round;stroke-linejoin:round;}
	.st37{fill:#F9F9F9;stroke:#F9F9F9;stroke-width:0.25;stroke-miterlimit:10;}
</style>
<title>Asset 2</title>
<g>
	<g id="Layer_2">
		<g id="Layer_1-2">
			<g>
				<defs>
					<rect id="SVGID_1_" x="0.8" y="-3.2" width="452.3" height="643"/>
				</defs>
				<clipPath id="SVGID_2_">
					<use xlink:href="#SVGID_1_"  style="overflow:visible;"/>
				</clipPath>
				<g class="st0">
					
						<linearGradient id="_Rectangle__1_" gradientUnits="userSpaceOnUse" x1="226.8939" y1="683.8243" x2="226.8939" y2="108.1547" gradientTransform="matrix(1 0 0 -1 0 637.5757)">
						<stop  offset="0" style="stop-color:#BC6E5C"/>
						<stop  offset="0.23" style="stop-color:#D19475"/>
						<stop  offset="0.45" style="stop-color:#E3B58A"/>
						<stop  offset="0.58" style="stop-color:#EAC192"/>
						<stop  offset="0.66" style="stop-color:#ECC38B"/>
						<stop  offset="0.79" style="stop-color:#F1C778"/>
						<stop  offset="0.93" style="stop-color:#FACE59"/>
						<stop  offset="1" style="stop-color:#FFD248"/>
					</linearGradient>
					<rect id="_Rectangle_" x="0.8" y="-5.8" class="st1" width="452.3" height="630.3"/>
					<path id="_Path_" class="st2" d="M434.9,138.1c0,0-106.1-30.7-147.2-18.8c0,0,67.2-4.1,142.6,23.1L434.9,138.1z"/>
					<path id="_Compound_Path_" class="st2" d="M341.8,36c-40.6,4.1-65.5,3.1-92.7-0.3c40.4,1.5,84.9-1.3,92.7-4.4
						c11-4.4,71.8,0,71.8,0l5.5-2.1c0,0-48.1-5.9-83.8,2.1s-132-2.1-132-2.1l0,0c-4.5-0.6-9.2-1.3-14.1-2
						c-61.8-8.4-203.1,26-203.1,26l12.3,23.3c0,0,140.4-34.5,170.8-34.3C199.6,42.4,275,58,329,49.4s123.9,10.5,123.9,10.5
						l11.4-20.4C464.3,39.5,408.6,29.2,341.8,36z M96,40.1c-2.4,2.9-10.4,6.1-21.2,6.5c0,0-10.8-0.5-7.7-4.1
						C70.2,38.8,98.5,37.1,96,40.1z M100.3,44.8c-7.1-4.6,8.8-12.8,42.6-10.9C176.7,35.9,115.7,54.6,100.3,44.8L100.3,44.8z
						 M279.2,46.8c-35.8-0.5-110.7-9.6-88.2-8.5C235.7,40.5,318.3,47.4,279.2,46.8z M291.6,42.6c0,0,18.8-3,23.3,0
						S286.5,44.9,291.6,42.6L291.6,42.6z"/>
					<path id="_Compound_Path_2" class="st2" d="M441.6,176c-3.1,1.4-135.5-11.6-155.8-18.9c-20.3-7.3-58.8,5.6-101.4,10.8
						c-42.6,5.1-176.9,1-176.9,1l8.7,7.6c0,0,127.1,26.5,192,2.5s242.3,9.2,242.3,9.2S444.7,174.6,441.6,176z M90.3,178.2
						c-1.8-0.7-0.8-2.2,1.5-2.3c16.2-0.1,58.6-0.3,69.1,0C179.7,176.7,130.8,195.1,90.3,178.2z M295.6,164.7c0,0,21.9-0.2,24.2,4.3
						C322.2,173.4,280,167,295.6,164.7L295.6,164.7z"/>
					<path id="_Compound_Path_3" class="st3" d="M441.6,304.6c-3.1,1.4-135.5-11.6-155.8-18.9c-20.3-7.3-58.8,5.6-101.4,10.8
						c-42.6,5.1-176.9,1-176.9,1l8.7,7.6c0,0,127.1,26.5,192,2.5s242.3,9.2,242.3,9.2S444.7,303.2,441.6,304.6z M90.3,306.8
						c-1.8-0.7-0.8-2.2,1.5-2.3c16.2-0.1,58.6-0.3,69.1,0C179.7,305.3,130.8,323.7,90.3,306.8z M295.6,293.3c0,0,21.9-0.2,24.2,4.3
						C322.2,302,280,295.6,295.6,293.3L295.6,293.3z"/>
					<path id="_Compound_Path_4" class="st2" d="M235.1,226.8c0,0,61.8-21,84.4-5.9c22.6,15.2,66.9-1.7,66.9-1.7l3-4.7
						c0,0-46.8,2.6-61.6-0.6c-14.8-3.3-28.3-11.5-35.3-6.8c-7.1,4.6-53.2,12.8-54.3,11.9C237.1,218.1,235.1,226.8,235.1,226.8z
						 M336,219c3.7-0.2,18.4-0.1,24,0c0.5,0,0.9,0.4,0.9,0.9c0,0.2-0.1,0.4-0.3,0.6C346.5,231.1,329.5,219.4,336,219L336,219z
						 M280.7,214.5c0.8-2.9,8.5-2.7,8.5-2.7C294.6,213.2,279.9,217.3,280.7,214.5z"/>
					<g id="_Group_">
						<path id="_Compound_Path_5" class="st2" d="M361.2,92.8c27.3,1.7,71.1,1.7,71.1,1.7l-2.7-5.7c-16.6,7.3-63.4,1.6-85-1.6
							c-1.8-0.7-3.4-1.3-5-2c-30.4-13-74.2-2.8-93.8,5.9c-24.9,1.6-57.3-0.8-81.2-3.1l-12-2.8C92.1,71.3,20.8,115.6,19.4,115.6v8.8
							c-10.3-0.6-19-1.5-24.5-2.1c-4-0.4-6.4-0.7-6.5-0.7c-0.2,0,19.7,12.5,33.8,10.9c12.9,1.3,29.7,0.6,50.2-4.8
							c43.3-11.5,60.9-7.9,66.8-5.5c-5.6-2.4-20.7-6.9-49.6-0.6C74,125,54,125.6,36,125.1c26.2-13.4,77.2-35.9,104.2-24
							c37.4,16.4,86.9,12.7,130.2,0s186.9,31,186.9,31v-16.4C457.3,115.6,399.9,104.6,361.2,92.8z M74.4,101.1
							c-0.7-1.7,7.8-13,20.1-10S76.7,106.8,74.4,101.1z M116.3,92.6c-7.2,3.6-15.1,2.2-8.9-1.5C108.7,90.3,123.5,89,116.3,92.6
							L116.3,92.6z M149.7,94c0,0,29.2,3.4,30.8,7.2S134.7,96.5,149.7,94L149.7,94z M241.2,93.4c-11,6.1-19.9,6.5-44,1.7
							c14.7,0.7,29.5,0.1,44.2-1.8L241.2,93.4z M270.3,94c-11,0.7,31.6-11,40.3-5.1C319.4,94.9,293.3,92.6,270.3,94L270.3,94z"/>
						<path id="_Path_2" class="st2" d="M139.3,122.1c0.9,0.4,1.7,0.8,2.5,1.3C141,122.9,140.2,122.4,139.3,122.1z"/>
					</g>
					<g id="_Group_2" class="st4">
						<path id="_Compound_Path_6" class="st2" d="M356.9,388.3c28.1,1.7,73.3,1.7,73.3,1.7l-2.8-5.9c-17.1,7.5-65.3,1.7-87.5-1.6
							c-1.8-0.7-3.5-1.4-5.1-2.1c-31.4-13.4-76.5-2.8-96.6,6c-25.6,1.6-59-0.8-83.7-3.2l-12.4-2.8C79.7,366.1,6.2,411.7,4.8,411.7
							v9.1c-10.6-0.7-19.5-1.5-25.3-2.1c-4.1-0.4-6.6-0.7-6.7-0.7S-7,430.8,7.6,429.2c13.3,1.4,30.6,0.6,51.7-5
							c44.6-11.8,62.8-8.1,68.8-5.7c-5.7-2.5-21.4-7.1-51.1-0.5c-16.1,3.6-36.7,4.1-55.4,3.6c27-13.8,79.5-36.9,107.4-24.8
							c38.5,16.9,89.5,13.1,134.1,0s192.5,31.8,192.5,31.8v-16.9C455.9,411.7,396.8,400.4,356.9,388.3z M61.5,396.8
							c-0.7-1.7,8-13.4,20.7-10.3s-18.4,16.2-20.8,10.3H61.5z M104.7,388.1c-7.4,3.7-15.5,2.3-9.1-1.6c1.3-0.8,16.5-2.2,9,1.6H104.7
							z M139.2,389.5c0,0,30.1,3.5,31.8,7.4c1.7,3.9-47.4-4.9-31.9-7.4L139.2,389.5z M233.4,388.9c-11.3,6.2-20.6,6.7-45.3,1.8
							c15.2,0.8,30.4,0.1,45.5-1.9L233.4,388.9z M263.4,389.5c-11.3,0.7,32.5-11.4,41.6-5.3s-18,3.9-41.7,5.3L263.4,389.5z"/>
						<path id="_Path_3" class="st2" d="M128.2,418.5c0.9,0.4,1.8,0.8,2.6,1.3C130,419.3,129.2,418.8,128.2,418.5z"/>
					</g>
					<path id="_Path_4" class="st5" d="M160.8,35c0,0,0.8-23.4-18.7-16.6c0,0,0.4-17-28.1-16C83.3,3.6,93.3,22.6,93.3,22.6
						s-14.2-4.9-19.8,0c-2.9,2.5-4.1,7.4-4.6,11.4c-16.2-8.9-28.8,5.5-24.5,6.6s24.1,0,24.1,0s12.2,1.8,18.9,0
						c16.3,2.5,33,2.8,49.5,0.8c7.8,1.6,16,1.6,23.8,0.3c0,0,16.6,0.5,22.4-1.1S173.6,27.4,160.8,35z"/>
					<g id="_Group_3">
						
							<linearGradient id="_Path_5_1_" gradientUnits="userSpaceOnUse" x1="97.6965" y1="560.7435" x2="120.777" y2="632.5482" gradientTransform="matrix(1 0 0 -1 0 637.5757)">
							<stop  offset="0" style="stop-color:#A085A5"/>
							<stop  offset="0.24" style="stop-color:#AC6D84;stop-opacity:0.67"/>
							<stop  offset="0.58" style="stop-color:#BE4C55;stop-opacity:0.2"/>
							<stop  offset="0.62" style="stop-color:#C05057;stop-opacity:0.23"/>
							<stop  offset="0.68" style="stop-color:#C65B5C;stop-opacity:0.3"/>
							<stop  offset="0.75" style="stop-color:#CF6E64;stop-opacity:0.41"/>
							<stop  offset="0.83" style="stop-color:#DC8770;stop-opacity:0.57"/>
							<stop  offset="0.92" style="stop-color:#EDA87E;stop-opacity:0.78"/>
							<stop  offset="1" style="stop-color:#FFCB8E"/>
						</linearGradient>
						<path id="_Path_5" class="st6" d="M157.4,39.8c-8.4,3.9-26.6-6.4-26.6-6.4c-1.2,1-2.7,1.8-4.2,2.4c-4.7,1.5-9.8,0.9-13.9-1.7
							c-30.5-18.9-0.4-31.4-0.3-31.5C87.6,4,91.5,17.9,93,21.7c1.7,2.5,3.7,4.8,6.2,6.7c-11.7-8.6-21.2-7.6-21.9-7.6
							c-1.4,0.3-2.6,0.9-3.7,1.7c-2.8,2.5-4.1,7.3-4.6,11.3c0.4,1.9,0.7,3.2,0.7,3.2c-1.8-2.1-3.9-3.9-6.3-5.4
							c-13.4-3.5-22.8,7.9-18.9,8.8c4.4,1,24.1,0,24.1,0s12.2,1.8,18.9,0c16.3,2.5,33,2.8,49.5,0.8c7.8,1.6,16,1.6,23.8,0.3
							c0,0,7.6,0.2,14.3-0.1C169.2,41.3,163.3,40.8,157.4,39.8z"/>
						
							<linearGradient id="_Path_6_1_" gradientUnits="userSpaceOnUse" x1="179.7304" y1="596.4781" x2="179.7304" y2="596.4781" gradientTransform="matrix(1 0 0 -1 0 637.5757)">
							<stop  offset="0" style="stop-color:#A085A5"/>
							<stop  offset="0.24" style="stop-color:#AC6D84;stop-opacity:0.67"/>
							<stop  offset="0.58" style="stop-color:#BE4C55;stop-opacity:0.2"/>
							<stop  offset="0.62" style="stop-color:#C05057;stop-opacity:0.23"/>
							<stop  offset="0.68" style="stop-color:#C65B5C;stop-opacity:0.3"/>
							<stop  offset="0.75" style="stop-color:#CF6E64;stop-opacity:0.41"/>
							<stop  offset="0.83" style="stop-color:#DC8770;stop-opacity:0.57"/>
							<stop  offset="0.92" style="stop-color:#EDA87E;stop-opacity:0.78"/>
							<stop  offset="1" style="stop-color:#FFCB8E"/>
						</linearGradient>
						<polygon id="_Path_6" class="st7" points="179.7,41.1 179.7,41.1 179.7,41.1 						"/>
					</g>
					<path id="_Path_7" class="st8" d="M160.8,35c0,0,0.8-22.1-18.7-15.3c0,0-1.3-12.1-17.2-16.2c3.8,2.2,18.1,3.9,15.8,16.2
						c0,0,12.1-3,18.6,16.9c0,0,15.4-9.7,23.9,3.9C189,38.9,173.6,27.4,160.8,35z"/>
					<g id="_Group_4" class="st9">
						<path id="_Path_8" class="st5" d="M335.1,54.3c0,0-4.2-16.6-21.6-10.6c0,0,5.2-19.5-20.3-18.6c-27.5,1-18.5,18-18.5,18
							s-12.7-4.4-17.7,0c-2.6,2.3-3.7,6.6-4.1,10.2c-14.5-8-25.8,5-21.9,5.9c3.9,0.9,21.6,0,21.6,0s10.9,1.6,17,0
							c14.6,2.3,29.5,2.5,44.3,0.7c7,1.4,14.3,1.5,21.3,0.2c0,0,14.8,0.4,20-1C360.4,57.8,346.6,47.5,335.1,54.3z"/>
						<g id="_Group_5">
							
								<linearGradient id="_Path_9_1_" gradientUnits="userSpaceOnUse" x1="278.5868" y1="545.8483" x2="299.2495" y2="610.1221" gradientTransform="matrix(1 0 0 -1 0 637.5757)">
								<stop  offset="0" style="stop-color:#A085A5"/>
								<stop  offset="0.24" style="stop-color:#AC6D84;stop-opacity:0.67"/>
								<stop  offset="0.58" style="stop-color:#BE4C55;stop-opacity:0.2"/>
								<stop  offset="0.62" style="stop-color:#C05057;stop-opacity:0.23"/>
								<stop  offset="0.68" style="stop-color:#C65B5C;stop-opacity:0.3"/>
								<stop  offset="0.75" style="stop-color:#CF6E64;stop-opacity:0.41"/>
								<stop  offset="0.83" style="stop-color:#DC8770;stop-opacity:0.57"/>
								<stop  offset="0.92" style="stop-color:#EDA87E;stop-opacity:0.78"/>
								<stop  offset="1" style="stop-color:#FFCB8E"/>
							</linearGradient>
							<path id="_Path_9" class="st10" d="M332.1,58.6c-7.5,3.5-23.8-5.7-23.8-5.7c-1.1,0.9-2.4,1.7-3.8,2.1
								c-4.2,1.3-8.8,0.8-12.4-1.5c-27.3-17-0.4-28.2-0.2-28.2C269.6,26.5,273,39,274.4,42.4c1.5,2.3,3.4,4.3,5.5,6
								c-10.5-7.6-19-6.9-19.6-6.8c-1.2,0.3-2.4,0.8-3.3,1.6c-2.6,2.3-3.7,6.6-4.1,10.2c0.3,1.7,0.7,2.9,0.7,2.9
								c-1.6-1.9-3.5-3.5-5.7-4.8c-12-3.1-20.4,7.1-17,7.9c3.9,0.9,21.6,0,21.6,0s10.9,1.6,17,0c14.6,2.3,29.5,2.5,44.3,0.7
								c7,1.4,14.3,1.5,21.3,0.2c0,0,6.8,0.2,12.8-0.1C342.6,60,337.3,59.5,332.1,58.6z"/>
							
								<linearGradient id="_Path_10_1_" gradientUnits="userSpaceOnUse" x1="352.0887" y1="577.8248" x2="352.0887" y2="577.8248" gradientTransform="matrix(1 0 0 -1 0 637.5757)">
								<stop  offset="0" style="stop-color:#A085A5"/>
								<stop  offset="0.24" style="stop-color:#AC6D84;stop-opacity:0.67"/>
								<stop  offset="0.58" style="stop-color:#BE4C55;stop-opacity:0.2"/>
								<stop  offset="0.62" style="stop-color:#C05057;stop-opacity:0.23"/>
								<stop  offset="0.68" style="stop-color:#C65B5C;stop-opacity:0.3"/>
								<stop  offset="0.75" style="stop-color:#CF6E64;stop-opacity:0.41"/>
								<stop  offset="0.83" style="stop-color:#DC8770;stop-opacity:0.57"/>
								<stop  offset="0.92" style="stop-color:#EDA87E;stop-opacity:0.78"/>
								<stop  offset="1" style="stop-color:#FFCB8E"/>
							</linearGradient>
							<polygon id="_Path_10" class="st11" points="352.1,59.8 352.1,59.8 352.1,59.8 							"/>
						</g>
						<path id="_Path_11" class="st8" d="M335.1,54.3c0,0-4.2-16.6-21.6-10.6c0,0,3.7-13.9-10.5-17.7c3.4,2,10.9,7.6,8.8,18.7
							c0,0,16.1-6.8,21.9,11c0,0,13.8-8.6,21.4,3.5C360.4,57.8,346.6,47.5,335.1,54.3z"/>
					</g>
					<g id="_Group_6">
						<path id="_Path_12" class="st5" d="M419.2,96.8c0,0-3.2-12.7-16.5-8.1c0,0,4-14.9-15.5-14.2C366.1,75.2,373,88.3,373,88.3
							s-9.8-3.3-13.6,0c-2,1.7-2.8,5.1-3.2,7.8c-11.1-6.1-19.8,3.8-16.8,4.5c3,0.7,16.5,0,16.5,0s8.4,1.3,13,0
							c11.2,1.7,22.6,1.9,33.9,0.6c5.4,1.1,10.9,1.1,16.3,0.2c0,0,11.3,0.3,15.3-0.7C438.7,99.5,428,91.6,419.2,96.8z"/>
						<g id="_Group_7">
							
								<linearGradient id="_Path_13_1_" gradientUnits="userSpaceOnUse" x1="376.0312" y1="512.092" x2="391.858" y2="561.3161" gradientTransform="matrix(1 0 0 -1 0 637.5757)">
								<stop  offset="0" style="stop-color:#A085A5"/>
								<stop  offset="0.24" style="stop-color:#AC6D84;stop-opacity:0.67"/>
								<stop  offset="0.58" style="stop-color:#BE4C55;stop-opacity:0.2"/>
								<stop  offset="0.62" style="stop-color:#C05057;stop-opacity:0.23"/>
								<stop  offset="0.68" style="stop-color:#C65B5C;stop-opacity:0.3"/>
								<stop  offset="0.75" style="stop-color:#CF6E64;stop-opacity:0.41"/>
								<stop  offset="0.83" style="stop-color:#DC8770;stop-opacity:0.57"/>
								<stop  offset="0.92" style="stop-color:#EDA87E;stop-opacity:0.78"/>
								<stop  offset="1" style="stop-color:#FFCB8E"/>
							</linearGradient>
							<path id="_Path_13" class="st12" d="M416.9,100.1c-5.8,2.7-18.2-4.4-18.2-4.4c-0.8,0.7-1.8,1.3-2.9,1.7
								c-3.2,1-6.7,0.6-9.5-1.2c-20.9-13-0.3-21.6-0.2-21.6c-17,1-14.4,10.5-13.4,13.1c1.1,1.7,2.6,3.3,4.2,4.6
								c-8-5.9-14.6-5.3-15-5.2c-0.9,0.2-1.8,0.6-2.5,1.2c-2,1.7-2.8,5.1-3.2,7.8c0.2,1.3,0.5,2.2,0.5,2.2c-1.2-1.4-2.6-2.7-4.2-3.7
								c-9.2-2.4-15.5,5.4-13,6c3,0.7,16.5,0,16.5,0s8.4,1.3,13,0c11.2,1.7,22.6,1.9,33.9,0.6c5.4,1.1,10.9,1.1,16.3,0.2
								c0,0,5.2,0.2,9.8-0.1C425,101.1,421,100.7,416.9,100.1z"/>
							
								<linearGradient id="_Path_14_1_" gradientUnits="userSpaceOnUse" x1="432.2116" y1="536.6091" x2="432.2116" y2="536.6091" gradientTransform="matrix(1 0 0 -1 0 637.5757)">
								<stop  offset="0" style="stop-color:#A085A5"/>
								<stop  offset="0.24" style="stop-color:#AC6D84;stop-opacity:0.67"/>
								<stop  offset="0.58" style="stop-color:#BE4C55;stop-opacity:0.2"/>
								<stop  offset="0.62" style="stop-color:#C05057;stop-opacity:0.23"/>
								<stop  offset="0.68" style="stop-color:#C65B5C;stop-opacity:0.3"/>
								<stop  offset="0.75" style="stop-color:#CF6E64;stop-opacity:0.41"/>
								<stop  offset="0.83" style="stop-color:#DC8770;stop-opacity:0.57"/>
								<stop  offset="0.92" style="stop-color:#EDA87E;stop-opacity:0.78"/>
								<stop  offset="1" style="stop-color:#FFCB8E"/>
							</linearGradient>
							<polygon id="_Path_14" class="st13" points="432.2,101 432.2,101 432.2,101 							"/>
						</g>
						<path id="_Path_15" class="st8" d="M419.2,96.8c0,0-3.2-12.7-16.5-8.1c0,0,2.8-10.7-8.1-13.5c5.4,3,8.1,8.7,6.8,14.3
							c0,0,12.4-5.2,16.8,8.4c0,0,10.5-6.6,16.4,2.7C438.6,99.5,428,91.6,419.2,96.8z"/>
					</g>
					<g class="st14">
						<path class="st15" d="M194.7,433.5c1.6,2.5,3.6,4.8,5.9,6.8c2.5,1.8,5.3,3.1,8.4,3.8c1.8,0.5,3.6,0.8,5.4,1.1l0,0
							c0-13.5,0-27,0.6-40.5c0.3-6.8,0.7-13.6,1.6-20.4l0.2-1.5l-0.3-0.4l0.3-0.1l1.8-18l3.3-32.3l-17.7-19.5l18.2,14.8l0.3-3.2
							c0.6-6.7,1.2-13.4,1.7-20.1c0.2-3.3,0.5-6.7,0.6-10c0.1-3.3-0.3-6.7-0.7-10c-0.7-6.7-2.4-13.2-5-19.5
							c-1.3-3.1-2.9-6.2-4.8-9.1c-0.9-1.5-1.9-2.9-2.8-4.3c-1.1-1.4-1.9-2.9-2.6-4.5c0.7,1.6,1.6,3.1,2.7,4.4c1,1.4,2.1,2.8,3,4.3
							c2,2.9,3.7,5.9,5.1,9c2.8,6.3,4.8,12.9,5.7,19.6c0.6,3.4,0.8,6.7,1,10.2c0.2,3.5-0.1,6.8-0.2,10.2c-0.3,6.7-0.6,13.5-1,20.2
							l-2.8,40.3l-1.1,15.7l20.9-8.5l-21.2,12.3v0.8c-0.6,6.6-0.8,13.3-0.8,20c-0.1,13.2,0.3,26.5,0.8,39.7l8.7-3l1.3,3.6l-9.9,2.5
							l1.4,37.9c0,2.3,0.2,4.5,0.2,6.7l8.2-3.8l-8.1,6.9c0,0.1,0,0.2,0,0.4c0,3.5,0,6.9-0.2,10.3c-0.3,6.8-0.8,13.6-1.4,20.4
							c-1.3,13.5-3,26.9-5.1,40.4l-11-1.6c2.5-13.2,4.6-26.5,6.4-39.8c0.9-6.6,1.6-13.3,2.1-19.9c0.2-3.3,0.5-6.6,0.5-9.9
							c0.1-3.3,0-6.7,0-10.1l-0.1-37.8c-2.1-0.4-4.2-1-6.2-1.7c-3.2-1-6.2-2.6-8.7-4.7c-2.2-2.3-4.1-4.8-5.5-7.5
							c-1.5-2.6-2.7-5.4-3.8-8.2C191.5,428.3,193,431,194.7,433.5z"/>
					</g>
					<g class="st14">
						<path class="st15" d="M280.9,408.2c1.6,2.9,3.6,5.6,5.9,8c2.4,2,5.2,3.5,8.4,4.4c1.8,0.5,3.6,1,5.4,1.3l0,0
							c0-15.8,0-31.6,0.6-47.5c0.3-7.9,0.7-15.9,1.6-23.8l0.2-1.8l-0.3-0.5l0.3-0.2l1.8-21.1l3.3-37.9l-17.7-22.8l18.2,17.3l0.3-3.8
							c0.6-7.9,1.2-15.7,1.7-23.6c0.2-3.9,0.5-7.9,0.6-11.8c0.1-3.9-0.3-7.8-0.7-11.7c-0.7-7.8-2.4-15.5-5-22.9
							c-1.3-3.7-2.9-7.2-4.8-10.7c-0.9-1.7-1.9-3.4-2.8-5.1c-1.1-1.7-1.9-3.4-2.6-5.2c0.7,1.8,1.6,3.5,2.7,5.1c1,1.6,2.1,3.3,3,5
							c2,3.4,3.7,6.9,5.1,10.6c2.9,7.4,4.8,15.1,5.7,22.9c0.6,3.9,0.8,7.9,1,11.9s-0.1,7.9-0.2,11.9c-0.3,7.9-0.6,15.8-1,23.7
							l-2.8,47.5l-1.1,18.4l20.9-10l-21.2,14.4v0.9c-0.6,7.8-0.8,15.6-0.8,23.4c-0.1,15.5,0.3,31,0.8,46.5l8.7-3.5l1.3,4.2l-9.9,3
							l1.4,44.3c0,2.6,0.2,5.3,0.2,7.9l8.2-4.5l-8.1,8c0,0.1,0,0.3,0,0.4c0,4,0,8-0.2,12c-0.3,8-0.8,15.9-1.4,23.8
							c-1.3,15.9-3,31.6-5.1,47.3l-11-1.8c2.5-15.4,4.6-31,6.4-46.5c0.9-7.8,1.6-15.6,2.1-23.3c0.2-3.8,0.5-7.8,0.5-11.6
							c0.1-3.8,0-7.9,0-11.8l-0.1-44.2c-2.1-0.5-4.2-1.2-6.2-2c-3.3-1.2-6.3-3.1-8.7-5.6c-2.2-2.7-4.1-5.7-5.5-8.8
							c-1.5-3.1-2.8-6.3-3.8-9.6C277.7,402.1,279.2,405.2,280.9,408.2z"/>
					</g>
					<g class="st16">
						<path class="st15" d="M294.6,470.6c-1.7,1.8-3.7,3.5-5.9,4.8c-2.6,1.3-5.4,2.2-8.4,2.6c-1.8,0.3-3.6,0.6-5.4,0.8l0,0
							c0-9.5,0-18.9-0.6-28.4c-0.2-4.8-0.8-9.6-1.6-14.3l-0.2-1.1l0.3-0.3l-0.3-0.1l-1.8-12.6l-3.3-22.7l17.7-13.6l-18.2,10.4
							l-0.3-2.3c-0.6-4.7-1.2-9.4-1.7-14.1c-0.2-2.4-0.5-4.7-0.6-7.1c0.1-2.3,0.3-4.7,0.7-7c0.8-4.8,2.5-9.4,5-13.7
							c1.4-2.3,3-4.4,4.8-6.4c0.9-1,1.9-2,2.8-3c1-0.9,1.9-2,2.6-3.1c-0.7,1.1-1.6,2.2-2.7,3.1c-1,1-2.1,2-3,3
							c-1.9,2-3.6,4.1-5.1,6.4c-2.8,4.2-4.7,8.9-5.7,13.8c-0.5,2.4-0.9,4.7-1,7.1c0,2.4,0.1,4.7,0.2,7.1c0.3,4.7,0.6,9.5,1,14.2
							l2.7,28.4l1.1,11l-20.9-6.1l21.2,8.6v0.6c0.6,4.7,0.8,9.3,0.8,14c0.1,9.3-0.3,18.6-0.8,27.9l-8.7-2.1l-1.3,2.5l9.9,1.8
							l-1.4,26.6c0,1.6-0.2,3.1-0.2,4.7l-8.2-2.7l8.1,4.8c0,0.1,0,0.2,0,0.3c0,2.4,0,4.8,0.2,7.2c0.3,4.8,0.8,9.5,1.4,14.3
							c1.3,9.5,3,18.9,5.1,28.4l11-1.1c-2.5-9.2-4.6-18.6-6.4-27.9c-0.9-4.7-1.6-9.3-2.1-14c-0.2-2.3-0.5-4.6-0.5-7
							c-0.1-2.3,0-4.7,0-7.1l0.2-26.5c2.1-0.3,4.2-0.7,6.2-1.2c5.8-1,11-4.1,14.1-8.6c1.4-1.8,2.7-3.7,3.8-5.7
							C297.8,467,296.2,468.9,294.6,470.6z"/>
					</g>
					<g id="_Group_8">
						<path id="_Path_16" class="st5" d="M77,119.8c0,0-2.8-11.2-14.5-7.1c0,0,3.5-13.1-13.6-12.5c-18.5,0.7-12.5,12.1-12.5,12.1
							s-8.6-2.9-11.9,0c-1.8,1.5-2.5,4.4-2.8,6.8c-9.8-5.4-17.4,3.3-14.7,4s14.5,0,14.5,0s7.3,1.1,11.4,0c9.8,1.5,19.9,1.7,29.8,0.5
							c4.7,0.9,9.6,1,14.4,0.2c0,0,10,0.3,13.5-0.6S84.7,115.2,77,119.8z"/>
						<g id="_Group_9">
							
								<linearGradient id="_Path_17_1_" gradientUnits="userSpaceOnUse" x1="38.9191" y1="492.5977" x2="52.8189" y2="535.843" gradientTransform="matrix(1 0 0 -1 0 637.5757)">
								<stop  offset="0" style="stop-color:#A085A5"/>
								<stop  offset="0.24" style="stop-color:#AC6D84;stop-opacity:0.67"/>
								<stop  offset="0.58" style="stop-color:#BE4C55;stop-opacity:0.2"/>
								<stop  offset="0.62" style="stop-color:#C05057;stop-opacity:0.23"/>
								<stop  offset="0.68" style="stop-color:#C65B5C;stop-opacity:0.3"/>
								<stop  offset="0.75" style="stop-color:#CF6E64;stop-opacity:0.41"/>
								<stop  offset="0.83" style="stop-color:#DC8770;stop-opacity:0.57"/>
								<stop  offset="0.92" style="stop-color:#EDA87E;stop-opacity:0.78"/>
								<stop  offset="1" style="stop-color:#FFCB8E"/>
							</linearGradient>
							<path id="_Path_17" class="st17" d="M74.9,122.7c-5.1,2.4-16-3.8-16-3.8c-0.7,0.6-1.6,1.1-2.6,1.4c-2.8,0.9-5.9,0.5-8.3-1
								c-18.4-11.5-0.3-18.9-0.2-19c-15,0.9-12.7,9.3-11.7,11.5c1,1.5,2.3,2.9,3.7,4.1c-7.1-5.2-12.7-4.6-13.2-4.6
								c-0.8,0.2-1.6,0.5-2.2,1.1c-1.7,1.5-2.5,4.4-2.8,6.8c0.2,1.2,0.5,1.9,0.5,1.9c-1-1.3-2.3-2.4-3.8-3.3
								c-8.1-2.1-13.7,4.7-11.4,5.3c2.6,0.6,14.5,0,14.5,0s7.3,1.1,11.4,0c9.8,1.5,19.9,1.7,29.8,0.5c4.7,0.9,9.6,1,14.4,0.2
								c0,0,4.6,0.1,8.6-0.1C82,123.6,78.4,123.2,74.9,122.7z"/>
							
								<linearGradient id="_Path_18_1_" gradientUnits="userSpaceOnUse" x1="88.3713" y1="514.1105" x2="88.3713" y2="514.1105" gradientTransform="matrix(1 0 0 -1 0 637.5757)">
								<stop  offset="0" style="stop-color:#A085A5"/>
								<stop  offset="0.24" style="stop-color:#AC6D84;stop-opacity:0.67"/>
								<stop  offset="0.58" style="stop-color:#BE4C55;stop-opacity:0.2"/>
								<stop  offset="0.62" style="stop-color:#C05057;stop-opacity:0.23"/>
								<stop  offset="0.68" style="stop-color:#C65B5C;stop-opacity:0.3"/>
								<stop  offset="0.75" style="stop-color:#CF6E64;stop-opacity:0.41"/>
								<stop  offset="0.83" style="stop-color:#DC8770;stop-opacity:0.57"/>
								<stop  offset="0.92" style="stop-color:#EDA87E;stop-opacity:0.78"/>
								<stop  offset="1" style="stop-color:#FFCB8E"/>
							</linearGradient>
							<polygon id="_Path_18" class="st18" points="88.4,123.5 88.4,123.5 88.4,123.5 							"/>
						</g>
						<path id="_Path_19" class="st8" d="M77,119.8c0,0-2.8-11.2-14.5-7.1c0,0,2.5-9.4-7.1-11.9c4.7,2.6,7.1,7.7,6,12.6
							c0,0,10.9-4.6,14.8,7.4c0,0,9.3-5.8,14.4,2.3C94,122.2,84.7,115.2,77,119.8z"/>
					</g>
					<g id="_Group_10" class="st19">
						<path id="_Path_20" class="st5" d="M316.9,142.1c0,0-5.1-20.4-26.5-12.9c0,0,6.3-23.9-24.8-22.8
							c-33.7,1.3-22.7,22.1-22.7,22.1s-15.6-5.3-21.7,0c-3.2,2.8-4.5,8.1-5.1,12.5c-17.8-9.8-31.6,6.1-26.9,7.2s26.5,0,26.5,0
							s13.4,2,20.7,0c17.9,2.8,36.2,3.1,54.2,0.9c8.6,1.7,17.5,1.8,26.1,0.3c0,0,18.2,0.5,24.5-1.2S330.9,133.8,316.9,142.1z"/>
						<g id="_Group_11">
							
								<linearGradient id="_Path_21_1_" gradientUnits="userSpaceOnUse" x1="247.5539" y1="449.6839" x2="272.8542" y2="528.4123" gradientTransform="matrix(1 0 0 -1 0 637.5757)">
								<stop  offset="0" style="stop-color:#A085A5"/>
								<stop  offset="0.24" style="stop-color:#AC6D84;stop-opacity:0.67"/>
								<stop  offset="0.58" style="stop-color:#BE4C55;stop-opacity:0.2"/>
								<stop  offset="0.62" style="stop-color:#C05057;stop-opacity:0.23"/>
								<stop  offset="0.68" style="stop-color:#C65B5C;stop-opacity:0.3"/>
								<stop  offset="0.75" style="stop-color:#CF6E64;stop-opacity:0.41"/>
								<stop  offset="0.83" style="stop-color:#DC8770;stop-opacity:0.57"/>
								<stop  offset="0.92" style="stop-color:#EDA87E;stop-opacity:0.78"/>
								<stop  offset="1" style="stop-color:#FFCB8E"/>
							</linearGradient>
							<path id="_Path_21" class="st20" d="M313.1,147.3c-9.2,4.3-29.1-7-29.1-7c-1.3,1.1-2.9,2-4.7,2.5c-5.1,1.6-10.8,0.9-15.2-1.9
								c-33.4-20.7-0.5-34.4-0.3-34.5c-27.2,1.6-23,16.8-21.4,21c1.8,2.8,4.1,5.3,6.8,7.4c-12.9-9.4-23.3-8.4-24-8.3
								c-1.5,0.3-2.9,1-4,1.9c-3.2,2.8-4.5,8-5.1,12.4c0.4,2.1,0.8,3.5,0.8,3.5c-1.9-2.3-4.2-4.3-6.9-5.9c-14.7-3.8-25,8.6-20.7,9.7
								c4.8,1.1,26.5,0,26.5,0s13.4,2,20.7,0c17.9,2.8,36.2,3.1,54.2,0.9c8.6,1.7,17.5,1.8,26.1,0.3c0,0,8.3,0.3,15.7-0.1
								C326,149,319.5,148.4,313.1,147.3z"/>
							
								<linearGradient id="_Path_22_1_" gradientUnits="userSpaceOnUse" x1="337.6159" y1="488.8362" x2="337.6159" y2="488.8362" gradientTransform="matrix(1 0 0 -1 0 637.5757)">
								<stop  offset="0" style="stop-color:#A085A5"/>
								<stop  offset="0.24" style="stop-color:#AC6D84;stop-opacity:0.67"/>
								<stop  offset="0.58" style="stop-color:#BE4C55;stop-opacity:0.2"/>
								<stop  offset="0.62" style="stop-color:#C05057;stop-opacity:0.23"/>
								<stop  offset="0.68" style="stop-color:#C65B5C;stop-opacity:0.3"/>
								<stop  offset="0.75" style="stop-color:#CF6E64;stop-opacity:0.41"/>
								<stop  offset="0.83" style="stop-color:#DC8770;stop-opacity:0.57"/>
								<stop  offset="0.92" style="stop-color:#EDA87E;stop-opacity:0.78"/>
								<stop  offset="1" style="stop-color:#FFCB8E"/>
							</linearGradient>
							<polygon id="_Path_22" class="st21" points="337.6,148.7 337.6,148.7 337.6,148.7 							"/>
						</g>
						<path id="_Path_23" class="st8" d="M316.9,142.1c0,0-5.1-20.4-26.5-12.9c0,0,4.5-17.1-12.9-21.6c4.2,2.4,13.4,9.3,10.8,22.9
							c0,0,19.8-8.3,26.9,13.4c0,0,16.8-10.6,26.2,4.3C347.8,146.4,330.9,133.8,316.9,142.1z"/>
					</g>
					<path class="st22" d="M-6.3,584.2c0,8.9,8,16.1,17.9,16.2h397.3c9.9,0,17.9-7.2,17.9-16.2c0-2.7-0.8-5.4-2.2-7.8
						c5.2-9.1,1.2-20.2-8.9-24.9c-10.1-4.7-22.4-1.1-27.6,8c-0.3,0.6-0.6,1.2-0.9,1.8c-3.9-3.2-9.3-4.4-14.3-3.2
						c-0.7-4.7-5.6-8-10.8-7.4c-1.2,0.1-2.3,0.5-3.3,1c1-6-3.6-11.6-10.2-12.5c-3.8-0.5-7.7,0.6-10.4,3.1
						c-5.1-6.9-15.5-8.7-23.1-4.1c-1.8,1.1-3.3,2.4-4.5,4c-4.1-2.7-9.7-2.6-13.7,0.2c-4-6.4-13-8.7-20-5.1c-3.4,1.7-5.9,4.5-6.9,7.9
						c-2.3-0.6-4.7-0.4-6.7,0.7c-2.1-4.6-6.9-7.7-12.4-7.9l0,0c0-7.3-6.6-13.3-14.7-13.3c-3.3,0-6.5,1-9.1,2.8
						c-3-2.3-7.2-2.9-10.9-1.6c-2.5-6.7-10.5-10.2-17.9-8c-4.8,1.5-8.3,5.1-9.3,9.6h-0.2c-6.9,0-12.7,4.5-13.9,10.6
						c-3.9-3.2-9.8-3.4-13.9-0.5l-0.5-0.1c0.8-5.4-3.3-10.3-9.3-11.1c-1.6-0.2-3.2-0.1-4.7,0.3c-0.1-7.3-6.7-13.2-14.9-13.1
						c-5.4,0-10.4,2.8-12.9,7.1c-6.6-1.2-13,2.6-14.3,8.5c-0.1,0.3-0.1,0.6-0.2,0.9c-4-2.7-9.6-1.9-12.5,1.6c-1.5,1.8-2.1,4-1.6,6.2
						c-1.8-0.4-3.8,0-5.3,1.1c-0.3-4.1-4.3-7.2-8.9-7c-1.3,0.1-2.5,0.4-3.6,1c-3.2-8.8-13.8-13.5-23.5-10.6
						c-5.9,1.8-10.4,6.1-12,11.6c-4.1-1.9-9.1-0.5-11.2,3.1c-0.4,0.7-0.7,1.6-0.9,2.4c-10.9-2.5-22.1,3.4-24.9,13.3
						c-1.7,5.8-0.1,12,4.3,16.6C-2.4,572.3-6.3,578-6.3,584.2z M95.8,544.4c-0.5,0.5-1,1.1-1.4,1.6c0.3-0.6,0.5-1.3,0.5-2
						C95.2,544.2,95.5,544.3,95.8,544.4z M202,557.6h-0.4l0.1-0.3L202,557.6z M295.3,557.6h-0.1l0,0H295.3z"/>
					<polygon class="st23" points="458.7,589.2 458.7,579.5 395.3,579.5 297.2,579.5 233.7,579.5 198.4,579.5 38.8,579.5 33,579.5 
						-25.9,579.5 -45,579.5 -45,625.7 -45,651.1 -45,674.9 -30.9,674.9 -10,674.9 12,674.9 17.4,674.9 48.2,674.9 96,674.9 
						117.8,674.9 149.4,674.9 162.9,674.9 229.8,674.9 298,674.9 310.1,674.9 458.7,674.9 458.7,639.1 458.7,621.6 458.7,612.8 
						458.7,595.1 458.7,589.5 					"/>
					<path id="_Path_24" class="st24" d="M-60,614.8c0,0,22.9,24.8,58.9,16.6c36-8.2,56.3-41,100.8-41.5c0,0-37.4,7.2-53.8,29.6
						c-16.4,22.4-39.8,47.7-102.7,28.3L-60,614.8z"/>
					<path id="_Path_25" class="st24" d="M198.4,579.5c0,0-52,9.1-55,33.6c-2.1,17.5-1.1,30.6-39.9,36.5
						C62,656,26.3,693.8,26.3,693.8l61.5-2.1c3.1-10,8.9-19.2,17-26.7c15.4-13.9,43.2-3.5,51-57.2c3.9-26.9,60.8-24.2,60.8-24.2
						L198.4,579.5z"/>
					<path id="_Path_26" class="st25" d="M31.6,576.3c0,0,3.2,2.6,1.3,16.7c-1.6,11.9-10.5,22.4-32.1,28.2c0,0,25.5,2.4,54.3-34.7
						L31.6,576.3z"/>
					<path id="_Path_27" class="st25" d="M135.6,725.6c0,0,21.6-96.7,139.9-99s119.7-47.1,119.7-47.1s5.9,43.6-104,57.2
						c-109.9,13.6-56.8,143.2-56.8,143.2L135.6,725.6z"/>
					<path id="_Path_28" class="st24" d="M233.7,579.5c0,0-28.8,18.9-31.4,37.1c-2.6,18.3-39.2,18.3-47.1,30.6
						c10.3-4.4,21.1-8,32.1-10.6c16.6-3.9,19-3.7,24-21.1c2-6.9-5.2-22.5,46.6-16.7c33.8,3.7,61.5-16.4,61.5-16.4l-22.2-2.9
						c0,0-14.3,19-31.7,15.9C248.2,592.3,233.7,579.5,233.7,579.5z"/>
					<path class="st24" d="M458.7,589.2c-1.6,0-3.2-0.1-4.9,0l0,0c-8.2,0.5-16.3,2.1-23.9,4.7c-17,5.7-38.5,17-65.3,37.3
						c-27.4,20.8-49.2,34.5-66.5,43.6c-46.8,24.6-60.3,14.5-60.7,14.2l7.5,12.9l59.5-22.4c0,0,2.1-1.8,5.8-4.7
						c15.1-12.2,57.4-44.8,96.3-61.6c17.7-7.6,36.1-5.9,52.3-0.5L458.7,589.2L458.7,589.2z"/>
					<path class="st25" d="M458.7,621.6v17.5c-14.2-5.1-30.7-6.8-46.4,1.1c-39.9,20-61.7,28.3-72.6,22.4c0,0,26.2,3,65.4-33
						C422.2,613.9,441.9,615.2,458.7,621.6z"/>
					<path id="_Path_29" class="st25" d="M-20.8,706.8c0,0,75.2-78.7,109.2-84.4c34-5.7,47.1-29.3,47.1-29.3s-11.6,28.8-46.4,37.7
						S-20.8,706.8-20.8,706.8z"/>
					<path id="_Path_30" class="st26" d="M-36.5,605.4c0,0,17-8.8,24.2,0s-9.8,8.3-17.7,8C-37.8,613.1-36.5,605.4-36.5,605.4z"/>
					<path id="_Path_31" class="st26" d="M278.6,655.8c0,0,13.2-6.8,18.7,0c5.6,6.8-7.6,6.4-13.7,6.2S278.6,655.8,278.6,655.8z"/>
					<path id="_Path_32" class="st26" d="M-7,613.5c0,0,3.8,4.6,9.1,0S-10.8,608.9-7,613.5z"/>
					<path id="_Path_33" class="st26" d="M66.5,617.8c0,0,3.5-10.3,12.6-7.6c9.2,2.7,6.1,5.4,6.1,5.4S71.3,622.1,66.5,617.8z"/>
					<path id="_Path_34" class="st26" d="M249,609.1c0,0-5.3,6.8,0,7C254.2,616.3,255.3,607,249,609.1z"/>
					<path id="_Path_35" class="st26" d="M218.6,610.9c0,0,3.1,3.7,7.4,0C230.2,607.2,215.5,607.2,218.6,610.9z"/>
					<path id="_Path_36" class="st26" d="M228.7,614.2c0,0,2.8-8.3,10.2-6.2s5,4.4,5,4.4S232.5,617.7,228.7,614.2z"/>
					<path id="_Path_37" class="st26" d="M82.8,602.5L82.8,602.5c-1.4,1.7-0.9,4.1,1,5.3c0.1,0.1,0.2,0.1,0.3,0.2
						c3.2,1.8,7.9,3.6,11.6,2.1c2-0.8,2.7-2.8,2.3-4.9C96.7,598.7,87.1,597,82.8,602.5z"/>
					<path id="_Path_38" class="st26" d="M255.5,662.3L255.5,662.3c-1.1,1.3-0.7,3.2,0.8,4.2c0.1,0,0.1,0.1,0.2,0.1
						c2.5,1.4,6.1,2.8,8.9,1.7c1.5-0.7,2.3-2.3,1.8-3.8c-0.7-3.2-4.2-5.2-7.7-4.5C257.9,660.2,256.4,661,255.5,662.3z"/>
					<path id="_Path_39" class="st27" d="M293.7,646.6l-0.7,0.7c-0.7,0.7-0.6,1.8,0.2,2.4c0.3,0.2,0.7,0.4,1.2,0.4h1.1
						c0.7,0,1.2-0.5,1.2-1.1c0-0.1,0-0.1,0-0.2l0,0C296.3,647.5,295.1,646.6,293.7,646.6L293.7,646.6z"/>
					<path id="_Path_40" class="st26" d="M242.2,613.6l-0.7,0.8c-0.7,0.8-0.6,1.9,0.3,2.5c0.4,0.3,0.8,0.4,1.3,0.4h1.1
						c0.7,0,1.2-0.5,1.2-1.1c0,0,0-0.1,0-0.1l0,0C245,614.6,243.7,613.6,242.2,613.6L242.2,613.6z"/>
					<path id="_Path_41" class="st26" d="M276.2,667.1l0.9-0.4c0.9-0.4,1.3-1.4,0.9-2.3c-0.2-0.4-0.5-0.6-0.9-0.8l-1-0.4
						c-0.6-0.3-1.3,0-1.6,0.5c0,0.1-0.1,0.1-0.1,0.2l0,0C274.1,665.2,274.8,666.5,276.2,667.1L276.2,667.1z"/>
					<path id="_Path_42" class="st26" d="M-33,678.3c0.7-0.4,5.5-13,15.7-9.6c10.2,3.3,6.7,9.6,6.7,9.6H-33z"/>
					<path id="_Path_43" class="st26" d="M263,653.2c0,0-1.7,3.7,1.4,4.9c3.1,1.2,4.9-2.4,4.9-2.4l-3.3-2.4L263,653.2z"/>
					<path id="_Path_44" class="st26" d="M114.4,679.7c1.7-1,9.6-17.7,17.4-17.6s16.1-2.3,19.6-0.3s3.1,3.2,3.7,6.4
						s-15,13.6-15,13.6L114.4,679.7z"/>
					<path id="_Path_45" class="st26" d="M397.5,657.4c0,0-6.1,7.4,0,7.6c6.1,0.2,15.3-6.8,15.3-6.8S410.1,647.2,397.5,657.4z"/>
					<rect id="_Rectangle_2" x="26.3" y="-3.4" class="st28" width="365.8" height="329.5"/>
					<path class="st29" d="M458.7,589.2v-23.4c-80.9-4.2-160.3,4.4-240.9,1.8c-15.5,0-30.4,0-45.9-2.8c-11-2.3-20.7-6.2-32.3-4
						c-31.7,5.7-61.5,6.2-92.5,6.8c-23.3,0.6-47.9,3.4-69.8-2.8h-0.3c-0.2,0-0.3,0-0.3-0.1s0.1-0.3,0.4-0.7l0.1-0.2
						c0.1-0.1,0.2-0.2,0.2-0.4c0.1-0.1,0.2-0.3,0.2-0.5c0,0,0-0.1,0-0.1h-2.1c0.4,2.9-0.7,10.5-1.4,16.7c-0.4,4-0.7,7.4-0.3,8.5
						c0,0.1,0.1,0.2,0.2,0.2l0.1,0.1h0.1c18.6,5.3,39,4.1,59,3.2c3.7-0.2,7.3-0.3,10.9-0.4l7.6-0.1c28.3-0.5,55.8-1.4,84.9-6.6
						c11.6-2.3,21.3,1.7,32.3,3.9h0.3c1.8,0.3,3.5,0.6,5.3,0.9c13.5,1.9,26.7,1.9,40.3,1.9c1.4,0,2.8,0.1,4.2,0.1
						c11.4,0.3,22.7,0.4,34.1,0.4l0,0c10.4,0,20.7-0.2,31.1-0.4c6.9-0.2,13.7-0.3,20.6-0.6c29.2-0.9,58.4-2,87.6-2.3l0,0h1.6
						c19.8-0.2,39.7,0,59.7,1l0,0l4.9,0.3L458.7,589.2z"/>
					<g class="st14">
						<path class="st15" d="M139.4,454.8c-1.2,1.9-2.7,3.6-4.4,5.1c-1.8,1.3-3.9,2.3-6.2,2.8c-1.3,0.3-2.7,0.6-4,0.8l0,0
							c0-10,0-20.1-0.4-30.2c-0.2-5.1-0.6-10.1-1.2-15.1l-0.1-1.1l0.2-0.3l-0.2-0.1l-1.4-13.4l-2.5-24.1l13.2-14.5l-13.5,11
							l-0.2-2.4c-0.5-5-0.9-10-1.3-15c-0.2-2.5-0.4-5-0.4-7.5c-0.1-2.5,0.2-5,0.5-7.4c0.5-5,1.8-9.9,3.7-14.5c1-2.3,2.2-4.6,3.5-6.8
							c0.7-1.1,1.4-2.2,2.1-3.2c0.8-1,1.4-2.2,1.9-3.3c-0.5,1.2-1.2,2.3-2,3.3c-0.8,1-1.5,2.1-2.3,3.2c-1.5,2.1-2.7,4.4-3.8,6.7
							c-2.1,4.7-3.5,9.6-4.2,14.6c-0.4,2.5-0.6,5-0.8,7.6c-0.2,2.5,0.1,5.1,0.2,7.6c0.2,5,0.5,10,0.7,15.1l2,30.1l0.8,11.7
							l-15.5-6.4l15.7,9.1v0.6c0.4,5,0.6,9.9,0.6,14.9c0,9.8-0.2,19.7-0.6,29.6l-6.5-2.2l-1,2.7l7.4,2l-1,28.2c0,1.7-0.1,3.3-0.2,5
							l-6.1-2.8l6,5.1c0,0.1,0,0.2,0,0.3c0,2.5,0,5.1,0.2,7.6c0.2,5.1,0.6,10.2,1.1,15.2c1,10.1,2.2,20.1,3.8,30.1l8.2-1.2
							c-1.8-9.8-3.4-19.7-4.7-29.6c-0.6-4.9-1.2-9.9-1.6-14.8c-0.2-2.5-0.3-4.9-0.4-7.4c-0.1-2.4,0-5,0-7.5v-28.1
							c1.6-0.3,3.1-0.8,4.6-1.3c2.4-0.7,4.6-2,6.5-3.5c1.6-1.7,3-3.6,4.1-5.6c1.1-2,2-4,2.8-6.1
							C141.8,450.9,140.6,452.9,139.4,454.8z"/>
						<path class="st15" d="M107,408.3l0.4-0.7c1.6-3.3-0.1-7.2-3.7-8.6l-0.4,0.7C101.7,402.9,103.3,406.8,107,408.3z"/>
						<path class="st15" d="M95.3,416.3l0.9,0.2c3.9,0.7,7.8-1.5,8.6-5.1l0,0l-0.9-0.2C100,410.5,96.2,412.7,95.3,416.3z"/>
						<path class="st15" d="M137.5,453.4l0.9,0.2c1.1-3.5-1.2-7.1-5-8.1l-0.9-0.2C131.4,448.8,133.7,452.4,137.5,453.4z"/>
						<path class="st15" d="M142.8,456.8l-2.8,0.5l0,0c0.6,2.6,3.5,4.3,6.4,3.7l2.8-0.5C148.5,457.9,145.7,456.3,142.8,456.8z"/>
						<path class="st15" d="M111,495.1v-0.7c0-2.6-2.3-4.6-5.1-4.6v0.7C105.9,493,108.2,495.1,111,495.1z"/>
						<path class="st15" d="M105.2,501.9l0.8,0.1c2.8,0.3,5.3-1.5,5.7-4.1l-0.8-0.1C108.1,497.5,105.5,499.4,105.2,501.9z"/>
					</g>
					<g class="st30">
						<path class="st15" d="M444.6,417.8c-1.7,2.7-3.9,5.2-6.4,7.4c-2.7,1.9-5.7,3.3-9,4c-1.9,0.5-3.9,0.9-5.9,1.2l0,0
							c0-14.6,0-29.1-0.6-43.7c-0.3-7.3-0.8-14.6-1.7-22l-0.2-1.6l0.3-0.5l-0.3-0.1l-2-19.5l-3.6-34.9l19.1-21l-19.6,16l-0.4-3.5
							c-0.7-7.2-1.3-14.5-1.8-21.7c-0.3-3.6-0.5-7.3-0.6-10.8s0.3-7.2,0.7-10.8c0.8-7.2,2.6-14.3,5.4-21.1c1.4-3.4,3.1-6.7,5.1-9.8
							c1-1.6,2-3.1,3.1-4.7c1.2-1.5,2.1-3.1,2.8-4.8c-0.7,1.7-1.7,3.3-2.9,4.7c-1.1,1.5-2.2,3-3.3,4.6c-2.1,3.1-4,6.4-5.5,9.7
							c-3.1,6.8-5.2,13.9-6.2,21.2c-0.6,3.6-0.9,7.2-1.1,11c-0.2,3.7,0.1,7.3,0.3,11c0.3,7.3,0.7,14.5,1.1,21.8l2.9,43.6l1.1,16.9
							l-22.6-9.2l22.8,13.2v0.9c0.6,7.2,0.9,14.4,0.9,21.6c0.1,14.3-0.4,28.6-0.9,42.9l-9.3-3.2l-1.4,3.8l10.7,2.8l-1.5,40.9
							c-0.1,2.4-0.2,4.8-0.3,7.3l-8.8-4.1l8.7,7.4c0,0.1,0,0.3,0,0.4c0,3.7,0.1,7.4,0.2,11.1c0.3,7.4,0.9,14.7,1.6,22
							c1.4,14.6,3.3,29.1,5.5,43.6l11.9-1.7c-2.7-14.2-5-28.6-6.9-42.9c-0.9-7.2-1.8-14.3-2.3-21.5c-0.3-3.6-0.5-7.1-0.6-10.7
							c-0.1-3.6,0-7.2,0-10.9l0.1-40.7c2.3-0.5,4.5-1.1,6.7-1.8c3.5-1.1,6.7-2.8,9.4-5.1c2.4-2.4,4.4-5.2,5.9-8.1
							c1.6-2.9,3-5.8,4.1-8.8C448,412.2,446.4,415.1,444.6,417.8z"/>
						<path class="st15" d="M397.6,350.4l0.5-1.1c2.3-4.8-0.1-10.4-5.4-12.5l-0.5,1.1C389.8,342.6,392.2,348.2,397.6,350.4z"/>
						<path class="st15" d="M380.7,362l1.3,0.2c5.7,1.1,11.3-2.2,12.5-7.3l0,0l-1.3-0.2C387.5,353.6,381.9,356.9,380.7,362z"/>
						<path class="st15" d="M441.8,415.8l1.2,0.3c1.5-5.1-1.7-10.3-7.3-11.7l-1.2-0.3C433,409.2,436.2,414.4,441.8,415.8z"/>
						<path class="st15" d="M449.5,420.8l-4,0.8l0,0c0.9,3.8,5,6.2,9.2,5.4l4-0.8C457.8,422.4,453.6,420,449.5,420.8z"/>
						<path class="st15" d="M403.4,476.2v-1.1c0-3.7-3.3-6.7-7.5-6.7v1.1C396,473.2,399.3,476.2,403.4,476.2z"/>
						<path class="st15" d="M395,486.1l1.2,0.1c4.1,0.4,7.8-2.2,8.3-5.9l-1.2-0.1C399.2,479.8,395.5,482.4,395,486.1z"/>
					</g>
					<g class="st31">
						
							<linearGradient id="SVGID_3_" gradientUnits="userSpaceOnUse" x1="162.8817" y1="80.3083" x2="162.8817" y2="447.213" gradientTransform="matrix(1 0 0 -1 0 637.5757)">
							<stop  offset="0" style="stop-color:#C48951"/>
							<stop  offset="1" style="stop-color:#6E2E3B"/>
						</linearGradient>
						<path class="st32" d="M163.4,557.3c-0.6-15.4-1-30.9-1.3-46.3c-0.1-7.7-0.2-15.4-0.2-23.2c0-3.8,0-7.7,0.1-11.6
							c0.1-3.9,0-7.6-0.1-11.5c-0.4-15.4-1-30.8-0.7-46.3c0.1-3.9,0.3-7.6,0.3-11.5c0-3.8,0-7.6-0.1-11.5
							c-0.3-7.6-0.8-15.3-1.6-22.9c-0.7-7.6-1.7-15.3-2.4-23s-1.2-15.4-1.8-23.1c-1.1-15.4-2.1-30.7-3-46.1
							c-0.4-7.6-0.8-15.4-1.2-23.1c-0.2-3.8-0.3-7.6-0.3-11.6c0-3.9,0.6-7.7,1.2-11.6c1.1-7.7,3.3-15.2,6.5-22.4
							c1.7-3.6,3.6-7,5.8-10.3c1.1-1.7,2.3-3.3,3.5-4.9c1.3-1.6,2.3-3.3,3.1-5.1c-0.7,1.8-1.7,3.5-2.9,5.1c-1.1,1.6-2.3,3.3-3.3,4.9
							c-2.1,3.3-4,6.8-5.5,10.4c-3,7.2-4.9,14.7-5.8,22.3c-0.5,3.8-0.7,7.6-0.8,11.5c-0.1,3.8,0.4,7.6,0.6,11.5
							c0.6,7.6,1.2,15.3,1.9,23c1.4,15.3,2.8,30.7,4.4,46c0.8,7.6,1.6,15.3,2.5,22.9c0.9,7.6,2.1,15.3,3.1,22.9
							c1,7.6,1.8,15.4,2.3,23.1c0.2,3.8,0.5,7.8,0.5,11.7s0.1,7.8,0.1,11.6c0.2,15.3,1.2,30.6,2,46c0.2,3.8,0.4,7.7,0.5,11.7
							c0.1,3.9,0.2,7.6,0.3,11.5c0.2,7.6,0.6,15.3,0.9,23c0.7,15.3,1.6,30.7,2.7,46L163.4,557.3z"/>
					</g>
					<path class="st33" d="M461.7,548.6c8.1-8.6,7-21.4-2.5-28.7c-5.6-4.3-13.2-5.9-20.3-4.2c-0.7-4.5-5.4-7.6-10.4-7
						c-1,0.1-2,0.4-2.9,0.9c-2.9-9.8-14.1-15.7-25-13.1c-6.7,1.6-12,6.1-14.2,12c-4.4-2.3-10-1-12.6,2.9c-0.7,1.1-1.1,2.3-1.2,3.6
						c-1.6-1.2-3.8-1.6-5.8-1.2c0.9-4.9-2.8-9.4-8.2-10.2c-2.6-0.4-5.2,0.2-7.4,1.6c-0.9-6.6-7.6-11.3-14.9-10.5
						c-0.3,0-0.6,0.1-0.9,0.1c-4.1-7.2-14-9.9-21.9-6.2c-5.3,2.5-8.7,7.4-8.7,12.8c-6.3-1.8-13,1.3-15,7c-0.6,1.6-0.7,3.2-0.4,4.8
						l-0.6,0.1c-4.6-3.2-11-3-15.3,0.5c-1.3-6.7-7.7-11.6-15.3-11.6h-0.3c-1.6-7.6-9.7-12.6-18.1-11.2c-5.6,0.9-10.1,4.5-11.9,9.4
						c-4-1.4-8.6-0.7-12,1.8c-7.1-5-17.3-3.9-22.8,2.5c-2.2,2.6-3.4,5.7-3.5,9l0,0c-6.1,0.2-11.4,3.7-13.7,8.8
						c-2.2-1.2-4.9-1.5-7.4-0.8c-2.5-7.8-11.5-12.2-20.1-10c-4.1,1.1-7.6,3.5-9.7,6.9c-4.4-3.1-10.6-3.2-15.2-0.2
						c-5.7-7.6-17.1-9.5-25.5-4.4c-1.9,1.2-3.6,2.7-4.9,4.5c-5.2-4.7-13.7-4.8-18.9-0.1c-3.1,2.7-4.5,6.6-3.8,10.5
						c-5.1-2.5-11.6-0.8-14.4,3.8c-0.6,1-1,2.1-1.2,3.2c-5.6-1.4-11.6,0-15.8,3.5c-4.4-10.5-17.5-15.8-29.1-11.9
						c-11.7,4-17.6,15.7-13.2,26.3c0.3,0.8,0.7,1.5,1.1,2.3c-1.7,2.7-2.5,5.6-2.5,8.7c0,9.8,8.9,17.8,19.8,17.8H453
						c10.9,0,19.8-8,19.7-17.9C472.7,557.8,468.4,551.6,461.7,548.6z M361.2,520.5c0.1,0.7,0.3,1.5,0.6,2.2c-0.5-0.6-1-1.2-1.6-1.8
						C360.5,520.7,360.8,520.6,361.2,520.5z M243.3,535.1l0.1,0.3H243L243.3,535.1z M140.3,535.3L140.3,535.3L140.3,535.3
						L140.3,535.3z"/>
					<g class="st30">
						<path class="st15" d="M33.3,422.9c-1.7,2.7-3.9,5.2-6.4,7.4c-2.7,1.9-5.7,3.3-9,4c-1.9,0.5-3.9,0.9-5.9,1.2l0,0
							c0-14.6,0-29.1-0.6-43.7c-0.3-7.3-0.8-14.6-1.7-22l-0.2-1.6l0.3-0.5l-0.3-0.1l-2-19.5L4,313.2l19.1-21l-19.6,16L3,304.7
							c-0.7-7.2-1.3-14.5-1.8-21.7c-0.3-3.6-0.5-7.3-0.6-10.8c-0.1-3.6,0.3-7.2,0.7-10.8c0.8-7.2,2.6-14.3,5.4-21.1
							c1.4-3.4,3.1-6.7,5.1-9.8c1-1.6,2-3.1,3.1-4.7c1.2-1.5,2.1-3.1,2.8-4.8c-0.7,1.7-1.7,3.3-2.9,4.7c-1.1,1.5-2.2,3-3.3,4.6
							c-2.1,3.1-4,6.4-5.5,9.7c-3.1,6.8-5.2,13.9-6.2,21.2c-0.6,3.6-0.9,7.2-1.1,11c-0.2,3.7,0.1,7.3,0.3,11
							c0.3,7.3,0.7,14.5,1.1,21.8L3,348.4l1.1,16.9l-22.6-9.2l22.8,13.2v0.9c0.6,7.2,0.9,14.4,0.9,21.6c0.1,14.3-0.4,28.6-0.9,42.9
							l-9.3-3.2l-1.4,3.8l10.7,2.8L2.9,479c-0.1,2.4-0.2,4.8-0.3,7.3l-8.8-4.1l8.7,7.4c0,0.1,0,0.3,0,0.4c0,3.7,0.1,7.4,0.2,11.1
							c0.3,7.4,0.9,14.7,1.6,22c1.4,14.6,3.3,29.1,5.5,43.6l11.9-1.7c-2.7-14.2-5-28.6-6.9-42.9c-0.9-7.2-1.8-14.3-2.3-21.5
							c-0.3-3.6-0.5-7.1-0.6-10.7c-0.1-3.6,0-7.2,0-10.9l0.1-40.7c2.3-0.5,4.5-1.1,6.7-1.8c3.5-1.1,6.7-2.8,9.4-5.1
							c2.4-2.4,4.4-5.2,5.9-8.1c1.6-2.9,2.9-5.8,4.1-8.8C36.7,417.3,35.1,420.2,33.3,422.9z"/>
						<path class="st15" d="M-13.7,355.5l0.5-1.1c2.3-4.8-0.1-10.4-5.4-12.5l-0.5,1.1C-21.5,347.7-19.1,353.3-13.7,355.5z"/>
						<path class="st15" d="M-30.6,367.1l1.3,0.2c5.7,1.1,11.3-2.2,12.5-7.3l0,0l-1.3-0.2C-23.8,358.7-29.4,362-30.6,367.1z"/>
						<path class="st15" d="M30.6,420.9l1.2,0.3c1.5-5.1-1.7-10.3-7.3-11.7l-1.2-0.3C21.7,414.3,25,419.5,30.6,420.9z"/>
						<path class="st15" d="M38.2,425.9l-4,0.8l0,0c0.9,3.8,5,6.2,9.2,5.4l4-0.8C46.5,427.5,42.4,425.1,38.2,425.9z"/>
						<path class="st15" d="M-7.8,481.3v-1.1c0-3.7-3.3-6.7-7.5-6.7v1.1C-15.3,478.3-12,481.3-7.8,481.3z"/>
						<path class="st15" d="M-16.3,491.2l1.2,0.1c4.1,0.4,7.8-2.2,8.3-5.9l-1.2-0.1C-12.1,484.9-15.8,487.5-16.3,491.2z"/>
					</g>
					<path class="st34" d="M458.7,589.5v5.6c-9.6-0.5-19.3-0.9-28.8-1.1c-12.8-0.3-25.6-0.3-38.4-0.1h-2.8
						c-33.9,0.4-67.7,2-101.5,2.8l0,0c-24,0.6-48.1,0.8-72.3,0h-1.2c-15.1,0-29.6-0.1-44.7-2.8c-0.9-0.2-1.9-0.4-2.8-0.6
						c-1.6-0.4-3.2-0.8-4.7-1.1c-8.1-2-15.9-3.9-24.9-2.2c-18.4,3.2-37,5.1-55.8,5.8l0,0c-4.1,0.2-8.2,0.4-12.3,0.5l0,0
						c-7.2,0.2-14.5,0.4-21.9,0.5l0,0H44c-4,0.1-8,0.3-12,0.4c-19.6,0.8-39.6,1.9-57.9-3.3c-0.7,0-0.6-2.5-0.3-5.9l0,0
						c0,0.1,0.1,0.2,0.2,0.3h0.1h0.1c18.6,5.3,39,4.1,59,3.2c3.7-0.2,7.3-0.3,10.9-0.4l7.6-0.1c28.3-0.5,55.8-1.4,84.9-6.6
						c11.6-2.3,21.3,1.7,32.3,3.9h0.3c1.8,0.3,3.5,0.6,5.3,0.9c13.5,1.9,26.7,1.9,40.3,1.9c1.4,0,2.8,0.1,4.2,0.1
						c11.4,0.3,22.7,0.4,34.1,0.4l0,0c10.4,0,20.7-0.2,31.1-0.4c6.9-0.2,13.7-0.3,20.6-0.6c29.2-0.9,58.4-2,87.6-2.3l0,0h1.6
						c19.8-0.2,39.7,0,59.7,1l0,0L458.7,589.5z"/>
					
						<linearGradient id="SVGID_4_" gradientUnits="userSpaceOnUse" x1="217.6466" y1="58.4973" x2="217.6466" y2="106.8942" gradientTransform="matrix(1 0 0 -1 0 637.5757)">
						<stop  offset="0" style="stop-color:#BFA910"/>
						<stop  offset="1" style="stop-color:#CFA53D"/>
					</linearGradient>
					<path class="st35" d="M458.7,559.3v6.6c-80.9-4.2-160.3,4.4-240.9,1.8c-15.5,0-30.4,0-45.9-2.8c-11-2.3-20.7-6.2-32.3-4
						c-31.7,5.7-61.5,6.2-92.5,6.8c-23.3,0.6-47.9,3.4-69.8-2.8h-0.3c-0.2,0-0.3,0-0.3,0s0.1-0.3,0.4-0.7c0,0,0-0.1,0.1-0.2
						c0.1-0.1,0.2-0.2,0.2-0.4c0.1-0.1,0.2-0.3,0.2-0.5c0,0,0-0.1,0-0.1c0.4-1.2,0.5-2.5,0.3-3.7c10.4,0,21.4,1.3,32.3,2.3L8.5,553
						l5.5,7.2l2-34.4l1.4,36.2h0.4l7.7-17l-6.2,17.1c8.2,0.6,16.4,0.4,24.5-0.8c12.7-1.9,25.4-3,38.3-3.8l9.5-0.6
						c10.9-0.6,21.8-1,32.8-1.4h1.9c7.6-0.3,15.2-0.6,22.9-0.9c1.9,0,3.7-0.1,5.7-0.1l7.2,0.2h0.4l1.5,0.1
						c11.1,0.8,22.2,2.2,33.1,4.2c14.2,2.8,28.8,3.9,43.3,3.4c16.7-1,33.5-1.9,50.3-2.8L290,556l2.4,3.6c27.8-1.4,55.6-2.4,83.5-2.5
						l-1.6-8.1l5.5,7.2l2-21.6l1.3,22.5h1l7.2-13.5l-6,13.4c8.6,0,17.2,0.1,25.9,0.2l2.3-4.6l-1.1,4.6
						C427.8,557.6,443.2,558.3,458.7,559.3z"/>
					<ellipse class="st36" cx="50.7" cy="96.6" rx="1.9" ry="1.7"/>
					<ellipse class="st36" cx="207.6" cy="160.3" rx="1.9" ry="1.7"/>
					<ellipse class="st36" cx="307.1" cy="84.7" rx="1.1" ry="1"/>
					<ellipse class="st36" cx="164.4" cy="237.2" rx="1.1" ry="1"/>
					<path class="st37" d="M411.3,184l-1,0.2l-0.2-0.9c0-0.2-0.2-0.3-0.4-0.2c-0.2,0-0.3,0.2-0.3,0.4l0.2,0.9l-1,0.2
						c-0.2,0-0.3,0.2-0.3,0.4c0,0.2,0.2,0.3,0.4,0.2l1-0.2l0.2,0.9c0,0.2,0.2,0.3,0.4,0.2c0.2,0,0.3-0.2,0.3-0.4l0,0l-0.2-0.9l1-0.2
						c0.2,0,0.3-0.2,0.3-0.4C411.6,184.1,411.4,184,411.3,184z"/>
					<path class="st37" d="M224.7,32.2l-1.2-0.4l0.4-1c0-0.2-0.1-0.4-0.3-0.5c-0.2,0-0.4,0-0.5,0.2l-0.4,1l-1.2-0.4
						c-0.2-0.1-0.5,0-0.6,0.2s0,0.4,0.2,0.5c0,0,0.1,0,0.1,0l1.2,0.4l-0.4,1c0,0.2,0.1,0.4,0.3,0.5c0.2,0,0.4,0,0.5-0.2l0.4-1
						l1.2,0.4c0.2,0.1,0.5,0,0.6-0.2c0.1-0.2,0-0.4-0.2-0.5C224.8,32.2,224.7,32.2,224.7,32.2z"/>
					<path class="st37" d="M24.8,4.8l-0.7,0.3l-0.3-0.6c-0.1-0.1-0.2-0.2-0.4-0.1c-0.1,0.1-0.2,0.2-0.1,0.3l0.3,0.6L23,5.6
						c-0.1,0-0.2,0.2-0.2,0.3C22.9,6,23.1,6,23.2,6c0,0,0,0,0.1,0l0.7-0.3l0.3,0.6c0.1,0.1,0.2,0.1,0.4,0.1c0.1-0.1,0.1-0.2,0.1-0.3
						l-0.3-0.6L25,5.2c0.1-0.1,0.2-0.2,0.1-0.3C25.1,4.8,24.9,4.7,24.8,4.8z"/>
					<path class="st37" d="M95.5,57l-0.7,0.3l-0.3-0.6c-0.1-0.1-0.2-0.1-0.4-0.1C94,56.7,94,56.8,94,56.9l0.3,0.6l-0.7,0.3
						c-0.1,0-0.2,0.2-0.2,0.3c0,0.1,0.2,0.2,0.3,0.1c0,0,0,0,0.1,0l0.7-0.3l0.3,0.6c0.1,0.1,0.2,0.1,0.4,0.1
						c0.1-0.1,0.1-0.2,0.1-0.3L95,57.7l0.7-0.3c0.1,0,0.2-0.2,0.2-0.3C95.8,57,95.6,56.9,95.5,57C95.5,57,95.5,57,95.5,57z"/>
					<path class="st37" d="M95.5,134.7l-0.7,0.3l-0.3-0.6c-0.1-0.1-0.2-0.1-0.4-0.1c-0.1,0.1-0.1,0.2-0.1,0.3l0.3,0.6l-0.7,0.3
						c-0.1,0-0.2,0.2-0.2,0.3c0,0.1,0.2,0.2,0.3,0.1c0,0,0,0,0.1,0l0.7-0.3l0.3,0.6c0.1,0.1,0.2,0.1,0.4,0.1
						c0.1-0.1,0.1-0.2,0.1-0.3l-0.3-0.6l0.7-0.3c0.1,0,0.2-0.2,0.2-0.3C95.8,134.7,95.6,134.6,95.5,134.7
						C95.5,134.6,95.5,134.6,95.5,134.7z"/>
					<path class="st37" d="M153.4,160.1l-0.7,0.3l-0.3-0.6c-0.1-0.1-0.2-0.1-0.4-0.1c-0.1,0.1-0.1,0.2-0.1,0.3l0.3,0.6l-0.7,0.3
						c-0.1,0-0.2,0.2-0.2,0.3c0,0.1,0.2,0.2,0.3,0.1c0,0,0,0,0.1,0l0.7-0.3l0.3,0.6c0.1,0.1,0.2,0.1,0.4,0.1
						c0.1-0.1,0.1-0.2,0.1-0.3l-0.3-0.6l0.7-0.3c0.1,0,0.2-0.2,0.2-0.3C153.7,160.1,153.6,160.1,153.4,160.1
						C153.4,160.1,153.4,160.1,153.4,160.1z"/>
					<path class="st37" d="M181.7,95.2l-0.7,0.3l-0.3-0.6c-0.1-0.1-0.2-0.1-0.4-0.1c-0.1,0.1-0.1,0.2-0.1,0.3l0.3,0.6l-0.7,0.3
						c-0.1,0-0.2,0.2-0.2,0.3c0,0.1,0.2,0.2,0.3,0.1c0,0,0,0,0.1,0l0.7-0.3l0.3,0.6c0.1,0.1,0.2,0.1,0.4,0.1
						c0.1-0.1,0.1-0.2,0.1-0.3l-0.3-0.6l0.7-0.3c0.1,0,0.2-0.2,0.2-0.3C182,95.2,181.8,95.1,181.7,95.2
						C181.7,95.2,181.7,95.2,181.7,95.2z"/>
					<polygon class="st15" points="352.7,550.7 345.6,550.7 345.6,550.7 352.7,550.7 					"/>
				</g>
			</g>
		</g>
	</g>
</g>
</svg>
