<?xml version="1.0" encoding="utf-8"?>
<!-- Generator: Adobe Illustrator 21.0.1, SVG Export Plug-In . SVG Version: 6.00 Build 0)  -->
<svg version="1.1" id="Layer_1" xmlns="http://www.w3.org/2000/svg" xmlns:xlink="http://www.w3.org/1999/xlink" x="0px" y="0px"
	 viewBox="0 0 125.6 51.7" style="enable-background:new 0 0 125.6 51.7;" xml:space="preserve">
<style type="text/css">
	.st0{fill:#7A0000;}
	.st1{fill:#AD0B0B;}
	.st2{fill:#D60505;}
	.st3{opacity:0.14;fill:#076302;enable-background:new    ;}
	.st4{enable-background:new    ;}
	.st5{fill:#FFFFFF;}
</style>
<title>newuser</title>
<polygon class="st0" points="125.6,47.3 124.1,48.2 118.7,51.7 60.3,50 52.7,49.7 42.4,49.4 0.9,48.2 0,12.2 0.9,11 7.7,1.7 
	60.3,6.4 67,7 115.3,11.4 122.3,16.3 123.8,17.5 "/>
<polygon class="st1" points="123.9,44.1 117.2,48.3 60.3,46.6 45.9,46.2 1.7,44.9 0.9,11 0.8,10.2 8.4,0 60.3,4.6 67,5.2 113.8,9.3 
	122.2,15.2 122.3,16.3 "/>
<polygon class="st2" points="4.9,41.6 4.2,11.3 9.9,3.5 112.6,12.6 118.9,17.1 120.4,42.2 116.3,44.9 "/>
<polygon class="st3" points="125.6,47.3 124.1,48.2 52.7,49.7 41.8,50 42.4,49.4 45.9,46.2 49.5,42.9 67,26.8 67,5.2 113.8,9.3 
	122.2,15.2 122.3,16.3 123.8,17.5 "/>
<g class="st4">
	<path class="st5" d="M16.9,18.7l7.8,6.6l0.2-6.9l6.1,0.4L30,34.7l-7.8-4l0.3,4.9L16.6,36L16.9,18.7z"/>
	<path class="st5" d="M43,34.1c-0.8,0.6-1.7,1.1-2.6,1.3c-0.9,0.3-1.9,0.4-3,0.4c-0.9,0-1.8-0.2-2.5-0.5c-0.8-0.3-1.4-0.8-2-1.3
		c-0.6-0.6-1-1.2-1.3-1.9c-0.3-0.7-0.5-1.5-0.5-2.4c0-1,0.2-2,0.5-2.8c0.3-0.8,0.8-1.5,1.3-2.1c0.6-0.6,1.2-1,1.9-1.3
		c0.7-0.3,1.5-0.4,2.4-0.4c1.4,0,2.5,0.4,3.5,1.1c1,0.7,1.7,1.7,2.2,2.8L37,31.7c0.1,0.1,0.3,0.1,0.6,0.2c0.2,0,0.5,0,0.7,0
		c0.6,0,1.2-0.1,1.6-0.3c0.4-0.2,0.8-0.5,1.2-0.8L43,34.1z M38.6,27.3c-0.2-0.2-0.4-0.4-0.6-0.5c-0.2-0.1-0.5-0.1-0.8-0.1
		c-0.3,0-0.5,0.1-0.7,0.2c-0.2,0.1-0.4,0.3-0.6,0.5c-0.2,0.2-0.3,0.4-0.4,0.7s-0.1,0.5-0.1,0.8c0,0.2,0,0.4,0.1,0.5
		c0,0.1,0.1,0.2,0.1,0.3L38.6,27.3z"/>
	<path class="st5" d="M48.3,28.9l1.2-5.4l3.2-0.2l1.2,5.7h0l1.2-5.9l4.4,0.4l-3.1,12l-4.2,0.3L51.1,30h0l-1.2,5.5l-4.2,0.4
		l-3.2-12.4l4.6-0.4L48.3,28.9L48.3,28.9z"/>
	<path class="st5" d="M77.9,19.2c0.1,2.1,0.1,3.8,0.2,5.1c0,1.3,0.1,2.3,0.1,3c0,0.7,0,1.2,0,1.4V29c0,0.8,0,1.7-0.2,2.4
		c-0.1,0.8-0.4,1.5-0.7,2.1c-0.4,0.6-0.8,1.2-1.5,1.6s-1.4,0.8-2.3,0.9c-1.4,0.3-2.6,0.3-3.7,0.1c-1-0.2-1.9-0.6-2.5-1.2
		s-1.1-1.4-1.4-2.3c-0.3-0.9-0.4-2-0.4-3.1c0,0,0-0.1,0-0.2c0-0.1,0-0.4,0-0.9s0-1.1,0-1.9c0-0.8,0-1.9,0.1-3.2s0.1-3,0.1-4.9l5.8,1
		L71,29.3c-0.1,0.4-0.1,0.7,0,1c0.1,0.3,0.1,0.5,0.2,0.6c0.1,0.1,0.1,0.2,0.1,0.2c0.1,0.2,0.3,0.2,0.5,0.3s0.4-0.1,0.6-0.5
		c0,0,0.1-0.1,0.1-0.3s0.1-0.4,0.2-0.8c0.1-0.4,0.1-0.9,0.1-1.5l-0.4-8L77.9,19.2z"/>
	<path class="st5" d="M79.8,31.8c0.4,0.1,0.8,0.1,1.2,0.1c0.2,0,0.4,0,0.6,0c0.2,0,0.4,0,0.6-0.1c0.2,0,0.3-0.1,0.4-0.2
		s0.2-0.2,0.2-0.4c0-0.2-0.1-0.4-0.3-0.5c-0.2-0.1-0.5-0.2-0.8-0.3c-0.3-0.1-0.6-0.2-1-0.3s-0.7-0.3-1-0.6c-0.3-0.3-0.6-0.6-0.8-1
		c-0.2-0.4-0.3-1-0.3-1.7c0-0.5,0.1-0.9,0.3-1.4c0.2-0.4,0.5-0.8,0.9-1.2s0.9-0.7,1.5-0.9s1.4-0.3,2.3-0.3c0.3,0,0.7,0,1,0
		s0.7,0.1,1,0.1c0.3,0,0.6,0.1,0.8,0.1c0.3,0,0.5,0.1,0.7,0.1v3.7c-0.3-0.1-0.7-0.2-1-0.2c-0.3-0.1-0.7-0.1-1.1-0.1
		c-0.1,0-0.2,0-0.4,0S84.2,27,84,27c-0.2,0-0.3,0.1-0.5,0.2c-0.1,0.1-0.2,0.2-0.2,0.3c0,0.2,0.1,0.4,0.3,0.5
		c0.2,0.1,0.5,0.2,0.8,0.3c0.3,0.1,0.7,0.2,1.1,0.4c0.4,0.1,0.7,0.3,1.1,0.6c0.3,0.3,0.6,0.6,0.8,1s0.3,1,0.3,1.7
		c0,0.7-0.2,1.4-0.5,1.9c-0.3,0.5-0.7,0.9-1.3,1.2c-0.5,0.3-1.1,0.5-1.8,0.6c-0.7,0.1-1.4,0.2-2.1,0.2c-0.6,0-1.1,0-1.7-0.1
		c-0.6-0.1-1.1-0.2-1.7-0.3v-3.9C79,31.7,79.4,31.8,79.8,31.8z"/>
	<path class="st5" d="M99.1,34.1c-0.8,0.6-1.7,1.1-2.6,1.3c-0.9,0.3-1.9,0.4-3,0.4c-0.9,0-1.8-0.2-2.5-0.5c-0.8-0.3-1.4-0.8-2-1.3
		c-0.6-0.6-1-1.2-1.3-1.9c-0.3-0.7-0.5-1.5-0.5-2.4c0-1,0.2-2,0.5-2.8s0.8-1.5,1.3-2.1c0.6-0.6,1.2-1,1.9-1.3
		c0.7-0.3,1.5-0.4,2.4-0.4c1.4,0,2.5,0.4,3.5,1.1c1,0.7,1.7,1.7,2.2,2.8l-6.1,4.7c0.1,0.1,0.3,0.1,0.6,0.2s0.5,0,0.7,0
		c0.6,0,1.2-0.1,1.6-0.3c0.4-0.2,0.8-0.5,1.2-0.8L99.1,34.1z M94.8,27.3c-0.2-0.2-0.4-0.4-0.6-0.5c-0.2-0.1-0.5-0.1-0.8-0.1
		c-0.3,0-0.5,0.1-0.7,0.2c-0.2,0.1-0.4,0.3-0.6,0.5c-0.2,0.2-0.3,0.4-0.4,0.7s-0.1,0.5-0.1,0.8c0,0.2,0,0.4,0.1,0.5
		c0,0.1,0.1,0.2,0.1,0.3L94.8,27.3z"/>
	<path class="st5" d="M103.8,23.2v2.3h0c0.4-1.5,1.4-2.3,3.1-2.3c0.4,0,0.7,0,1,0.1l-1.1,4.4c-0.1,0-0.2,0-0.3,0c-0.1,0-0.2,0-0.4,0
		c-0.6,0-1.1,0.2-1.5,0.6c-0.4,0.4-0.6,1-0.6,1.8v5.3l-4.3,0.4l-0.1-12.2L103.8,23.2z"/>
</g>
</svg>
