<?xml version="1.0" encoding="utf-8"?>
<!-- Generator: Adobe Illustrator 21.0.1, SVG Export Plug-In . SVG Version: 6.00 Build 0)  -->
<svg version="1.1" id="Layer_1" xmlns="http://www.w3.org/2000/svg" xmlns:xlink="http://www.w3.org/1999/xlink" x="0px" y="0px"
	 viewBox="0 0 127.9 52.9" style="enable-background:new 0 0 127.9 52.9;" xml:space="preserve">
<style type="text/css">
	.st0{fill:#0D7A08;}
	.st1{fill:#10B208;}
	.st2{fill:#17C10E;}
	.st3{opacity:0.14;fill:#076302;enable-background:new    ;}
	.st4{enable-background:new    ;}
	.st5{fill:#FFFFFF;}
</style>
<title>ok</title>
<polygon class="st0" points="127.9,48.4 126.5,49.4 121,52.9 61.4,51.1 53.7,50.9 43.2,50.6 0.9,49.3 0,12.5 0.9,11.3 7.8,1.7 
	61.4,6.6 68.2,7.2 117.5,11.6 124.6,16.7 126.2,17.9 "/>
<polygon class="st1" points="126.2,45.1 119.4,49.5 61.4,47.7 46.8,47.3 1.7,46 0.9,11.3 0.9,10.4 8.5,0 61.4,4.7 68.2,5.3 116,9.5 
	124.5,15.6 124.6,16.7 "/>
<polygon class="st2" points="5,42.6 4.3,11.5 10.1,3.6 114.8,12.9 121.2,17.5 122.7,43.3 118.5,46 "/>
<polygon class="st3" points="127.9,48.4 126.5,49.4 53.7,50.9 42.7,51.1 43.2,50.6 46.8,47.3 50.4,43.9 68.2,27.5 68.2,5.3 116,9.5 
	124.5,15.6 124.6,16.7 126.2,17.9 "/>
<g class="st4">
	<path class="st5" d="M61.6,35c-0.5,0.5-1.1,0.9-1.8,1.3c-0.7,0.4-1.5,0.7-2.3,0.9c-0.8,0.2-1.6,0.3-2.5,0.3c-0.9,0-1.7-0.2-2.4-0.4
		c-0.8-0.3-1.5-0.7-2.2-1.3s-1.2-1.3-1.6-2.3c-0.5-1-0.7-2.1-0.8-3.1c-0.1-1,0-2,0.2-3c0.2-1,0.6-1.9,1.1-2.7s1.1-1.6,1.8-2.3
		c0.7-0.7,1.5-1.3,2.3-1.8c0.9-0.5,1.8-0.9,2.8-1.1c0.9-0.2,1.8-0.3,2.6-0.2c0.8,0.1,1.5,0.3,2.2,0.6s1.2,0.7,1.7,1.1
		c0.5,0.4,0.8,0.9,1,1.3c0.4,0.8,0.7,1.8,0.9,2.8c0.2,1,0.3,2.1,0.1,3.3c-0.1,1.1-0.4,2.3-0.9,3.4C63.4,32.8,62.6,33.9,61.6,35z
		 M58.9,26.1c-0.2-0.4-0.5-0.8-0.9-1s-0.8-0.3-1.2-0.2c-0.4,0-0.9,0.2-1.3,0.4c-0.4,0.2-0.9,0.5-1.2,1c-0.4,0.4-0.7,0.9-0.9,1.5
		C53.1,28.3,53,29,53,29.7c0,0.7,0.1,1.2,0.3,1.6c0.2,0.4,0.4,0.7,0.8,0.9s0.7,0.3,1.1,0.3c0.4,0,0.8,0,1.2-0.2s0.8-0.3,1.1-0.6
		c0.3-0.3,0.6-0.6,0.9-0.9c0.3-0.5,0.6-1,0.7-1.5c0.2-0.5,0.3-0.9,0.3-1.3c0-0.4,0-0.7-0.1-1.1C59.1,26.6,59,26.4,58.9,26.1z"/>
	<path class="st5" d="M64.8,20.1l4.6-0.4L69,28.5h0l1.9-4.2l4.5,0.4l-2.7,5.2l3.1,4.8l-4.2,2.1L69,31.7h0l0.2,4.9l-4.2,0.4
		L64.8,20.1z"/>
</g>
</svg>
