<svg xmlns="http://www.w3.org/2000/svg" xmlns:xlink="http://www.w3.org/1999/xlink" viewBox="0 0 328.61 552.03"><defs><style>.a{fill:#a8a8a8;}.b{fill:#b5b5b5;}.c{fill:#c6c6c6;}.d{fill:#d3d3d3;}.e{fill:#ddd;}.f{fill:#cecece;}.g{fill:#eae8e8;}.h{fill:#efefef;}.i{opacity:0.35;fill:url(#a);}.al,.am,.an,.bj,.bk,.i{isolation:isolate;}.j{fill:#e5e5e5;}.k{fill:#9b9a9a;}.l{fill:#495750;}.m{fill:#ccc;}.n{fill:#e8e8e8;}.o{fill:#249daa;}.p{fill:#1b6d6b;}.q{fill:#2bd0d8;}.r{fill:#2b2b2b;}.s{opacity:0.74;}.t{opacity:0.41;}.u{fill:#f9b9b9;}.v{fill:#eaeaea;}.w{fill:#a3a3a3;}.x{fill:#c1bfbf;}.y{fill:#784418;}.z{fill:#492812;}.aa{fill:#86502a;}.ab{fill:none;}.ac{fill:#b87f50;}.ad{fill:#5d3b20;}.ae{fill:#683f29;}.af{fill:#5c2f0b;}.ag{fill:url(#b);}.ah{opacity:0.76;}.ai{fill:url(#c);}.aj{opacity:0.7;}.ak{fill:url(#d);}.al{fill:#212121;opacity:0.43;}.am{opacity:0.56;fill:#1e0404;}.am,.an{font-size:45.46px;}.am,.an,.ca,.dc{font-family:GROBOLD, GROBOLD;}.an{fill:#f4f2f2;}.ao{font-size:15px;font-family:Montserrat-Regular, Montserrat;}.ap{letter-spacing:-0.01em;}.aq{letter-spacing:0em;}.ar{letter-spacing:-0.01em;}.as{letter-spacing:0.01em;}.at{letter-spacing:-0.02em;}.au{letter-spacing:-0.02em;}.av{letter-spacing:-0.01em;}.aw{fill:#099;}.ax{fill:#00b7b2;}.ay{fill:#d36318;}.az{fill:#f4731c;}.ba{fill:#d8d8d8;}.bb{fill:#ededed;}.bc{fill:#ff9292;}.bd{fill:#f27d2f;}.be,.bk{fill:#724720;}.bf{fill:#bc5d1d;}.bg{fill:#33493e;}.bh{fill:#84572f;}.bi{fill:#686b72;}.bj,.bo{fill:#1dcaf2;}.bj{opacity:0.3;}.bk{opacity:0.69;}.bl{fill:#ef874d;}.bm{opacity:0.34;}.bn{fill:#512600;}.bp{fill:#fff;}.bq{fill:#f36;}.br{fill:#232323;opacity:0.35;}.bs{fill:#3d240e;}.bt,.cr{fill:#a67c52;}.bu{fill:#c69c6d;}.bv,.cs{fill:#8c6239;}.bw{fill:#e6e6e6;}.bx{fill:#39b54a;}.by{fill:#754c24;}.bz{fill:#009245;}.ca{font-size:18.23px;}.ca,.cb{fill:#d31616;}.cc{fill:#384948;}.cd{fill:#465b5a;}.ce{fill:#262e26;}.cf{fill:#526664;}.cg{fill:#5a6d6b;}.ch{fill:#ad6123;}.ci{fill:#874616;}.cj{fill:#e57929;}.ck{opacity:0.74;}.cl{opacity:0.41;}.cm{fill:#997373;}.cn{fill:#253332;opacity:0.34;}.co,.ct{fill:#42210b;}.cp,.cq{fill:#603813;}.cq,.cr,.cs,.ct,.cy,.cz,.da,.db{opacity:0.5;}.cu{opacity:0.4;}.cv{fill:#301709;}.cw{fill:#512d10;}.cx{fill:#56351a;}.cy{fill:#936c4a;}.cz{fill:#775132;}.da{fill:#472910;}.db{fill:#2b1407;}.dc{font-size:19.25px;}.dc,.dd{fill:#13bc13;}</style><linearGradient id="a" x1="217.46" y1="755.51" x2="217.46" y2="766.47" gradientTransform="matrix(0.96, -0.26, -0.26, -0.96, 174.97, 875.95)" gradientUnits="userSpaceOnUse"><stop offset="0" stop-opacity="0"/><stop offset="1"/></linearGradient><radialGradient id="b" cx="214.6" cy="497.15" r="40.48" gradientTransform="matrix(1, 0, 0, -1, -6.37, 602.8)" gradientUnits="userSpaceOnUse"><stop offset="0" stop-color="#b87f50" stop-opacity="0.3"/><stop offset="0.22" stop-color="#caa687" stop-opacity="0.17"/><stop offset="0.46" stop-color="#d8c5b2" stop-opacity="0.08"/><stop offset="0.71" stop-color="#e0d7cc" stop-opacity="0.02"/><stop offset="1" stop-color="#e3ddd4" stop-opacity="0"/></radialGradient><radialGradient id="c" cx="826.23" cy="461.21" r="40.47" gradientTransform="translate(944.63 602.8) rotate(180)" xlink:href="#b"/><linearGradient id="d" x1="262.63" y1="455.86" x2="298.5" y2="455.86" gradientTransform="matrix(1, 0, 0, -1, -6.37, 602.8)" xlink:href="#b"/></defs><title>tut2mobile</title><path class="a" d="M193.06,101.18,190.63,127a3.11,3.11,0,0,1-3.38,2.79c-16.39.45-30.93-3.25-42.21-12.18a13.49,13.49,0,0,1-2.79-3.38l.91-9.58a3.11,3.11,0,0,1,3.38-2.79c14.23,1.82,29.22,2,43.77-4A3.11,3.11,0,0,1,193.06,101.18Z" transform="translate(-5.39 -6.96)"/><path class="b" d="M211.25,95.16l-6.43-6.56a2.08,2.08,0,0,1,0-2.94h0l1.49-1.46a8.4,8.4,0,0,1,11.88.12h0l6.7,6.84a1,1,0,0,1,0,1.39h0l-2.77,2.71A7.71,7.71,0,0,1,211.25,95.16Z" transform="translate(-5.39 -6.96)"/><path class="c" d="M188.07,124.92a1.31,1.31,0,0,1-.31.09l-.36-.08-.58.32c-15.47,1.53-29.87-1.41-40.3-9.6a11,11,0,0,1-1.8-2l.82-8.76a.66.66,0,0,1,.49-.57.63.63,0,0,1,.21,0c19.29,2.46,30.31.32,37-1.49a66.3,66.3,0,0,0,7.14-2.4.66.66,0,0,1,.23.55l-2,23.5C188.59,124.75,188.3,124.87,188.07,124.92Z" transform="translate(-5.39 -6.96)"/><path class="d" d="M211.49,92.83a7.48,7.48,0,0,0,10.56.11l1.08-1.08-4.92-5.09a8.3,8.3,0,0,0-11.73-.12.73.73,0,0,0,0,1Z" transform="translate(-5.39 -6.96)"/><path class="b" d="M153.21,110.31l2.29-9.3a8.4,8.4,0,0,1,10.16-6.15h0l2,.5a2.08,2.08,0,0,1,1.52,2.51h0L167,106.8a7.71,7.71,0,0,1-9.32,5.64l-3.76-.92a1,1,0,0,1-.72-1.19Z" transform="translate(-5.39 -6.96)"/><path class="e" d="M165.65,104.87a7.48,7.48,0,0,1-9,5.47l-1.49-.37,1.7-6.91a8.3,8.3,0,0,1,10-6.07.73.73,0,0,1,.52.86Z" transform="translate(-5.39 -6.96)"/><path class="f" d="M169.51,121.92l-.58-3.86-1.08-7.21-.4-2.67h0l-.19-1.29-.56-3.73-.06-.4-.17-1.08v-.06L165.59,96l-1.08-7-.41-2.66-.11-.7a.66.66,0,0,0-.06-.35c-.06-.12,0-.17,0-.26V84.9a3.41,3.41,0,0,1,0-.51,3.61,3.61,0,0,1,.19-1.08,3.67,3.67,0,0,1,.87-1.4,3.6,3.6,0,0,1,1.62-1L197,72.64a3.6,3.6,0,0,1,1.88,0,3.67,3.67,0,0,1,1.45.76,3.62,3.62,0,0,1,.74.86,3.25,3.25,0,0,1,.24.45v.08c0,.09.06.16.09.25a3.09,3.09,0,0,0,.12.32l.27.66,1,2.45,2.27,5.61.23.56.15.38,3.94,9.74h0l.41,1v.11l4,9.82,1.5,3.72C220,126.41,174.17,138.94,169.51,121.92Z" transform="translate(-5.39 -6.96)"/><path class="g" d="M172.57,123.23,167.1,86.89a2.12,2.12,0,0,0-.1-.52,1.08,1.08,0,0,1,.73-1.21l30.41-8.32a1.08,1.08,0,0,1,1.24.67,1.83,1.83,0,0,0,.17.5l13.79,34.06C215.54,120.08,174.77,131.23,172.57,123.23Z" transform="translate(-5.39 -6.96)"/><path class="h" d="M193.69,119.68a53.62,53.62,0,0,1-11.54,2l-5.5-31.39,16.75-4.6,11.23,29.79A53.62,53.62,0,0,1,193.69,119.68Z" transform="translate(-5.39 -6.96)"/><path class="a" d="M124,126.95l2.78-12.88a11.55,11.55,0,0,1,13.73-8.85h.05l2.81.61a2.86,2.86,0,0,1,2.19,3.4h0l-2.66,12.34a10.6,10.6,0,0,1-12.59,8.12h0L125,128.56a1.35,1.35,0,0,1-1-1.61Z" transform="translate(-5.39 -6.96)"/><path class="d" d="M140.91,119a10.28,10.28,0,0,1-12.2,7.83l-2.07-.44,2.07-9.56a11.42,11.42,0,0,1,13.56-8.75,1,1,0,0,1,.75,1.16Z" transform="translate(-5.39 -6.96)"/><path class="a" d="M148.09,97.53l-2.66,12.35a2.86,2.86,0,0,1-3.4,2.19h0l-2.81-.61a11.55,11.55,0,0,1-8.85-13.73h0l2.78-12.88a1.35,1.35,0,0,1,1.61-1L140,84.95A10.6,10.6,0,0,1,148.09,97.53Z" transform="translate(-5.39 -6.96)"/><path class="d" d="M145.22,99.08a10.28,10.28,0,0,0-7.87-12.21l-2.07-.44L133.22,96A11.42,11.42,0,0,0,142,109.5a1,1,0,0,0,1.16-.75Z" transform="translate(-5.39 -6.96)"/><path class="i" d="M205.32,84.35,165.38,95.28,164,86a1.9,1.9,0,0,1,0-.38,2.75,2.75,0,0,0,0-.6c-.06-.24-.12-.48-.17-.71l37.41-10.24c.08.24.15.47.22.7a2.75,2.75,0,0,0,.26.54,1.89,1.89,0,0,1,.16.35Z" transform="translate(-5.39 -6.96)"/><path class="f" d="M217.06,66.56a3.77,3.77,0,0,1-2.74,4.55L152.56,88a3.77,3.77,0,0,1-4.7-2.51l-12.1-36.17a3.69,3.69,0,0,1-.13-1.08,25.89,25.89,0,0,1-.83-5.65h0a29.5,29.5,0,0,1,5.05-17.19,35.77,35.77,0,0,1,2.16-3A42.4,42.4,0,0,1,162.89,8.84H163l.87-.25a42.48,42.48,0,0,1,26.27,1A34.38,34.38,0,0,1,193.61,11a29.32,29.32,0,0,1,12.86,12.3,26.14,26.14,0,0,1,2.09,5.27,2.49,2.49,0,0,0,.14.54c0,.18,0,.16.08.24Z" transform="translate(-5.39 -6.96)"/><path class="f" d="M153.21,82.44a9.86,9.86,0,1,1,6.9-12.12h0A9.87,9.87,0,0,1,153.21,82.44Z" transform="translate(-5.39 -6.96)"/><path class="f" d="M210,66.89a9.86,9.86,0,1,1,6.9-12.12h0A9.87,9.87,0,0,1,210,66.89Z" transform="translate(-5.39 -6.96)"/><path class="j" d="M214.76,63.69a5.66,5.66,0,0,1-3.57,5.91L153.77,85.31a5.63,5.63,0,0,1-5.28-3.56l-.38-2L136.78,48V47.9a.7.7,0,0,1,0-.19v-.47l-.12-.45c-1.95-7.45-.24-15.45,4.84-22.51A41.13,41.13,0,0,1,164.1,9.07c19.48-5.31,38.75,3.07,43,18.7l.11.42v.54l6.49,32.47h0Z" transform="translate(-5.39 -6.96)"/><circle class="j" cx="150.6" cy="72.93" r="8.56" transform="translate(-19.3 35.36) rotate(-15.3)"/><circle class="j" cx="207.36" cy="57.4" r="8.56" transform="translate(-13.19 49.79) rotate(-15.3)"/><path class="k" d="M156.22,75.47A6.86,6.86,0,1,0,148.27,80l.32.08.19-.27a9.56,9.56,0,0,1,1.84-1.87,10.21,10.21,0,0,1,.92-.64,9.68,9.68,0,0,1,4.2-1.42h.34Z" transform="translate(-5.39 -6.96)"/><path class="l" d="M146.53,68.24a6.34,6.34,0,0,1,9.32,7.47,10.18,10.18,0,0,0-4.43,1.49,10.69,10.69,0,0,0-1,.67,10.09,10.09,0,0,0-1.95,2,6.34,6.34,0,0,1-2-11.61Z" transform="translate(-5.39 -6.96)"/><path class="m" d="M144.44,77a6.32,6.32,0,0,0,4.06,2.88,10.09,10.09,0,0,1,1.95-2l4-8.56a6.34,6.34,0,0,0-10,7.66Z" transform="translate(-5.39 -6.96)"/><path class="n" d="M148.19,78.9a11,11,0,0,1,1.59-1.57l3.69-7.88a5.51,5.51,0,0,0-8.32,7A5.41,5.41,0,0,0,148.19,78.9Z" transform="translate(-5.39 -6.96)"/><path class="o" d="M147.2,74.52c.57-.44.89-.94.73-1.21s-.45-.22-.89-.1a4.78,4.78,0,0,1,7.44-3.9,6.35,6.35,0,0,1,1.37,6.41,10.18,10.18,0,0,0-4.43,1.49,10.69,10.69,0,0,0-1,.67,4.78,4.78,0,0,1-3.25-3.36Z" transform="translate(-5.39 -6.96)"/><path class="p" d="M155.37,75.14a5.73,5.73,0,0,0-1.3-5.35,4.18,4.18,0,0,0-4.42,0c-1,.63-.17,7.1.68,7.44.25-.17.5-.35.76-.51A10.92,10.92,0,0,1,155.37,75.14Z" transform="translate(-5.39 -6.96)"/><path class="k" d="M156.23,75.81a11.21,11.21,0,0,0-7.63,4.12l-.16-.13a11.17,11.17,0,0,1,3.13-2.7,11.05,11.05,0,0,1,4.65-1.52Z" transform="translate(-5.39 -6.96)"/><path class="q" d="M148.67,70.34c.23,0,.18.5.21.73a14.78,14.78,0,0,0,.06,2.72c.18.5.43,2.29.56,2.71s-.25.39-.25.39-1-.84-1.08-1.26a3.25,3.25,0,0,1,.11-1.41,2.16,2.16,0,0,0,0-1.35,1.53,1.53,0,0,1-.17-1.48C148.34,70.8,148.45,70.36,148.67,70.34Z" transform="translate(-5.39 -6.96)"/><circle class="r" cx="151.8" cy="73.05" r="3.23" transform="translate(-21.19 83.17) rotate(-31.52)"/><g class="s"><circle class="h" cx="148.48" cy="75.33" r="1.04" transform="translate(-22.88 81.59) rotate(-31.46)"/></g><g class="t"><circle class="h" cx="150.45" cy="75.35" r="0.52" transform="matrix(0.85, -0.52, 0.52, 0.85, -22.6, 82.62)"/></g><ellipse class="u" cx="211.08" cy="65.82" rx="2.89" ry="2.22" transform="translate(-11.44 100.59) rotate(-28.2)"/><ellipse class="u" cx="153.08" cy="81.72" rx="2.89" ry="2.22" transform="translate(-8.69 -0.46) rotate(-2.41)"/><path class="k" d="M203.63,62a6.86,6.86,0,1,1,9.11.31l-.26.22-.3-.15a9.56,9.56,0,0,0-2.5-.81,10.21,10.21,0,0,0-1.08-.14,9.68,9.68,0,0,0-4.38.68l-.31.13Z" transform="translate(-5.39 -6.96)"/><path class="l" d="M208.9,51.13a6.34,6.34,0,0,0-4.84,10.92,10.18,10.18,0,0,1,4.62-.71,10.69,10.69,0,0,1,1.17.15,10.09,10.09,0,0,1,2.63.86,6.34,6.34,0,0,0-3.59-11.21Z" transform="translate(-5.39 -6.96)"/><path class="m" d="M214.76,57.92a6.32,6.32,0,0,1-2.28,4.43,10.09,10.09,0,0,0-2.63-.86l-7.52-5.75a6.34,6.34,0,0,1,12.44,2.16Z" transform="translate(-5.39 -6.96)"/><path class="n" d="M212.33,61.36a11,11,0,0,0-2.16-.66l-6.85-5.31a5.51,5.51,0,0,1,10.57,2.47A5.41,5.41,0,0,1,212.33,61.36Z" transform="translate(-5.39 -6.96)"/><path class="o" d="M211.19,57c-.71-.13-1.22-.43-1.2-.74s.3-.4.75-.5a4.78,4.78,0,0,0-8.4,0,6.35,6.35,0,0,0,1.73,6.32,10.18,10.18,0,0,1,4.62-.71,10.69,10.69,0,0,1,1.17.15,4.78,4.78,0,0,0,1.34-4.48Z" transform="translate(-5.39 -6.96)"/><path class="p" d="M204.22,61.33a5.73,5.73,0,0,1-1.3-5.35,4.18,4.18,0,0,1,3.91-2.08c1.19.09,3.42,6.23,2.81,6.92-.3,0-.6-.08-.9-.1A10.92,10.92,0,0,0,204.22,61.33Z" transform="translate(-5.39 -6.96)"/><path class="k" d="M203.77,62.31a11.21,11.21,0,0,1,8.66.15l.09-.19a11.17,11.17,0,0,0-4-1,11.05,11.05,0,0,0-4.83.8Z" transform="translate(-5.39 -6.96)"/><path class="q" d="M208,54c-.22.09.06.53.15.74a14.79,14.79,0,0,1,1.18,2.38c.06.53.67,2.24.75,2.66s.4.24.4.24a5.22,5.22,0,0,0,.43-1.63,3.25,3.25,0,0,0-.75-1.2c-.19-.23-.67-.78-.64-1.19a1.53,1.53,0,0,0-.53-1.4C208.47,54.23,208.17,53.9,208,54Z" transform="translate(-5.39 -6.96)"/><circle class="r" cx="206.42" cy="57.83" r="3.23" transform="translate(128.51 252.6) rotate(-85.88)"/><g class="s"><circle class="h" cx="209.2" cy="58.14" r="1.04" transform="translate(130.79 255.66) rotate(-85.88)"/></g><g class="t"><circle class="h" cx="207.48" cy="59.06" r="0.52" transform="translate(128.27 254.79) rotate(-85.88)"/></g><ellipse class="f" cx="171.51" cy="36.03" rx="34.32" ry="24.61" transform="translate(-8.82 39.57) rotate(-15.3)"/><ellipse class="e" cx="171.16" cy="34.75" rx="31.79" ry="22.35" transform="translate(-8.5 39.43) rotate(-15.3)"/><ellipse class="v" cx="169.94" cy="29.22" rx="24.1" ry="12.52" transform="translate(-7.08 38.91) rotate(-15.3)"/><path class="w" d="M154.44,78.29c4.75-.23,9.5-.37,14.18-.86,1.17-.12,2.33-.28,3.45-.51.28-.06.56-.12.82-.19l.41-.11.42-.12c.56-.16,1.08-.34,1.66-.53s1.08-.41,1.61-.64,1.08-.47,1.7-.67,1.17-.37,1.76-.52,1.18-.29,1.79-.4,1.21-.18,1.8-.26,1.16-.15,1.73-.25,1.15-.21,1.71-.32a16.79,16.79,0,0,0,1.61-.49c2.16-.78,4.39-1.7,6.57-2.62s4.33-1.87,6.49-2.87q1.62-.74,3.25-1.52c.53-.26,1.08-.53,1.58-.81a13,13,0,0,0,1.52-.92,19,19,0,0,1-2.9,2.09c-1,.64-2,1.22-3.08,1.81-2.09,1.15-4.2,2.24-6.35,3.25-1.08.52-2.16,1-3.25,1.5s-2.16.94-3.32,1.37a16.1,16.1,0,0,1-1.78.57c-.6.13-1.18.26-1.78.37s-1.2.18-1.79.26-1.16.15-1.72.26-1.08.23-1.69.37-1.08.3-1.66.49-1.08.39-1.61.62-1.08.45-1.7.66l-1.73.55-.43.12-.22.06-.23.05c-.3.08-.61.13-.91.19a33.22,33.22,0,0,1-3.6.4c-2.39.15-4.78.15-7.17.08S156.8,78.55,154.44,78.29Z" transform="translate(-5.39 -6.96)"/><path class="x" d="M150.48,58.24a34.91,34.91,0,0,0,13.37,4.33,37.28,37.28,0,0,0,7,.11,38,38,0,0,0,6.92-1.17,38.52,38.52,0,0,0,6.6-2.37l1.58-.77,1.54-.84,1.5-.92,1.46-1a37.12,37.12,0,0,0,9.74-10.14A32.25,32.25,0,0,1,191,56.31a36.25,36.25,0,0,1-6.15,3.77,38.4,38.4,0,0,1-6.78,2.5,37.88,37.88,0,0,1-7.13,1.15,35,35,0,0,1-7.21-.3A30.66,30.66,0,0,1,150.48,58.24Z" transform="translate(-5.39 -6.96)"/><path class="x" d="M149.55,57.55a32.07,32.07,0,0,0,13.67,3.65,41.78,41.78,0,0,0,7.09-.26,45.46,45.46,0,0,0,7-1.39,47.33,47.33,0,0,0,6.68-2.39,48,48,0,0,0,6.28-3.33,43.79,43.79,0,0,0,10.67-9.42,37.1,37.1,0,0,1-10.17,10.16c-.49.36-1,.67-1.52,1s-1.08.63-1.57.92l-.79.44-.81.41-.81.41-.82.38a46.64,46.64,0,0,1-6.82,2.5A44.72,44.72,0,0,1,170.44,62a38.7,38.7,0,0,1-7.26.08,32.23,32.23,0,0,1-7.11-1.41A25.54,25.54,0,0,1,149.55,57.55Z" transform="translate(-5.39 -6.96)"/><path class="a" d="M150.28,58.13a35,35,0,0,0,6.49,2.55,35.55,35.55,0,0,0,6.85,1.19,38.66,38.66,0,0,0,6.93-.09,40.66,40.66,0,0,0,6.8-1.27,42.68,42.68,0,0,0,6.49-2.34,44.56,44.56,0,0,0,6.08-3.33,43.14,43.14,0,0,0,10.27-9.37,36.38,36.38,0,0,1-9.74,10.11l-1.47,1-1.52.92-1.56.86-1.59.79a42.21,42.21,0,0,1-6.67,2.46,40.26,40.26,0,0,1-7.06,1.26,36,36,0,0,1-7.11-.1,32.47,32.47,0,0,1-6.92-1.56A29.31,29.31,0,0,1,150.28,58.13Z" transform="translate(-5.39 -6.96)"/><ellipse class="f" cx="178.61" cy="64.42" rx="21.35" ry="1.71" transform="translate(-16.06 42.45) rotate(-15.3)"/><rect class="y" y="102.85" width="328.61" height="449.18"/><rect class="h" x="6.09" y="115.54" width="317.78" height="423.81"/><path class="z" d="M316.91,119.58l-3.69,22.27-5.2-1.3s-.83,2.39-1.3,2.6c-.41,1.08,0,5.2,0,5.2l-1.3,5.2S295,180.82,285.95,186l-15.59-13c-9.09-5.2-27.28-11.69-33.21-12.53H101.75c-3.07,1-32,6.49-32,6.49l-5.25-.65L48.86,151.51l-2-20.56v-6.49l-.06-.22c-.56-1.78-4.33-13.84-6.63-19.16l-.5-1.08.41-1.18c.79-2.16,3-9,3-9h.25l99.28-.86,94.69-.82,23.14-.19,25.71-.22,11.45,2.09Z" transform="translate(-5.39 -6.96)"/><polygon class="aa" points="37.38 92.19 44.34 111.89 46.09 136.81 59.99 149.56 95.93 143.77 232.7 143.77 266.27 158.27 281.85 169.96 297.04 143.77 297.87 127.46 305.23 130.99 306.53 112.81 292.24 88.13 278.49 85.81 37.38 92.19"/><path class="y" d="M278.39,91.91l-.27,1.53L296,110.76s11.25,7.23,12.79,9.45a20.81,20.81,0,0,1-2.08,6.79l-.94.22L298.56,131,297,143.32a39.79,39.79,0,0,1,.29,4.61c-1,9.47-8.77,26.36-26.25,14.35h0c-7.18-3.59-18.92-8.44-29.52-16.24L240,145H100.45l-.83.26c-5.41,1.68-29.82,6-29.82,6L67.05,151l-10.35-9.74-1.16-15.88v-6.82S51.29,104,49.06,98.95c.58-1.62,1.17-2.86,1.82-5.15Z" transform="translate(-5.39 -6.96)"/><line class="ab" x1="280.05" y1="86.85" x2="204.11" y2="84.18"/><line class="ab" x1="37.67" y1="87.55" x2="38.59" y2="84.98"/><polygon class="z" points="41.4 116.43 84.39 112.11 162.72 108.51 83.75 114.99 41.27 122.81 41.4 116.43"/><polygon class="z" points="300.27 127.74 264.28 121.21 257.76 120.03 179.96 110.23 258.17 122.95 299.9 134.11 300.27 127.74"/><polygon class="z" points="263.98 115.37 258.18 108.41 266.3 115.37 266.88 123.1 263.98 122.32 263.98 115.37"/><path class="ac" d="M246.1,90.27" transform="translate(-5.39 -6.96)"/><path class="ac" d="M78.14,93.8l-33.92.73-1.45,4.63,7,19.71.29,4.33,31.82-3.32S52,122.34,51.42,121.75s0-3.47-.58-4.06-7.58-18.55-7-19.13a6.28,6.28,0,0,1,2.9-2.32C48.57,95.68,78.14,93.8,78.14,93.8Z" transform="translate(-5.39 -6.96)"/><polygon class="ac" points="82.72 115.22 45.06 122.03 46.06 136.81 59.97 149.56 95.91 143.77 125.17 143.77 95.91 142.03 61.13 147.25 48.38 135.66 46.06 122.91 82.72 115.22"/><polygon class="ac" points="306.53 112.81 290.94 92.03 279.63 90.46 276.49 90.1 245.55 86.69 235.1 85.53 239.16 85.41 248.43 85.15 255.09 84.96 280.55 84.23 292.24 86.83 306.53 112.81"/><polygon class="ac" points="305.23 130.99 297.87 127.46 266.88 122.32 266.3 115.37 258.18 108.41 266.88 115.37 267.46 121.75 297.6 126.38 305.23 130.99"/><path class="ac" d="M250.69,127.85l12.89,2,40.54,6.79-1.72,14.07s-1.16-8.12-1.74-8.12S263.57,131,263.57,131Z" transform="translate(-5.39 -6.96)"/><polygon class="ac" points="180.72 143.77 232.68 143.77 264.97 159.56 281.85 169.96 266.27 158.27 233.27 140.29 180.72 143.77"/><g class="t"><ellipse class="ad" cx="90.14" cy="133" rx="15.59" ry="3.77" transform="translate(-22.84 6.71) rotate(-7.91)"/></g><ellipse class="ae" cx="285.15" cy="109.03" rx="3.77" ry="6.67" transform="translate(147.54 377.23) rotate(-85.26)"/><ellipse class="ad" cx="293.82" cy="115.5" rx="1.52" ry="2.7" transform="translate(149.04 391.81) rotate(-85.26)"/><ellipse class="ad" cx="285.47" cy="118.19" rx="2.19" ry="3.86" transform="matrix(0.08, -1, 1, 0.08, 138.7, 385.96)"/><path class="af" d="M151.11,103.79s78.24-2.32,87.52-1.16S265.29,109,265.29,109l-23.15-2.89Z" transform="translate(-5.39 -6.96)"/><path class="ag" d="M238.68,102.48c-8.13-1-69.85.66-84.42,1.08l-3.1.08V104l3.64.09,87.31,2.21,23.18,2.9v-.3C265.19,108.8,247.85,103.62,238.68,102.48Zm3.45,3.49L157,103.8c18.33-.51,74-2,81.67-1,7.36.92,20,4.46,24.75,5.82Z" transform="translate(-5.39 -6.96)"/><g class="ah"><path class="af" d="M175.48,139.72S97.24,137.4,88,138.56s-26.69,6.38-26.69,6.38L84.46,142Z" transform="translate(-5.39 -6.96)"/><path class="ai" d="M173.25,139.5c-12.87-.37-77-2.16-85.29-1.08-9.18,1.15-26.51,6.32-26.69,6.38l.06.31,23.17-2.9,88.85-2.27h2.16v-.31Zm-110,5c4.74-1.37,17.39-4.89,24.75-5.82,1.83-.24,6.41-.32,12.56-.32,19.59,0,55.2.93,69.1,1.31l-85.18,2.16Z" transform="translate(-5.39 -6.96)"/></g><g class="aj"><path class="af" d="M271.69,155.37s-13.32-2.9-14.51-5.22-1.16-11,1.16-12.17,24.89,2.32,27.82,4.06,5.79,5.22,5.79,6.38-5.79,4.63-5.79,4.63,2.32-2.32,1.74-4.63a6.85,6.85,0,0,0-5.22-5.22c-2.9-.58-19.13-4.06-20.87-2.9,0,0-3.47,4.63-1.74,7.58s12.75,6.38,14.49,5.22,2.9-2.32,1.16-4.63-11.59-2.32-11.59-2.32h13.33s2.9,3.47,2.32,4.63-1.16,4.63-2.9,5.22S271.69,155.37,271.69,155.37Z" transform="translate(-5.39 -6.96)"/><path class="ak" d="M286.26,141.91c-1.55-.93-8.24-2.25-14.18-3.13s-12.49-1.57-13.78-.93c-1.54.77-1.88,4.33-2,5.79a16.24,16.24,0,0,0,.74,6.6c1.18,2.34,13.94,5.15,14.59,5.3a16,16,0,0,0,4,.74,4.22,4.22,0,0,0,1.26-.17c1.35-.45,2-2.51,2.52-4a11.43,11.43,0,0,1,.47-1.3c.61-1.21-2-4.44-2.34-4.81H264.17v.3c.09,0,9.74,0,11.45,2.26a2.94,2.94,0,0,1,.8,2.25c-.14.82-.87,1.45-1.93,2.16-.48.32-1.94.26-3.89-.18-4.13-.92-9.29-3.16-10.38-5-1.61-2.67,1.45-7,1.7-7.34,1.08-.65,7.71.26,19.66,2.72l1.08.22a6.71,6.71,0,0,1,5.09,5.09c.56,2.16-1.68,4.47-1.69,4.49l-.91.9,1.08-.65c.61-.37,5.89-3.56,5.89-4.78S289.18,143.66,286.26,141.91Zm.67,10.51a5.1,5.1,0,0,0,1.15-4,7,7,0,0,0-5.34-5.33l-1.08-.22c-7.85-1.61-18.4-3.64-19.92-2.65h0c-.14.19-3.52,4.76-1.74,7.72,1.17,2,6.41,4.18,10.59,5.13,1.21.27,3.36.65,4.11.13,1.08-.74,1.9-1.43,2.07-2.36a3.31,3.31,0,0,0-.86-2.49c-.89-1.17-3.68-1.76-6.31-2.07h7.85c.82,1,2.68,3.55,2.26,4.41a10.43,10.43,0,0,0-.5,1.34c-.47,1.44-1.08,3.4-2.33,3.81-1.67.56-5.08-.57-5.11-.58h0s-3.37-.74-6.8-1.74c-5.7-1.67-7.27-2.75-7.58-3.39a16,16,0,0,1-.71-6.49c.17-3,.84-5,1.81-5.52a5.18,5.18,0,0,1,1.86-.21c6,0,23.17,2.67,25.8,4.26,2.89,1.81,5.65,5.25,5.65,6.33,0,.64-2.73,2.59-4.88,4Z" transform="translate(-5.39 -6.96)"/></g><path class="al" d="M316.91,119.58l-3.69,22.27-5.2-1.3s-.83,2.39-1.3,2.6c-.41,1.08,0,5.2,0,5.2l-1.3,5.2S295,180.82,285.95,186l-15.59-13c-9.09-5.2-27.28-11.69-33.21-12.53h-59l-2.27-9.74L174.54,145l-1.16-5v-.42l-5.5-23.63-.38-.34h0l-12.73-11.47-.19-.17-.19-.18-.15-.14-7.84-7.14-3.7-3.38-.11-.09,94.69-.82,23.14-.24,25.47-.73,11.69,2.6Z" transform="translate(-5.39 -6.96)"/><text class="am" transform="translate(87.03 137.49)">Tutorial</text><text class="an" transform="translate(84.43 134.89)">Tutorial</text><text class="ao" transform="translate(40.96 194.4)">Keep the animals <tspan class="ap" x="135.97" y="0">f</tspan><tspan class="aq" x="140.97" y="0">ood me</tspan><tspan class="ar" x="198.91" y="0">t</tspan><tspan x="204.93" y="0">er </tspan><tspan class="as" x="224.16" y="0">f</tspan><tspan x="229.44" y="0">ull</tspan><tspan class="at" x="55.21" y="18">b</tspan><tspan x="65.11" y="18">y </tspan><tspan class="au" x="77.57" y="18">c</tspan><tspan x="85.72" y="18">ollecting </tspan><tspan class="av" x="155.63" y="18">f</tspan><tspan x="160.63" y="18">ood. </tspan></text><path class="aw" d="M125.27,290.22a57.73,57.73,0,1,0,0,81.64A57.73,57.73,0,0,0,125.27,290.22ZM84.48,380.56a20.52,20.52,0,1,1,0,.12Z" transform="translate(-5.39 -6.96)"/><path class="aw" d="M124.89,290.67a57.14,57.14,0,1,0,0,80.81A57.14,57.14,0,0,0,124.89,290.67ZM84.48,381.23a50.17,50.17,0,1,1,35.46-14.7A50.16,50.16,0,0,1,84.48,381.23Z" transform="translate(-5.39 -6.96)"/><path class="ax" d="M124,290.22a55.88,55.88,0,1,0,0,79A55.88,55.88,0,0,0,124,290.22Zm-3.06,75.87a70.63,70.63,0,1,0,0,.08Z" transform="translate(-5.39 -6.96)"/><path class="ay" d="M138.9,311a11.31,11.31,0,0,1-1.64,2l-2.47,14.33L134,332l-1,5.33-1.24,6.63h0l-1,5.51-.4,2.08-.32,1.7-1.18,6.23-.34,1.78-1.26,6.68v.4h0l-.44,2.36h0v.09l-.61,3.26a1.68,1.68,0,0,1-1.7,1.67H44.84A1.71,1.71,0,0,1,43.5,375a1.64,1.64,0,0,1-.35-1l-.73-3.41-.43-2.3-1.32-7-.34-1.78-1.18-6.23-.32-1.7-.4-2.08-1-5.51h0l-1.24-6.63-1-5.33-3.25-19c-7.23-7.12-4.15-24,20.21-16.34h1a49.41,49.41,0,0,1,30.94-11h1.42a49.39,49.39,0,0,1,30.62,11h1.07a37.89,37.89,0,0,1,10.72-1.9h0C140.71,294.71,142.86,304.71,138.9,311Z" transform="translate(-5.39 -6.96)"/><path class="az" d="M44.92,374.91l-.66-3.54L43.83,369l-1.33-7.15-.4-1.84s-5-20.84-5.1-27.9c-.08-5,3-19.64,3-19.64l-6.75-.58A9.71,9.71,0,0,1,31,301.78c1.39-3.34,5-5.19,10.09-5.19a35.35,35.35,0,0,1,10.47,1.87l.28.09h1.93l.52-.43A47.37,47.37,0,0,1,84.19,287.4H85a47.37,47.37,0,0,1,29.95,10.72l.52.43h1.93l.28-.09a35.35,35.35,0,0,1,10.47-1.87c4.75,0,8.11,1.53,9.72,4.42a9.19,9.19,0,0,1-.52,9.19,9.57,9.57,0,0,1-1.36,1.73l-6.22-.37s2.59,15.4,2.42,20.59C131.93,339.25,127,360,127,360l-.34,1.81-1.3,7-.47,2.51-.64,3.46Z" transform="translate(-5.39 -6.96)"/><path class="ba" d="M97.13,375.66H70.87c2.6-3.28,7.5-5.48,13.12-5.48S94.53,372.38,97.13,375.66Z" transform="translate(-5.39 -6.96)"/><path class="bb" d="M97.13,375.66H70.87c2.6-2.59,7.5-4.35,13.12-4.35S94.53,373.07,97.13,375.66Z" transform="translate(-5.39 -6.96)"/><path class="r" d="M91.37,367.16c0,3.06-3.29,5.67-7.36,5.67s-7.36-2.54-7.36-5.67a4.59,4.59,0,0,1,.57-2.19c0,2.85,3.06,5.14,6.8,5.14s6.74-2.3,6.8-5.14A4.59,4.59,0,0,1,91.37,367.16Z" transform="translate(-5.39 -6.96)"/><path class="bc" d="M91.37,366.41c0,3.06-3.29,5.67-7.36,5.67s-7.36-2.54-7.36-5.67a4.59,4.59,0,0,1,.57-2.19c0,2.85,3.06,5.14,6.8,5.14s6.74-2.3,6.8-5.14A4.59,4.59,0,0,1,91.37,366.41Z" transform="translate(-5.39 -6.96)"/><ellipse class="bd" cx="79.27" cy="316.47" rx="40.51" ry="31.45"/><path class="r" d="M95.45,304.17a10.06,10.06,0,0,0,11-5.34,11.51,11.51,0,0,1-10.21,3,11.21,11.21,0,0,1-9.09-7.73A10,10,0,0,0,95.45,304.17Z" transform="translate(-5.39 -6.96)"/><path class="be" d="M139.62,305.09a10.27,10.27,0,0,1-1.53,4.2,10.86,10.86,0,0,1-2.28,2.37,11.51,11.51,0,0,1-7.49,2.56,12,12,0,0,1-1.26-.09,11.45,11.45,0,0,1-5.62-2.3,11,11,0,0,1-2.42-2.57l-.17-.26a10.41,10.41,0,0,1-1.24-2.88,11.12,11.12,0,0,0,2,2.3,12.66,12.66,0,0,0,4,2.31,14,14,0,0,0,4.39.78,13.78,13.78,0,0,0,5.22-.9,12.37,12.37,0,0,0,3.92-2.4A10.72,10.72,0,0,0,139.62,305.09Z" transform="translate(-5.39 -6.96)"/><path class="be" d="M51.78,305.66a10.43,10.43,0,0,1-3.06,6,11.38,11.38,0,0,1-6.61,3.11,12,12,0,0,1-1.64.08,11.45,11.45,0,0,1-7.93-3.29,10.61,10.61,0,0,1-1.53-2,10.35,10.35,0,0,1-1.15-2.74,10.92,10.92,0,0,0,1.53,1.87,12.25,12.25,0,0,0,2.54,1.87,13.86,13.86,0,0,0,13.17,0,11.88,11.88,0,0,0,3-2.31A10.4,10.4,0,0,0,51.78,305.66Z" transform="translate(-5.39 -6.96)"/><path class="r" d="M94.71,313a10.06,10.06,0,0,0,10.89-5.34,11.51,11.51,0,0,1-10.21,3,11.21,11.21,0,0,1-9.09-7.73A10,10,0,0,0,94.71,313Z" transform="translate(-5.39 -6.96)"/><path class="r" d="M95.28,322.54a10.06,10.06,0,0,0,10.89-5.34,11.51,11.51,0,0,1-10.21,3,11.21,11.21,0,0,1-9.09-7.73A10,10,0,0,0,95.28,322.54Z" transform="translate(-5.39 -6.96)"/><path class="r" d="M72.4,303.6a10.06,10.06,0,0,1-10.89-5.34,11.51,11.51,0,0,0,10.21,3,11.21,11.21,0,0,0,9.09-7.73A10,10,0,0,1,72.4,303.6Z" transform="translate(-5.39 -6.96)"/><path class="r" d="M73.14,312.44a10.06,10.06,0,0,1-10.89-5.37,11.51,11.51,0,0,0,10.23,3.06,11.21,11.21,0,0,0,9.09-7.73A10,10,0,0,1,73.14,312.44Z" transform="translate(-5.39 -6.96)"/><path class="bf" d="M73.31,363a1.67,1.67,0,0,0-.29-1.15,13.78,13.78,0,0,0-23.26-14.79,2.56,2.56,0,0,1-1.32-.4,2.37,2.37,0,0,1-.44-1.42v-.46l-2.33-.51-.18.41a5.25,5.25,0,0,0,.54,5.14c.37.47,1,1.19,2,2.16a13.86,13.86,0,0,0-.17,2.13,13.66,13.66,0,0,0,4.26,10l1.06,1,1.36-.55a16,16,0,0,1,4.29-1.06,17.22,17.22,0,0,1,1.88-.11A16.24,16.24,0,0,1,67.92,365l1.32.66.66-.54,2.73,1.53.43.26,1.53-2-.32-.26A3.06,3.06,0,0,1,73.31,363Z" transform="translate(-5.39 -6.96)"/><path class="bf" d="M96.06,363a1.67,1.67,0,0,1,.29-1.15,13.78,13.78,0,0,1,23.26-14.79,2.56,2.56,0,0,0,1.32-.4,2.37,2.37,0,0,0,.44-1.42v-.46l2.33-.51.18.41a5.25,5.25,0,0,1-.54,5.14c-.37.47-1,1.19-2,2.16a13.86,13.86,0,0,1,.17,2.13,13.66,13.66,0,0,1-4.26,10l-1.06,1-1.36-.55a16,16,0,0,0-4.29-1.06,17.22,17.22,0,0,0-1.88-.11,16.24,16.24,0,0,0-7.26,1.65l-1.32.66-.66-.54-2.73,1.53-.43.26-1.53-2,.35-.35A3.06,3.06,0,0,0,96.06,363Z" transform="translate(-5.39 -6.96)"/><path class="r" d="M72.57,322a10.06,10.06,0,0,1-10.89-5.34,11.51,11.51,0,0,0,10.21,3A11.21,11.21,0,0,0,81,311.89,10,10,0,0,1,72.57,322Z" transform="translate(-5.39 -6.96)"/><path class="r" d="M95.91,366s1.53-1.41,1.32-2.65,19.46-13.63,19.46-13.63,3.44.57,4.91-.54a3.23,3.23,0,0,0,.95-2.3,3.48,3.48,0,0,1-.38,3.54c-.73.89-2.83,2.83-2.83,2.83S97.42,365.14,95.91,366Z" transform="translate(-5.39 -6.96)"/><path class="r" d="M99.69,364.27a10.32,10.32,0,0,1-4.59-8.36,9.51,9.51,0,0,1,.26-2.19c1.18-5,6.32-8.65,12.25-8.65,6.87,0,12.46,4.87,12.46,10.84a10.12,10.12,0,0,1-3.83,7.81l-.44.37-.57-.2a19.51,19.51,0,0,0-4.59-1c-.67,0-1.35-.09-2-.09a19.78,19.78,0,0,0-7.85,1.53l-.55.24Z" transform="translate(-5.39 -6.96)"/><path class="l" d="M107.8,346.38c-5.57,0-10.21,3.46-11.28,8.05a8.9,8.9,0,0,0-.23,2,9.65,9.65,0,0,0,4.2,7.79,20.67,20.67,0,0,1,8.28-1.67,14.26,14.26,0,0,1,2.14.11,20.46,20.46,0,0,1,4.88,1.07,9.51,9.51,0,0,0,3.55-7.29C119.33,350.9,114.17,346.38,107.8,346.38Z" transform="translate(-5.39 -6.96)"/><path class="m" d="M119.33,356.56a9.42,9.42,0,0,1-3.55,7.24,20.59,20.59,0,0,0-4.88-1.06l-14.38-8.22c1.07-4.59,5.73-8,11.28-8C114.17,346.54,119.33,351,119.33,356.56Z" transform="translate(-5.39 -6.96)"/><path class="n" d="M115.37,362.26a22.51,22.51,0,0,0-4-.8l-13.17-7.52a10,10,0,0,1,9.55-6.12c5.53,0,10,3.9,10,8.71A8,8,0,0,1,115.37,362.26Z" transform="translate(-5.39 -6.96)"/><path class="l" d="M112.73,354.83c-1.32-.14-2.28-.58-2.28-1.1s.51-.72,1.29-.93a8.82,8.82,0,0,0-7.32-3.77,8.73,8.73,0,0,0-7.89,4.72,10.14,10.14,0,0,0-.23,2.17,10.52,10.52,0,0,0,4.2,8.33,19.52,19.52,0,0,1,8.28-1.78,20.72,20.72,0,0,1,2.14.11,7.82,7.82,0,0,0,2.2-5.42A7.66,7.66,0,0,0,112.73,354.83Z" transform="translate(-5.39 -6.96)"/><path class="bg" d="M100.67,363a9.42,9.42,0,0,1-3.25-7.07,9.19,9.19,0,0,1,.18-1.84,7.66,7.66,0,0,1,6.8-4c2.17,0,7,10.15,6,11.39h-1.65A21,21,0,0,0,100.67,363Z" transform="translate(-5.39 -6.96)"/><path class="bh" d="M100,364.65l-.17-.34a20.07,20.07,0,0,1,8.64-2.13,20.3,20.3,0,0,1,7.4,1.21l-.14.35a20.35,20.35,0,0,0-15.74.86Z" transform="translate(-5.39 -6.96)"/><path class="bi" d="M106.41,350.1c-.38.18.18.89.38,1.24a24.86,24.86,0,0,1,2.45,3.89c.18.89,1.53,3.72,1.7,4.42a.47.47,0,0,0,.75.35,8.39,8.39,0,0,0,.57-2.83,5.59,5.59,0,0,0-1.53-1.94c-.38-.35-1.32-1.24-1.32-1.94a2.53,2.53,0,0,0-1.13-2.3C107.42,350.45,106.85,349.93,106.41,350.1Z" transform="translate(-5.39 -6.96)"/><ellipse class="r" cx="98.83" cy="349.86" rx="5.85" ry="5.48"/><g class="s"><ellipse class="h" cx="103.92" cy="350.03" rx="1.88" ry="1.78"/></g><g class="t"><circle class="h" cx="100.89" cy="351.31" r="0.95"/></g><path class="r" d="M108.72,331.82h0a7,7,0,0,0-9.19,8.31Z" transform="translate(-5.39 -6.96)"/><path class="r" d="M109.84,340.38h0a5.65,5.65,0,0,0-9.78,2.07Z" transform="translate(-5.39 -6.96)"/><path class="r" d="M130.36,350.93,130,353a9.68,9.68,0,0,1-6.71-1.53A10.92,10.92,0,0,0,130.36,350.93Z" transform="translate(-5.39 -6.96)"/><path class="r" d="M128.47,361.11l-.34,1.81a10,10,0,0,1-2.16-1.27,9.48,9.48,0,0,1-2.73-3.44,10.32,10.32,0,0,0,3.48,2.34A11.35,11.35,0,0,0,128.47,361.11Z" transform="translate(-5.39 -6.96)"/><path class="r" d="M132.64,338.57l-1.26,6.77h0a7.23,7.23,0,0,1-5.5,3,8.48,8.48,0,0,0,5-6,8.25,8.25,0,0,0-2.56-8.42A7.09,7.09,0,0,1,132.64,338.57Z" transform="translate(-5.39 -6.96)"/><path class="r" d="M73.51,365.64s-1.53-1.38-1.32-2.59-19.46-13.27-19.46-13.27-3.44.55-4.91-.52a3.06,3.06,0,0,1-.95-2.24,3.32,3.32,0,0,0,.38,3.44c.73.87,2.83,2.76,2.83,2.76S72,364.79,73.51,365.64Z" transform="translate(-5.39 -6.96)"/><path class="r" d="M69.66,363.93a10.21,10.21,0,0,0,4.59-8.3,9.37,9.37,0,0,0-.26-2.17c-1.18-5-6.32-8.59-12.25-8.59-6.87,0-12.46,4.82-12.46,10.72a10,10,0,0,0,3.84,7.76l.44.37.57-.2a19.64,19.64,0,0,1,4.59-1c.67,0,1.35-.09,2-.09A19.9,19.9,0,0,1,68.62,364l.55.24Z" transform="translate(-5.39 -6.96)"/><path class="l" d="M61.61,346.2c5.57,0,10.21,3.43,11.28,8a8.76,8.76,0,0,1,.23,2,9.54,9.54,0,0,1-4.2,7.66,20.81,20.81,0,0,0-8.28-1.65,14.26,14.26,0,0,0-2.14.11,20.61,20.61,0,0,0-4.88,1.06,9.4,9.4,0,0,1-3.55-7.23C50.1,350.67,55.26,346.2,61.61,346.2Z" transform="translate(-5.39 -6.96)"/><path class="m" d="M50.1,356.27a9.31,9.31,0,0,0,3.55,7.18,20.73,20.73,0,0,1,4.88-1l14.36-8.15c-1.07-4.59-5.73-7.93-11.28-7.93C55.26,346.34,50.1,350.79,50.1,356.27Z" transform="translate(-5.39 -6.96)"/><path class="n" d="M54,361.94a22.66,22.66,0,0,1,4-.78l13.2-7.47a10,10,0,0,0-9.55-6.12c-5.53,0-10,3.87-10,8.64A7.9,7.9,0,0,0,54,361.94Z" transform="translate(-5.39 -6.96)"/><path class="l" d="M56.69,354.74c1.32-.14,2.28-.57,2.28-1.09s-.51-.7-1.29-.9a8.9,8.9,0,0,1,7.38-3.66A8.76,8.76,0,0,1,73,353.69a9.65,9.65,0,0,1,.23,2.13,10.17,10.17,0,0,1-4.2,8.11,19.9,19.9,0,0,0-8.31-1.75,21.24,21.24,0,0,0-2.14.11,7.53,7.53,0,0,1-2.2-5.28A7.29,7.29,0,0,1,56.69,354.74Z" transform="translate(-5.39 -6.96)"/><path class="bg" d="M68.76,362.7A9.09,9.09,0,0,0,72,355.81a8.74,8.74,0,0,0-.18-1.79,7.66,7.66,0,0,0-6.75-3.9c-2.17,0-7,9.91-6,11.1h1.65A21.44,21.44,0,0,1,68.76,362.7Z" transform="translate(-5.39 -6.96)"/><path class="bh" d="M69.43,364.65a20.35,20.35,0,0,0-15.74-.86l-.14-.35A20.29,20.29,0,0,1,61,362.18a20.07,20.07,0,0,1,8.7,2.13Z" transform="translate(-5.39 -6.96)"/><path class="bi" d="M62.94,350.12c.38.17-.18.86-.38,1.21a24.16,24.16,0,0,0-2.45,3.8c-.18.86-1.53,3.63-1.7,4.32a.47.47,0,0,1-.75.35,8,8,0,0,1-.57-2.76,5.47,5.47,0,0,1,1.53-1.9c.38-.35,1.32-1.21,1.32-1.9A2.45,2.45,0,0,1,61.07,351C62,350.47,62.56,349.93,62.94,350.12Z" transform="translate(-5.39 -6.96)"/><ellipse class="r" cx="59.81" cy="349.71" rx="5.85" ry="5.34"/><g class="s"><circle class="h" cx="54.72" cy="349.43" r="1.88"/></g><g class="t"><circle class="h" cx="57.73" cy="351.31" r="0.95"/></g><path class="r" d="M38.87,351.86l.4,1.93A10.41,10.41,0,0,0,46,352.38,11.88,11.88,0,0,1,38.87,351.86Z" transform="translate(-5.39 -6.96)"/><path class="r" d="M40.76,361.11l.34,1.81a10,10,0,0,0,2.16-1.27A9.48,9.48,0,0,0,46,358.2a10.32,10.32,0,0,1-3.48,2.34A11.35,11.35,0,0,1,40.76,361.11Z" transform="translate(-5.39 -6.96)"/><path class="r" d="M36.59,338.57l1.24,6.77h0a7.23,7.23,0,0,0,5.5,3,8.48,8.48,0,0,1-5-6,8.25,8.25,0,0,1,2.56-8.42A7.09,7.09,0,0,0,36.59,338.57Z" transform="translate(-5.39 -6.96)"/><path class="r" d="M62.67,331.9h0a7,7,0,0,1,8.53,8.93Z" transform="translate(-5.39 -6.96)"/><path class="r" d="M61,340.36h0a5.65,5.65,0,0,1,9.62,2.74Z" transform="translate(-5.39 -6.96)"/><circle class="bj" cx="64.16" cy="353.3" r="1.79"/><circle class="bj" cx="57.27" cy="353.01" r="1.88"/><circle class="bj" cx="54.06" cy="353.58" r="1.88"/><circle class="bj" cx="66.04" cy="361.34" r="1.88" transform="translate(-300.22 285.79) rotate(-68.88)"/><circle class="bj" cx="64.25" cy="355.66" r="1.52"/><rect class="r" x="77.94" y="365.48" width="0.95" height="3.22"/><path class="bk" d="M138.9,311.38a9.08,9.08,0,0,1-1.64,1.3l-1.76,9.52-1.88-1s-3.81-5.33-6.63-7l-.37-.2c-2.45-1.22-6.57-4-7.66-4.67l-.28-.18.11-.08.8-.58a12.66,12.66,0,0,0,4,2.31,14,14,0,0,0,4.39.78,13.78,13.78,0,0,0,5.22-.9,12.37,12.37,0,0,0,3.92-2.4h0a4.75,4.75,0,0,1,.73,1A11.07,11.07,0,0,1,138.9,311.38Z" transform="translate(-5.39 -6.96)"/><ellipse class="bl" cx="56.03" cy="359.81" rx="7.66" ry="2.83"/><ellipse class="bl" cx="103.07" cy="359.81" rx="7.66" ry="2.83"/><path class="bk" d="M50.51,308.59a98.53,98.53,0,0,1-7.93,5.88l-.47.24c-2.8,2.13-6.54,8.44-6.54,8.44l-1.82.52L32,312.87a9.52,9.52,0,0,1-1.64-1.53,17.13,17.13,0,0,1,.58-1.82,9.28,9.28,0,0,1,.44-.92,12.25,12.25,0,0,0,2.54,1.87,13.86,13.86,0,0,0,13.17,0,11.88,11.88,0,0,0,3-2.31Z" transform="translate(-5.39 -6.96)"/><g class="bm"><path class="bn" d="M139.24,310.92l-.14.23a11.28,11.28,0,0,1-1.64,2L135,327.35v.14l-.8,4.59-1,5.33-.29,1.53L132,344h0l-.4,2.11-.66,3.4-.35,1.93v.15l-.32,1.7v.18l-1.13,6.12-.34,1.78h0l-.32,1.75h0l-1,5.1.17.09h0l-.44,2.34h0l-.2.09-.69,3.22a1.68,1.68,0,0,1-1.7,1.67H84.38V285.93H85.8a49.45,49.45,0,0,1,30.48,10.93h1a37.54,37.54,0,0,1,11-1.93h0C140.77,295,143,304.64,139.24,310.92Z" transform="translate(-5.39 -6.96)"/></g><circle class="r" cx="84.46" cy="366.61" r="0.57"/><circle class="r" cx="88.43" cy="366.61" r="0.57"/><circle class="r" cx="88.43" cy="363.59" r="0.57"/><circle class="r" cx="92.4" cy="366.61" r="0.57"/><circle class="r" cx="65.39" cy="366.61" r="0.57"/><circle class="r" cx="69.35" cy="366.61" r="0.57"/><circle class="r" cx="69.35" cy="363.59" r="0.57"/><circle class="r" cx="73.32" cy="366.61" r="0.57"/><rect class="bo" x="44.04" y="353.96" width="13.03" height="4.91" rx="1.44" ry="1.44"/><rect class="bo" x="104.29" y="354.15" width="13.6" height="4.91" rx="1.44" ry="1.44"/><circle class="bj" cx="94.75" cy="353.49" r="1.79"/><circle class="bj" cx="101.66" cy="353.21" r="1.88"/><circle class="bj" cx="104.86" cy="353.78" r="1.88"/><circle class="bj" cx="103.67" cy="361.51" r="1.88" transform="translate(-128.69 54.67) rotate(-21.12)"/><circle class="bj" cx="94.66" cy="355.85" r="1.52"/><path class="aw" d="M64.81,271.91l.3-14.93a23.93,23.93,0,0,0,.62-30.75,23.12,23.12,0,0,0-2.65-2.8A23.93,23.93,0,0,0,23.21,243q.08,1.14.27,2.27c.11.65.25,1.3.42,1.94a23.92,23.92,0,0,0,28.68,17.34Z" transform="translate(-5.39 -6.96)"/><circle class="bp" cx="47.18" cy="241.12" r="20.87" transform="translate(-26.6 -1.83) rotate(-5.09)"/><rect class="ax" x="29.69" y="382.25" width="112.38" height="14.49" rx="4.78" ry="4.78"/><rect class="bp" x="85.71" y="342.57" width="11.12" height="107.93" rx="3.67" ry="3.67" transform="translate(482.41 298.3) rotate(90)"/><path class="bq" d="M48.58,391v11.57H37.84c-.22,0-.53-2.19-.53-4.89v-1.78c0-2.7.31-4.89.53-4.89Z" transform="translate(-5.39 -6.96)"/><path class="br" d="M64.81,271.91l.3-14.93a24,24,0,0,0,5.77-18.25L23.21,243q.08,1.14.27,2.27c.11.65.25,1.3.42,1.94a23.92,23.92,0,0,0,28.68,17.34Z" transform="translate(-5.39 -6.96)"/><path class="bs" d="M32.74,228.33s7.54-1.28,9,3.09c1.73,2.34,1.13,3,1.13,3l-3-1.06A7.64,7.64,0,0,1,32.74,228.33Z" transform="translate(-5.39 -6.96)"/><path class="bs" d="M63.9,228.63s-7.54-1.28-9,3.09c-1.73,2.34-1.13,3-1.13,3l2.94-1.06A7.64,7.64,0,0,0,63.9,228.63Z" transform="translate(-5.39 -6.96)"/><path class="bs" d="M48.42,228.4a10.65,10.65,0,0,0-9.65,8.66c-.38,1.88-1.21,4.6-.68,7.61-1,1.13-5.88,7.24.54,11s16.35,4.22,20.73-.75.83-8.89-.68-10a19,19,0,0,0-.38-7.54C57.24,233.58,53.25,228.48,48.42,228.4Z" transform="translate(-5.39 -6.96)"/><path class="bs" d="M54.23,245.67c0,1.62-2,3-5.41,3s-6.14-1.3-6.14-2.9,2.37-3.28,5.77-3.28S54.23,244.06,54.23,245.67Z" transform="translate(-5.39 -6.96)"/><ellipse class="bs" cx="39.18" cy="230.26" rx="1.21" ry="2.41"/><ellipse class="bs" cx="46.95" cy="230.26" rx="1.21" ry="2.41"/><ellipse class="bs" cx="40.69" cy="237.87" rx="2.11" ry="1.06"/><ellipse class="bs" cx="47.13" cy="230.86" rx="0.79" ry="1.58"/><ellipse class="bs" cx="39.33" cy="230.86" rx="0.79" ry="1.58"/><ellipse class="bs" cx="39.48" cy="231.46" rx="0.49" ry="0.98"/><ellipse class="bs" cx="47.24" cy="231.46" rx="0.49" ry="0.98"/><path class="bs" d="M63.84,228.63s-7.54-1.28-9,3.09c-1.73,2.34-1.13,3-1.13,3l2.94-1.06A7.64,7.64,0,0,0,63.84,228.63Z" transform="translate(-5.39 -6.96)"/><path class="bs" d="M49.59,258.59c3.88,0,7.5-1.15,9.71-3.65,4.37-5,.83-8.89-.68-10a19,19,0,0,0-.38-7.54c-1.06-3.79-5.05-8.89-9.87-9" transform="translate(-5.39 -6.96)"/><path class="bs" d="M49,242.43c3.1.16,5.26,1.62,5.26,3.15s-1.88,2.9-5,3" transform="translate(-5.39 -6.96)"/><ellipse class="bs" cx="46.89" cy="230.26" rx="1.21" ry="2.41"/><ellipse class="bs" cx="47.08" cy="230.86" rx="0.79" ry="1.58"/><ellipse class="bs" cx="47.19" cy="231.46" rx="0.49" ry="0.98"/><path class="bt" d="M32.08,228.33s7.54-1.28,9,3.09c1.73,2.34,1.13,3,1.13,3l-2.94-1.06A7.64,7.64,0,0,1,32.08,228.33Z" transform="translate(-5.39 -6.96)"/><path class="bt" d="M63.25,228.63s-7.54-1.28-9,3.09c-1.73,2.34-1.13,3-1.13,3L56,233.68A7.64,7.64,0,0,0,63.25,228.63Z" transform="translate(-5.39 -6.96)"/><path class="bu" d="M47.76,228.4a10.65,10.65,0,0,0-9.65,8.66c-.38,1.88-1.21,4.6-.68,7.61-1,1.13-5.88,7.24.54,11s16.35,4.22,20.73-.75.83-8.89-.68-10a19,19,0,0,0-.38-7.54C56.58,233.58,52.59,228.48,47.76,228.4Z" transform="translate(-5.39 -6.96)"/><path class="bv" d="M53.57,245.67c0,1.62-2,3-5.41,3s-6.14-1.3-6.14-2.9,2.37-3.28,5.77-3.28S53.57,244.06,53.57,245.67Z" transform="translate(-5.39 -6.96)"/><ellipse class="bp" cx="38.52" cy="230.26" rx="1.21" ry="2.41"/><ellipse class="bp" cx="46.29" cy="230.26" rx="1.21" ry="2.41"/><ellipse class="bw" cx="40.04" cy="237.87" rx="2.11" ry="1.06"/><ellipse class="bx" cx="46.48" cy="230.86" rx="0.79" ry="1.58"/><ellipse class="bx" cx="38.67" cy="230.86" rx="0.79" ry="1.58"/><ellipse cx="38.82" cy="231.46" rx="0.49" ry="0.98"/><ellipse cx="46.59" cy="231.46" rx="0.49" ry="0.98"/><path class="by" d="M63.19,228.63s-7.52-1.28-9,3.09c-1.73,2.34-1.13,3-1.13,3l2.94-1.06A7.64,7.64,0,0,0,63.19,228.63Z" transform="translate(-5.39 -6.96)"/><path class="bt" d="M48.93,258.59c3.88,0,7.5-1.15,9.71-3.65,4.37-5,.83-8.89-.68-10a19,19,0,0,0-.38-7.54c-1.06-3.79-5.05-8.89-9.87-9" transform="translate(-5.39 -6.96)"/><path class="by" d="M48.31,242.43c3.1.16,5.26,1.62,5.26,3.15s-1.88,2.9-5,3" transform="translate(-5.39 -6.96)"/><ellipse class="bp" cx="46.23" cy="230.26" rx="1.21" ry="2.41"/><ellipse class="bz" cx="46.42" cy="230.86" rx="0.79" ry="1.58"/><ellipse cx="46.53" cy="231.46" rx="0.49" ry="0.98"/><text class="ca" transform="translate(162.11 329.16)">Bad</text><polygon class="cb" points="162.91 364.05 182.48 343.11 178.07 338.99 158.49 359.93 153.38 355.15 148.54 376.02 169.04 369.78 162.91 364.05"/><path class="aw" d="M296.58,424.45A58.76,58.76,0,1,0,313.79,466,58.37,58.37,0,0,0,296.58,424.45ZM255,516.52a50.52,50.52,0,1,1,35.73-14.8A50.19,50.19,0,0,1,255,516.52Z" transform="translate(-5.39 -6.96)"/><path class="aw" d="M296.18,424.85a58.2,58.2,0,1,0,17,41.15A57.82,57.82,0,0,0,296.18,424.85ZM255,517.08a51.09,51.09,0,1,1,36.12-15A50.75,50.75,0,0,1,255,517.08Z" transform="translate(-5.39 -6.96)"/><path class="ax" d="M295.26,424.46a56.89,56.89,0,1,0,16.66,40.23A56.51,56.51,0,0,0,295.26,424.46Zm-3.18,77.28a52.4,52.4,0,1,1,15.35-37A52.05,52.05,0,0,1,292.08,501.74Z" transform="translate(-5.39 -6.96)"/><path class="aw" d="M275.11,404.47l-.3-15a24.07,24.07,0,0,1-.62-30.92,23.25,23.25,0,0,1,2.66-2.81,24.07,24.07,0,0,1,40.09,19.65q-.08,1.15-.28,2.28c-.11.66-.25,1.31-.42,2A24.06,24.06,0,0,1,287.39,397Z" transform="translate(-5.39 -6.96)"/><circle class="bp" cx="292.84" cy="373.51" r="20.99" transform="translate(-110.57 625.08) rotate(-84.91)"/><rect class="ax" x="192.79" y="517.57" width="113.01" height="14.57" rx="4.78" ry="4.78"/><rect class="bp" x="249.1" y="477.63" width="11.19" height="108.54" rx="3.67" ry="3.67" transform="translate(781.2 270.24) rotate(90)"/><path class="bq" d="M296.18,526.31v11.63H204.92a5.16,5.16,0,0,1-4.5-4.92v-1.79a5.16,5.16,0,0,1,4.5-4.92Z" transform="translate(-5.39 -6.96)"/><path class="br" d="M275.11,404.47l-.3-15A24.14,24.14,0,0,1,269,371.1l47.94,4.27q-.08,1.15-.28,2.28c-.11.66-.25,1.31-.42,2A24.06,24.06,0,0,1,287.39,397Z" transform="translate(-5.39 -6.96)"/><path class="cc" d="M300.8,447.19c-.08.51-.17,1-.29,1.57l-4.23,57.08-.6,3.23a1.61,1.61,0,0,1-1.61,1.61h-75.5a1.62,1.62,0,0,1-1.28-.63,1.59,1.59,0,0,1-.33-1l-.6-3.26-4.08-56c-.16-1.05-.4-2.15-.68-3.26-5.63-6-9.54-15.82-7.88-21.43l5-21.12a3.42,3.42,0,0,1,2.15-3.16l.08,0a3.38,3.38,0,0,1,1.17-.21c4.83,0,14.32,10.52,14.32,18.79v15.21h0a46.31,46.31,0,0,1,28.27-10.54l1,0h1.35a46.32,46.32,0,0,1,29.06,10.56h.37V419.41c0-4.13,2.37-8.83,5.35-12.5s6.55-6.29,9-6.29a3.41,3.41,0,0,1,3.4,3.4l5,21.12C311,431,306.75,441.22,300.8,447.19Z" transform="translate(-5.39 -6.96)"/><path class="cd" d="M219.9,508.72l-.27-1.44-4.15-55.91,0-.15c-.16-1.06-.41-2.21-.77-3.63l-.25-1-.71-.74a30,30,0,0,1-6-9.58c-1.25-3.25-1.68-6.26-1.14-8.06l0-.1,4.25-27.32c1.14.47,6.32,2.85,8.65,5.73,2.7,3.33,5,7.67,5,10.38l.36,20.94s11.36-13.24,30.28-13.06c20.91.2,32.62,13.24,32.62,13.24l1.08-20c0-2.71,1.81-6.87,4.51-10.2a32.41,32.41,0,0,1,8.47-6.62l4.6,27,0,.1c.56,1.87.08,5-1.28,8.41a29.53,29.53,0,0,1-6.36,9.74l-.94.92-.19,1.29c-.06.43-.14.85-.24,1.27l-.07.29-4.32,57.16-.27,1.41Z" transform="translate(-5.39 -6.96)"/><path class="ce" d="M291.74,447.33l-.35,0-.18,0-.72,0,.95-29.72c.09-2.83,1.86-6.7,4.61-10.09a16.8,16.8,0,0,1,5.77-4.94L306.19,425l0,.11c.4,1.63.08,4.2-.89,7a32.3,32.3,0,0,1-4.82,9C297.54,445,294.18,447.41,291.74,447.33Z" transform="translate(-5.39 -6.96)"/><path class="ce" d="M221.25,447.33l.35,0,.18,0,.72,0-.95-29.72c-.09-2.83-1.86-6.7-4.61-10.09a16.8,16.8,0,0,0-5.77-4.94L206.81,425l0,.11c-.4,1.63-.08,4.2.89,7a32.3,32.3,0,0,0,4.82,9C215.46,445,218.82,447.41,221.25,447.33Z" transform="translate(-5.39 -6.96)"/><path class="r" d="M262.75,502.63c0,3-3.12,5.37-7,5.37s-7-2.4-7-5.37a4.3,4.3,0,0,1,.54-2.07c.05,2.7,2.92,4.88,6.44,4.88s6.39-2.18,6.44-4.88A4.3,4.3,0,0,1,262.75,502.63Z" transform="translate(-5.39 -6.96)"/><ellipse class="cf" cx="251.13" cy="450.03" rx="35.97" ry="27.92"/><ellipse class="cg" cx="251.38" cy="436.97" rx="26.38" ry="12.93"/><path class="b" d="M255.77,507.64c-4,0-7.34-2.57-7.34-5.73a4.64,4.64,0,0,1,.58-2.24l.13-.23c.1-.57.15-1.59.26-2.73,1.35-13,3.14-38.1,6.36-38.1s5,24.88,6.36,38.1c.12,1.15.16,2.17.27,2.74l.13.23a4.64,4.64,0,0,1,.58,2.24C263.11,505.07,259.82,507.64,255.77,507.64Z" transform="translate(-5.39 -6.96)"/><path class="n" d="M262.75,501.92c0,3-3.12,4.83-7,4.83s-7-1.87-7-4.83a4.3,4.3,0,0,1,.54-2.07c.05,2.7,2.92-41.06,6.44-41.06s6.39,43.76,6.44,41.06A4.3,4.3,0,0,1,262.75,501.92Z" transform="translate(-5.39 -6.96)"/><path class="bp" d="M255.77,502.45c-2.62,0-4.83-1.48-4.83-3.22a2.05,2.05,0,0,1,.07-.52,3,3,0,0,0,.52-1.12c0-.18.09-.42.14-.76.1-.59.23-1.39.39-2.42.46-3,1.17-7.37,1.56-11.46.36-3.76,1.72-22.24,2.15-23.37.43,1.13,1.79,19.61,2.15,23.19.41,4.09,1.1,8.67,1.56,11.64.16,1,.29,1.83.39,2.42.06.34.1.58.14.76a3,3,0,0,0,.52,1.12,2.05,2.05,0,0,1,.07.52C260.6,501,258.39,502.45,255.77,502.45Z" transform="translate(-5.39 -6.96)"/><path class="cc" d="M269.66,500.58a13.07,13.07,0,1,1,17.51-.5l-1,1-1.29-.52c-.34-.14-.7-.27-1.09-.39a17.93,17.93,0,0,0-4.47-.55H279a17.39,17.39,0,0,0-7.49,1.8l-1.12.57Z" transform="translate(-5.39 -6.96)"/><path class="cc" d="M278.14,478.83a11.81,11.81,0,0,0-7.52,20.92l.19.15-.07,0,.16.32a18.65,18.65,0,0,1,8-1.93,19.22,19.22,0,0,1,5.2.6c.41.13.82.27,1.21.43l.54.22.42-.4a11.7,11.7,0,0,0,3.64-8.53A11.83,11.83,0,0,0,278.14,478.83Z" transform="translate(-5.39 -6.96)"/><path class="cc" d="M241.41,501.38a17.39,17.39,0,0,0-7.49-1.8h-.36a18,18,0,0,0-4.48.55c-.38.12-.75.25-1.08.39l-1.29.52-1-1a12.94,12.94,0,0,1-4-9.44,13.06,13.06,0,1,1,21.55,9.94l-.69,1.36Z" transform="translate(-5.39 -6.96)"/><path class="cc" d="M234.73,478.83a11.83,11.83,0,0,0-11.81,11.81,11.7,11.7,0,0,0,3.64,8.53l.42.4.54-.22c.4-.16.8-.3,1.21-.43a19.25,19.25,0,0,1,5.2-.6,18.65,18.65,0,0,1,8,1.93l.16-.32-.07,0,.19-.15a11.81,11.81,0,0,0-7.52-20.92Z" transform="translate(-5.39 -6.96)"/><path class="r" d="M270.62,499.75a11.81,11.81,0,1,1,15.68-.58l-.42.4-.54-.22a16.44,16.44,0,0,0-4.39-1.09,17.56,17.56,0,0,0-1.93-.11,16.65,16.65,0,0,0-7.44,1.7l-.52.26Z" transform="translate(-5.39 -6.96)"/><path class="l" d="M278.32,480.44a10.92,10.92,0,0,0-6.95,19.34,17.51,17.51,0,0,1,7.84-1.8,18.4,18.4,0,0,1,2,.11,17.36,17.36,0,0,1,4.63,1.15,10.91,10.91,0,0,0-7.55-18.8Z" transform="translate(-5.39 -6.96)"/><path class="m" d="M289.24,491.36a10.87,10.87,0,0,1-3.37,7.88,17.36,17.36,0,0,0-4.63-1.15l-13.61-8.94a10.92,10.92,0,0,1,21.61,2.2Z" transform="translate(-5.39 -6.96)"/><path class="n" d="M285.49,497.57a18.91,18.91,0,0,0-3.74-.86l-12.48-8.19a9.49,9.49,0,0,1,18.54,2.84A9.38,9.38,0,0,1,285.49,497.57Z" transform="translate(-5.39 -6.96)"/><path class="ch" d="M283,490.24c-1.24-.14-2.16-.59-2.16-1.12s.48-.73,1.21-.94a8.23,8.23,0,0,0-14.41,1,10.93,10.93,0,0,0,3.75,10.63,17.51,17.51,0,0,1,7.84-1.8,18.4,18.4,0,0,1,2,.11,8.24,8.24,0,0,0,1.74-7.85Z" transform="translate(-5.39 -6.96)"/><path class="ci" d="M271.55,498.5a9.86,9.86,0,0,1-2.9-9,7.18,7.18,0,0,1,6.44-4c2.05,0,6.64,10.27,5.68,11.52-.52,0-1-.06-1.56-.06A18.78,18.78,0,0,0,271.55,498.5Z" transform="translate(-5.39 -6.96)"/><path class="ce" d="M270.9,500.26l-.16-.32a19,19,0,0,1,8.19-2,19.24,19.24,0,0,1,7,1.14l-.12.34a19.29,19.29,0,0,0-14.91.81Z" transform="translate(-5.39 -6.96)"/><path class="cj" d="M277.07,485.45c-.36.18.18.89.36,1.25s2.15,3,2.33,3.94,1.43,3.76,1.61,4.47.72.36.72.36a9,9,0,0,0,.54-2.86,5.61,5.61,0,0,0-1.43-2c-.36-.36-1.25-1.25-1.25-2a2.62,2.62,0,0,0-1.07-2.33C278,485.81,277.42,485.27,277.07,485.45Z" transform="translate(-5.39 -6.96)"/><circle class="r" cx="269.52" cy="485.29" r="5.55"/><g class="ck"><circle class="h" cx="274.36" cy="485.47" r="1.79"/></g><g class="cl"><circle class="h" cx="271.49" cy="487.26" r="0.89"/></g><path class="r" d="M242.25,499.75a11.81,11.81,0,1,0-15.68-.58l.42.4.54-.22a16.44,16.44,0,0,1,4.39-1.09,17.56,17.56,0,0,1,1.93-.11,16.65,16.65,0,0,1,7.44,1.7l.52.26Z" transform="translate(-5.39 -6.96)"/><path class="l" d="M234.56,480.44a10.92,10.92,0,0,1,6.95,19.34,17.51,17.51,0,0,0-7.84-1.8,18.4,18.4,0,0,0-2,.11,17.36,17.36,0,0,0-4.63,1.15,10.91,10.91,0,0,1,7.55-18.8Z" transform="translate(-5.39 -6.96)"/><path class="m" d="M223.64,491.36a10.87,10.87,0,0,0,3.37,7.88,17.36,17.36,0,0,1,4.63-1.15l13.61-8.94a10.92,10.92,0,0,0-21.61,2.2Z" transform="translate(-5.39 -6.96)"/><path class="n" d="M227.39,497.57a18.91,18.91,0,0,1,3.74-.86l12.48-8.19a9.49,9.49,0,0,0-18.54,2.84A9.38,9.38,0,0,0,227.39,497.57Z" transform="translate(-5.39 -6.96)"/><path class="ch" d="M229.89,490.24c1.24-.14,2.16-.59,2.16-1.12s-.48-.73-1.21-.94a8.23,8.23,0,0,1,14.41,1,10.93,10.93,0,0,1-3.75,10.63,17.51,17.51,0,0,0-7.84-1.8,18.4,18.4,0,0,0-2,.11,8.24,8.24,0,0,1-1.74-7.85Z" transform="translate(-5.39 -6.96)"/><path class="ci" d="M241.32,498.5a9.86,9.86,0,0,0,2.9-9,7.18,7.18,0,0,0-6.44-4c-2.05,0-6.64,10.27-5.68,11.52.52,0,1-.06,1.56-.06A18.78,18.78,0,0,1,241.32,498.5Z" transform="translate(-5.39 -6.96)"/><path class="ce" d="M242,500.26a19.29,19.29,0,0,0-14.91-.81l-.12-.34a19.22,19.22,0,0,1,7-1.14,19,19,0,0,1,8.19,2Z" transform="translate(-5.39 -6.96)"/><path class="cj" d="M235.81,485.45c.36.18-.18.89-.36,1.25s-2.15,3-2.33,3.94-1.43,3.76-1.61,4.47-.72.36-.72.36a9,9,0,0,1-.54-2.86,5.61,5.61,0,0,1,1.43-2c.36-.36,1.25-1.25,1.25-2a2.62,2.62,0,0,1,1.07-2.33C234.91,485.81,235.45,485.27,235.81,485.45Z" transform="translate(-5.39 -6.96)"/><circle class="r" cx="232.56" cy="485.29" r="5.55"/><g class="ck"><circle class="h" cx="227.73" cy="485.47" r="1.79"/></g><g class="cl"><circle class="h" cx="230.59" cy="487.26" r="0.89"/></g><ellipse class="cm" cx="228.99" cy="495.31" rx="7.25" ry="2.68"/><ellipse class="cm" cx="273.55" cy="495.31" rx="7.25" ry="2.68"/><path class="cn" d="M300.81,447.19c-.08.5-.18,1-.3,1.58l-4.23,57.08-.61,3.23a1.61,1.61,0,0,1-1.6,1.61H279.21a2.87,2.87,0,0,1,0,.33c0,.14,0,.26,0,.4H254.72V424.08h2.4a46.36,46.36,0,0,1,29.06,10.56h.38V419.41c0-4.14,2.37-8.83,5.35-12.5s6.55-6.29,9-6.29a3.41,3.41,0,0,1,3.39,3.41l5,21.11C311,431,306.75,441.22,300.81,447.19Z" transform="translate(-5.39 -6.96)"/><path class="co" d="M279.82,363.35s-1.12.17-.85,1.93,3.72,11.07,2.58,12.1-2.06,2.82-.21,3.83,1,3.85,1.39,5.08-1.11,2.22,1,3,19.68-4,20.47-3.73.59-4.59.41-4.76a2.55,2.55,0,0,1,.53-2.38c.75-.67-1.65-6.14-1.78-7s-1.41-7.18-1.82-7.57-1.23-.81-.9-1-.11-3-.45-3.23a18.28,18.28,0,0,1-1.77-3.37c-.11-.38-1.27.55-1.46.58s-.86-.37-1.23.14-1.36,1.21-1.69,1-.21-.37-.55-.66a5.46,5.46,0,0,0-2.76-.07,14.47,14.47,0,0,0-2.5,1c-.35.3-.54,1.33-.81.93s.38-.76-1.07-.78-2.41-.38-1.62.5-.8,0-.9.29-.77.82-.64,1.35-.75,0-1.24.09-1,.65-.95,1-.44.37-.71.61S280.8,363.19,279.82,363.35Z" transform="translate(-5.39 -6.96)"/><path class="cp" d="M280,363.63s-1.12.17-.85,1.93,3.72,11.07,2.58,12.1-2.06,2.82-.21,3.83,1,3.85,1.39,5.08-1.11,2.22,1,3,19.68-4,20.47-3.73.59-4.59.41-4.76a2.55,2.55,0,0,1,.53-2.38c.75-.67-1.65-6.14-1.78-7s-1.41-7.18-1.82-7.57-1.23-.81-.9-1-.11-3-.45-3.23a18.28,18.28,0,0,1-1.77-3.37c-.11-.38-1.27.55-1.46.58s-.86-.37-1.23.14-1.36,1.21-1.69,1-.21-.37-.55-.66a5.46,5.46,0,0,0-2.76-.07,14.47,14.47,0,0,0-2.5,1c-.35.3-.54,1.33-.81.93s.38-.76-1.07-.78-2.41-.38-1.62.5-.8,0-.9.29-.77.82-.64,1.35-.75,0-1.24.09-1,.65-.95,1-.44.37-.71.61S281,363.48,280,363.63Z" transform="translate(-5.39 -6.96)"/><path class="by" d="M279.92,364s-1.12.17-.85,1.93,3.72,11.07,2.58,12.1-2.06,2.82-.21,3.83,1,3.85,1.39,5.08-1.11,2.22,1,3,19.68-4,20.47-3.73.59-4.59.41-4.76a2.55,2.55,0,0,1,.53-2.38c.75-.67-1.65-6.14-1.78-7s-1.41-7.18-1.82-7.57-1.23-.81-.9-1-.11-3-.45-3.23a18.28,18.28,0,0,1-1.77-3.37c-.11-.38-1.27.55-1.46.58s-.86-.37-1.23.14-1.36,1.21-1.69,1-.21-.37-.55-.66a5.46,5.46,0,0,0-2.76-.07,14.47,14.47,0,0,0-2.5,1c-.35.3-.54,1.33-.81.93s.38-.76-1.07-.78-2.41-.38-1.62.5-.8,0-.9.29-.77.82-.64,1.35-.75,0-1.24.09-1,.65-.95,1-.44.37-.71.61S280.89,363.82,279.92,364Z" transform="translate(-5.39 -6.96)"/><path class="cq" d="M285.95,372.53s-1,1.06.36,2.94.08,5,.45,6.13,1,2.69,1,2.69,2.53,2.16,2.09.93-1.13-2.47-.74-3.79a7,7,0,0,0,.19-5.23C288.43,373.75,288,372.21,285.95,372.53Z" transform="translate(-5.39 -6.96)"/><path class="cr" d="M287.95,362.87s1.71,3.59,1.73,4.73a15.44,15.44,0,0,1-.39,3s2.61-2.81,1.66-4.46S289.48,362.73,287.95,362.87Z" transform="translate(-5.39 -6.96)"/><path class="cs" d="M296,363.68s1.11,3.28,1.81,4.92.24,1.56.72,2.74,1.31.1,1.09-1.67,1.13-.78,1-2.16.26-2.19-.59-2.21-1,.2-1.5-1-.29-1.21-1-1.45-1-.69-1.13-.18S296.43,364.06,296,363.68Z" transform="translate(-5.39 -6.96)"/><path class="cq" d="M293.5,376.71s1.74.28,1.59,1.25a4.32,4.32,0,0,0-.16,1.53c.08.49.15,1.93.51,1.32s.74-.71.75-1.62.29-1.35.45-1.27.42,1.39.61,1.7-.41,1.86-.39,2-.46,1.57-.24,1.69,1.17-.18,1.05-1a8.11,8.11,0,0,1-.16-2.63c.18-.43.55,0,.39-1.36s.73-1.71.55-2.28-1.45-2.23-1.6-2.6.05-1.26-.63-1.8a5.6,5.6,0,0,0-1.59-1.2c-1.37-.79-1.81-3-1.63-.85s2,4.69,2,4.89A17.29,17.29,0,0,1,293.5,376.71Z" transform="translate(-5.39 -6.96)"/><path class="cs" d="M285.81,373.82s-1.63.56-1.11,2-1.36,3.65-1.31,3.95.73,3.43.73,3.43-.3.65.13-1.13a13.2,13.2,0,0,1,1.4-3.35c.15-.33-.46-1.65.15-3S285.81,373.82,285.81,373.82Z" transform="translate(-5.39 -6.96)"/><path class="ct" d="M281.06,372a1.27,1.27,0,0,0,1.28.2c.6-.34,1,.54,1.08.83s-.64,1.35-.64,1.35l-1,.21A16.1,16.1,0,0,1,281.06,372Z" transform="translate(-5.39 -6.96)"/><path class="cs" d="M283,361.74s-.67-.15-.13,1.72a9,9,0,0,1,.44,3.78,7.11,7.11,0,0,0-.42,2.12c.09.59,1.24,2.51,1.05,1s-.18-1.77-.23-2.46a9.14,9.14,0,0,1,.32-2.45C284.17,364.66,284,360.08,283,361.74Z" transform="translate(-5.39 -6.96)"/><path class="cq" d="M293.36,358.78a15.38,15.38,0,0,0,.84,1.87,3.9,3.9,0,0,1,.73,1.79c.14.88.69.59.76.08s.66-1.25,0-1.31-.73.11-.82-.47.08-1.11-.29-1.21-.6,0-.64-.25S293.71,357.83,293.36,358.78Z" transform="translate(-5.39 -6.96)"/><path class="ab" d="M298.74,375.4a1.58,1.58,0,0,0-.33,1.75c.49.92-.22,2.43.57,1.41s.58-.79.22-1.83S298.94,375.37,298.74,375.4Z" transform="translate(-5.39 -6.96)"/><path class="ct" d="M303,380a2.79,2.79,0,0,1,.44.93c0,.24,0,1.8.44,1.23a1.31,1.31,0,0,0,.33-1.4c-.11-.68-1.28-1.45-1.3-.95Z" transform="translate(-5.39 -6.96)"/><path class="cs" d="M291.4,386.44c1.15-.33,1.8-.63,2-.51s1.23.51.45.63-1,.7-1.71.92-2.46.93-2.1.33A6.52,6.52,0,0,1,291.4,386.44Z" transform="translate(-5.39 -6.96)"/><g class="cu"><path class="cv" d="M303.36,371.49c-.13-.83-1.41-7.18-1.82-7.57s-1.23-.81-.9-1-.11-3-.45-3.23a18.28,18.28,0,0,1-1.77-3.37c-.11-.38-1.27.55-1.46.58s-.86-.37-1.23.14-1.36,1.21-1.69,1-.21-.37-.55-.66a5.46,5.46,0,0,0-2.76-.07c-.32.12-1.21.4-1.85.66a209.11,209.11,0,0,0,5.21,29.76c4.89-1.09,9.72-2.3,10.13-2.15.79.28.59-4.59.41-4.76a2.55,2.55,0,0,1,.53-2.38C305.89,377.79,303.49,372.32,303.36,371.49Z" transform="translate(-5.39 -6.96)"/><path class="cw" d="M303.57,371.77c-.13-.83-1.41-7.18-1.82-7.57s-1.23-.81-.9-1-.11-3-.45-3.23a18.28,18.28,0,0,1-1.77-3.37c-.11-.38-1.27.55-1.46.58s-.86-.37-1.23.14-1.36,1.21-1.69,1-.21-.37-.55-.66a5.46,5.46,0,0,0-2.76-.07c-.35.13-1.38.45-2,.73a207.73,207.73,0,0,0,5.26,29.71c4.93-1.1,9.84-2.32,10.25-2.18.79.28.59-4.59.41-4.76a2.55,2.55,0,0,1,.53-2.38C306.1,378.08,303.7,372.6,303.57,371.77Z" transform="translate(-5.39 -6.96)"/><path class="cx" d="M303.46,372.11c-.13-.83-1.41-7.18-1.82-7.57s-1.23-.81-.9-1-.11-3-.45-3.23a18.28,18.28,0,0,1-1.77-3.37c-.11-.38-1.27.55-1.46.58s-.86-.37-1.23.14-1.36,1.21-1.69,1-.21-.37-.55-.66a5.46,5.46,0,0,0-2.76-.07c-.33.12-1.24.4-1.88.67a206.57,206.57,0,0,0,5.3,29.73c4.87-1.09,9.66-2.28,10.06-2.14.79.28.59-4.59.41-4.76a2.55,2.55,0,0,1,.53-2.38C306,378.42,303.59,372.94,303.46,372.11Z" transform="translate(-5.39 -6.96)"/><path class="cy" d="M290.93,366.1a24.75,24.75,0,0,0-1.39-2.42q.36,2.75.78,5.5C290.91,368.23,291.45,367,290.93,366.1Z" transform="translate(-5.39 -6.96)"/><path class="cz" d="M296,363.67s1.11,3.28,1.81,4.92.24,1.56.72,2.74,1.31.1,1.09-1.67,1.13-.78,1-2.16.26-2.19-.59-2.21-1,.2-1.5-1-.29-1.21-1-1.45-1-.69-1.13-.18S296.41,364.05,296,363.67Z" transform="translate(-5.39 -6.96)"/><path class="da" d="M293.47,376.71s1.74.28,1.59,1.25a4.32,4.32,0,0,0-.16,1.53c.08.49.15,1.93.51,1.32s.74-.71.75-1.62.29-1.35.45-1.27.42,1.39.61,1.7-.41,1.86-.39,2-.46,1.57-.24,1.69,1.17-.18,1.05-1a8.11,8.11,0,0,1-.16-2.63c.18-.43.55,0,.39-1.36s.73-1.71.55-2.28-1.45-2.23-1.6-2.6.05-1.26-.63-1.8a5.6,5.6,0,0,0-1.59-1.2c-1.37-.79-1.81-3-1.63-.85s2,4.69,2,4.89A17.29,17.29,0,0,1,293.47,376.71Z" transform="translate(-5.39 -6.96)"/><path class="da" d="M293.34,358.78a15.38,15.38,0,0,0,.84,1.87,3.9,3.9,0,0,1,.73,1.79c.14.88.69.59.76.08s.66-1.25,0-1.31-.73.11-.82-.47.08-1.11-.29-1.21-.6,0-.64-.25S293.69,357.82,293.34,358.78Z" transform="translate(-5.39 -6.96)"/><path class="ab" d="M298.72,375.39a1.58,1.58,0,0,0-.33,1.75c.49.92-.22,2.43.57,1.41s.58-.79.22-1.83S298.92,375.36,298.72,375.39Z" transform="translate(-5.39 -6.96)"/><path class="db" d="M302.94,380a2.79,2.79,0,0,1,.44.93c0,.24,0,1.8.44,1.23a1.31,1.31,0,0,0,.33-1.4c-.11-.68-1.28-1.45-1.3-.95Z" transform="translate(-5.39 -6.96)"/><path class="cs" d="M293.66,386.09l.12.48h0C294.36,386.47,294,386.25,293.66,386.09Z" transform="translate(-5.39 -6.96)"/></g><text class="dc" transform="translate(123.78 470.06)">Good</text><polygon class="dd" points="170.09 500.42 150.41 479.36 154.85 475.22 174.53 496.27 179.67 491.47 184.54 512.46 163.93 506.18 170.09 500.42"/></svg>