<?xml version="1.0" encoding="utf-8"?>
<!-- Generator: Adobe Illustrator 21.1.0, SVG Export Plug-In . SVG Version: 6.00 Build 0)  -->
<svg version="1.1" id="Layer_1" xmlns="http://www.w3.org/2000/svg" xmlns:xlink="http://www.w3.org/1999/xlink" x="0px" y="0px"
	 viewBox="0 0 3236.1 1987.9" style="enable-background:new 0 0 3236.1 1987.9;" xml:space="preserve">
<style type="text/css">
	.st0{clip-path:url(#SVGID_2_);}
	.st1{clip-path:url(#SVGID_4_);}
	.st2{clip-path:url(#SVGID_6_);}
	.st3{fill:url(#SVGID_7_);}
	.st4{opacity:0.26;}
	.st5{fill:#688C7F;}
	.st6{opacity:9.000000e-02;}
	.st7{fill:#AD5236;}
	.st8{opacity:0.1;}
	.st9{opacity:0.5;}
	.st10{opacity:0.81;}
	.st11{fill:#FFE7E1;}
	.st12{fill:url(#XMLID_2_);}
	.st13{fill:url(#XMLID_3_);}
	.st14{fill:#FFFFFF;}
	.st15{fill:url(#XMLID_4_);}
	.st16{fill:url(#XMLID_5_);}
	.st17{fill:url(#XMLID_6_);}
	.st18{fill:url(#XMLID_7_);}
	.st19{fill:url(#XMLID_8_);}
	.st20{fill:url(#XMLID_9_);}
	.st21{fill:none;stroke:#F9F9F9;stroke-width:0.8798;stroke-linecap:round;stroke-linejoin:round;stroke-miterlimit:10;}
	.st22{opacity:0.24;fill:#FFFFFF;}
	.st23{fill:#F9F9F9;stroke:#F9F9F9;stroke-width:0.4399;stroke-miterlimit:10;}
	.st24{fill:none;stroke:#F9F9F9;stroke-width:0.8853;stroke-linecap:round;stroke-linejoin:round;stroke-miterlimit:10;}
	.st25{fill:#F9F9F9;stroke:#F9F9F9;stroke-width:0.4426;stroke-miterlimit:10;}
	.st26{fill:url(#XMLID_10_);}
	.st27{fill:url(#XMLID_11_);}
	.st28{fill:url(#XMLID_12_);}
	.st29{fill:url(#XMLID_13_);}
	.st30{fill:url(#XMLID_14_);}
	.st31{fill:url(#XMLID_15_);}
	.st32{fill:url(#XMLID_16_);}
	.st33{fill:url(#XMLID_17_);}
</style>
<g>
	<defs>
		<rect id="SVGID_1_" x="-2.1" width="3238.2" height="1986.5"/>
	</defs>
	<clipPath id="SVGID_2_">
		<use xlink:href="#SVGID_1_"  style="overflow:visible;"/>
	</clipPath>
	<g class="st0">
		<defs>
			<rect id="SVGID_3_" x="-2.1" width="3238.2" height="1986.5"/>
		</defs>
		<clipPath id="SVGID_4_">
			<use xlink:href="#SVGID_3_"  style="overflow:visible;"/>
		</clipPath>
		<g class="st1">
			<defs>
				<rect id="SVGID_5_" x="-2.1" width="3238.2" height="2012.2"/>
			</defs>
			<clipPath id="SVGID_6_">
				<use xlink:href="#SVGID_5_"  style="overflow:visible;"/>
			</clipPath>
			<g class="st2">
				<linearGradient id="SVGID_7_" gradientUnits="userSpaceOnUse" x1="1624.9957" y1="-186.3645" x2="1624.9957" y2="1721.9652">
					<stop  offset="0" style="stop-color:#186B91"/>
					<stop  offset="0.2041" style="stop-color:#5F9CB6"/>
					<stop  offset="0.3773" style="stop-color:#93C1D2"/>
					<stop  offset="0.5068" style="stop-color:#B4D7E3"/>
					<stop  offset="0.578" style="stop-color:#C0E0E9"/>
					<stop  offset="0.6344" style="stop-color:#C2DFE2"/>
					<stop  offset="0.7159" style="stop-color:#C9DCCF"/>
					<stop  offset="0.8127" style="stop-color:#D3D7AF"/>
					<stop  offset="0.9204" style="stop-color:#E1D184"/>
					<stop  offset="0.9984" style="stop-color:#EDCB60"/>
				</linearGradient>
				<path class="st3" d="M2822.4-7.4c-503.6,0-1005.9-13.5-1509.1-20.7c-215.8-3.1-431.7-1.1-647.2-8.7c-10-0.4-20-0.7-30-1.1
					c-13.8-0.5-27.5-1-41.3-1.5c-74.5-2.7-149.3-5.4-224.1-6.5c-14.9,3.8-30.3,7-46,10c-40.8,7.8-85.6,9.6-128.5,12.2
					c-25.3,1.5-50.6,2.2-76.1,2.2C79.1-21.3,38-22.5-3.1-23.1c-5.5,1-11.2,1.9-16.9,2.6v2057.7h3290V-7.4H2822.4z"/>
				<g>
					<g id="Tees">
						<g>
							<g>
								<g class="st4">
									<path class="st5" d="M716.5,1644.3c6.5,7.3,13.8,14.5,22.7,20.2c8.9,5.4,20.4,8.7,32,11.1c6.8,1.4,13.8,2.4,20.9,3.3v-0.1
										c-0.1-39.8,0.1-79.6,2.2-119.5c1.1-19.9,2.8-40,6-60l0.6-4.4l-1-1.3l1.2-0.4l7.1-53.2l12.6-95.4l-67.9-57.3l69.7,43.6
										l1.3-9.5c2.4-19.8,4.6-39.6,6.5-59.4c0.9-9.9,1.9-19.8,2.2-29.6c-0.4-9.7-1-19.7-2.7-29.5c-3.1-19.6-8.9-39.1-19.2-57.6
										c-5-9.2-11.1-18.2-18.3-26.8c-3.6-4.3-7.3-8.5-11.1-12.8c-3.7-4.2-7.8-8.4-9.8-13.2c2.2,4.8,6.5,8.8,10.4,13
										c4,4.1,7.9,8.3,11.7,12.5c7.5,8.5,14.1,17.4,19.6,26.6c11.3,18.4,18,38,22,57.8c2.1,9.9,3.2,19.8,4,29.9
										c0.1,10.1-0.4,20-0.9,29.9c-1.1,19.9-2.3,39.7-3.9,59.6L824.1,1441l-4,46.3l80.2-25.2l-81.1,36.2l-0.2,2.3
										c-2.2,19.6-3.1,39.2-3.2,59c-0.3,38.9,1.3,78,3.1,117.1l33.3-8.7l5.1,10.6l-38,7.6l5.3,111.6c0.3,6.6,0.6,13.2,0.9,19.9
										l31.3-11.3l-31,20.2c0,0.4,0,0.7,0,1.1c0.1,10.2-0.3,20.3-0.8,30.3c-1.1,20.1-3.2,40.1-5.7,60
										c-5,39.9-11.6,79.5-19.4,119.2l-42.4-4.6c9.4-38.8,17.8-78.1,24.4-117.2c3.3-19.6,6.3-39.2,8.2-58.7
										c0.9-9.8,1.8-19.5,2.1-29.2c0.4-9.7,0.1-19.8,0.1-29.7l-0.3-111.3c-8.1-1.3-16-3-23.8-5c-12-3.2-23.9-7.4-33.3-14
										c-8.9-6.7-15.3-14.3-21.1-22.1c-5.7-7.8-10.6-15.9-14.7-24.1C704.3,1629.2,710.1,1636.9,716.5,1644.3z"/>
								</g>
								<g class="st4">
									<path class="st5" d="M1047.4,1569.7c6.5,8.6,13.8,16.9,22.7,23.6c8.9,6.3,20.4,10.2,32,13c6.8,1.6,13.8,2.9,20.9,3.8v-0.1
										c-0.1-46.6,0.1-93.2,2.2-139.9c1.1-23.3,2.8-46.8,6-70.2l0.6-5.2l-1-1.5l1.2-0.4l7.1-62.3l12.6-111.7l-67.9-67.1l69.7,51
										l1.3-11.1c2.4-23.2,4.6-46.4,6.5-69.5c0.9-11.6,1.9-23.2,2.2-34.7c-0.4-11.4-1-23.1-2.7-34.5c-3.1-22.9-8.9-45.8-19.2-67.4
										c-5-10.8-11.1-21.3-18.3-31.4c-3.6-5-7.3-10-11.1-14.9c-3.7-5-7.8-9.9-9.8-15.5c2.2,5.6,6.5,10.3,10.4,15.2
										c4,4.8,7.9,9.7,11.7,14.7c7.5,9.9,14.1,20.4,19.6,31.2c11.3,21.5,18,44.5,22,67.7c2.1,11.6,3.2,23.2,4,35
										c0.1,11.8-0.4,23.4-0.9,35c-1.1,23.3-2.3,46.5-3.9,69.8l-10.4,139.4l-4,54.2l80.2-29.5l-81.1,42.4l-0.2,2.7
										c-2.2,22.9-3.1,45.9-3.2,69.1c-0.3,45.6,1.3,91.3,3.1,137.1l33.3-10.2l5.1,12.4l-38,8.9l5.3,130.7
										c0.3,7.8,0.6,15.5,0.9,23.3l31.3-13.2l-31,23.7c0,0.4,0,0.8,0,1.3c0.1,11.9-0.3,23.7-0.8,35.5c-1.1,23.6-3.2,47-5.7,70.3
										c-5,46.7-11.6,93-19.4,139.6l-42.4-5.4c9.4-45.4,17.8-91.4,24.4-137.2c3.3-22.9,6.3-45.9,8.2-68.8
										c0.9-11.4,1.8-22.9,2.1-34.2c0.4-11.4,0.1-23.2,0.1-34.7l-0.3-130.3c-8.1-1.6-16-3.5-23.8-5.9c-12-3.8-23.9-8.6-33.3-16.4
										c-8.9-7.8-15.3-16.8-21.1-25.9c-5.7-9.2-10.6-18.6-14.7-28.2C1035.1,1552,1040.9,1561,1047.4,1569.7z"/>
								</g>
								<g class="st6">
									<path class="st7" d="M1099.9,1753.9c-6.5,5.2-13.8,10.2-22.7,14.1c-8.9,3.8-20.4,6.1-32,7.8c-6.8,1-13.8,1.7-20.9,2.3v0
										c0.1-27.9-0.1-55.9-2.2-83.9c-1.1-14-2.8-28.1-6-42.1l-0.6-3.1l1-0.9l-1.2-0.3l-7.1-37.4l-12.6-66.9l67.9-40.2l-69.7,30.6
										l-1.3-6.7c-2.4-13.9-4.6-27.8-6.5-41.7c-0.9-6.9-1.9-13.9-2.2-20.8c0.4-6.8,1-13.8,2.7-20.7c3.1-13.8,8.9-27.5,19.2-40.4
										c5-6.5,11.1-12.8,18.3-18.8c3.6-3,7.3-6,11.1-9c3.7-3,7.8-5.9,9.8-9.3c-2.2,3.3-6.5,6.2-10.4,9.1c-4,2.9-7.9,5.8-11.7,8.8
										c-7.5,6-14.1,12.2-19.6,18.7c-11.3,12.9-18,26.7-22,40.6c-2.1,7-3.2,13.9-4,21c-0.1,7.1,0.4,14,0.9,21
										c1.1,14,2.3,27.9,3.9,41.8l10.4,83.6l4,32.5l-80.2-17.7l81.1,25.4l0.2,1.6c2.2,13.8,3.1,27.5,3.2,41.4
										c0.3,27.3-1.3,54.7-3.1,82.2l-33.3-6.1l-5.1,7.4l38,5.3l-5.3,78.4c-0.3,4.7-0.6,9.3-0.9,13.9l-31.3-7.9l31,14.2
										c0,0.3,0,0.5,0,0.8c-0.1,7.1,0.3,14.2,0.8,21.3c1.1,14.1,3.2,28.2,5.7,42.2c5,28,11.6,55.8,19.4,83.7l42.4-3.2
										c-9.4-27.2-17.8-54.8-24.4-82.3c-3.3-13.7-6.3-27.5-8.2-41.2c-0.9-6.9-1.8-13.7-2.1-20.5c-0.4-6.8-0.1-13.9-0.1-20.8
										l0.3-78.1c8.1-0.9,16-2.1,23.8-3.5c12-2.3,23.9-5.2,33.3-9.8c8.9-4.7,15.3-10.1,21.1-15.5c5.7-5.5,10.6-11.1,14.7-16.9
										C1112.2,1743.3,1106.4,1748.7,1099.9,1753.9z"/>
								</g>
								<g class="st8">
									<path class="st7" d="M544.1,1783.7c-4.2,4-8.9,7.8-14.4,10.7c-5.5,2.7-12.4,4.1-19.3,5c-4,0.5-8.2,0.8-12.3,1l0,0
										c2.5-23.2,4.8-46.4,6-69.7c0.6-11.7,0.8-23.4,0.2-35.2l-0.1-2.6l0.7-0.7l-0.7-0.3l-0.9-31.3l-1.5-56.1l43.1-30.4
										l-43.3,22.3l-0.2-5.6c-0.2-11.6-0.2-23.3-0.2-34.9c0.1-5.8,0.1-11.6,0.5-17.4c0.8-5.6,1.8-11.4,3.3-17
										c3-11.3,7.5-22.4,14.7-32.7c3.5-5.2,7.6-10.1,12.3-14.8c2.3-2.3,4.8-4.6,7.2-6.9c2.4-2.3,5.1-4.6,6.5-7.3
										c-1.6,2.7-4.3,4.8-6.8,7.1c-2.6,2.2-5.1,4.5-7.6,6.8c-4.9,4.6-9.3,9.5-13,14.6c-7.7,10.2-12.8,21.3-16.4,32.7
										c-1.8,5.7-3.1,11.4-4.2,17.2c-0.7,5.9-1,11.6-1.3,17.5c-0.6,11.6-1.1,23.2-1.4,34.9l-1.2,69.8l-0.5,27.1l-45.1-18.2
										l45,24.7l0,1.4c0.1,11.5-0.6,23-1.7,34.5c-2.2,22.7-5.5,45.4-8.9,68l-18.9-6.6l-3.6,5.9l21.7,6.1l-9.9,64.8
										c-0.6,3.9-1.2,7.7-1.7,11.5l-17.6-7.9l16.8,13.2c0,0.2-0.1,0.4-0.1,0.6c-0.7,5.9-1.1,11.8-1.4,17.7
										c-0.6,11.8-0.6,23.5-0.4,35.2c0.5,23.5,1.9,46.8,4,70.3l24.9-0.8c-3.1-23-5.6-46.3-7.1-69.3c-0.7-11.6-1.3-23.1-1.2-34.6
										c0-5.7,0.2-11.4,0.6-17.1c0.4-5.7,1.2-11.5,1.7-17.3l7-64.8c4.8-0.4,9.5-1,14.2-1.9c7.2-1.4,14.4-3.2,20.3-6.7
										c5.6-3.5,9.8-7.7,13.6-11.9c3.8-4.3,7.1-8.8,10-13.4C552.2,1775.4,548.3,1779.6,544.1,1783.7z"/>
								</g>
								<g class="st4">
									<path class="st5" d="M504.4,1718.9c-4.9,5.5-10.3,10.8-16.9,15c-6.6,4-15.2,6.5-23.8,8.2c-5.1,1-10.3,1.8-15.5,2.4v0
										c0.1-29.6-0.1-59.3-1.6-89c-0.8-14.8-2.1-29.8-4.5-44.7l-0.4-3.3l0.7-0.9l-0.9-0.3l-5.3-39.6l-9.4-71l50.6-42.7l-51.9,32.4
										l-0.9-7.1c-1.8-14.7-3.4-29.5-4.9-44.2c-0.7-7.4-1.4-14.8-1.7-22.1c0.3-7.2,0.8-14.7,2-21.9c2.3-14.6,6.6-29.1,14.3-42.9
										c3.7-6.9,8.3-13.6,13.6-20c2.7-3.2,5.4-6.4,8.3-9.5c2.7-3.2,5.8-6.3,7.3-9.8c-1.6,3.5-4.9,6.6-7.7,9.7
										c-3,3.1-5.9,6.2-8.7,9.3c-5.6,6.3-10.5,13-14.6,19.8c-8.4,13.7-13.4,28.3-16.4,43c-1.6,7.4-2.4,14.7-3,22.3
										c-0.1,7.5,0.3,14.9,0.7,22.3c0.8,14.8,1.7,29.6,2.9,44.4l7.7,88.7l3,34.4l-59.7-18.8l60.4,26.9l0.2,1.7
										c1.7,14.6,2.3,29.2,2.4,43.9c0.2,29-0.9,58.1-2.3,87.2l-24.8-6.5l-3.8,7.9l28.3,5.7l-4,83.1c-0.2,4.9-0.5,9.9-0.7,14.8
										l-23.3-8.4l23.1,15.1c0,0.3,0,0.5,0,0.8c-0.1,7.6,0.2,15.1,0.6,22.6c0.8,15,2.4,29.9,4.2,44.7c3.7,29.7,8.6,59.2,14.4,88.8
										l31.5-3.4c-7-28.9-13.2-58.1-18.2-87.3c-2.4-14.6-4.7-29.2-6.1-43.7c-0.7-7.3-1.3-14.5-1.5-21.8c-0.3-7.3,0-14.7-0.1-22.1
										l0.2-82.9c6-1,11.9-2.2,17.7-3.7c8.9-2.4,17.8-5.5,24.8-10.4c6.6-5,11.4-10.7,15.7-16.5c4.2-5.8,7.9-11.8,10.9-17.9
										C513.5,1707.7,509.2,1713.4,504.4,1718.9z"/>
									<path class="st5" d="M380.1,1581.8l1.4-2.2c6.2-9.7-0.3-21.2-14.4-25.5l-1.4,2.2C359.5,1566,366,1577.5,380.1,1581.8z"/>
									<path class="st5" d="M335.3,1605.5l3.3,0.5c15,2.2,30-4.4,33.2-14.8v0l-3.3-0.5C353.5,1588.4,338.6,1595.1,335.3,1605.5z"
										/>
									<path class="st5" d="M497.3,1714.9l3.3,0.6c4.1-10.2-4.6-21-19.4-23.8l-3.3-0.6C473.7,1701.3,482.5,1712.1,497.3,1714.9z"
										/>
									<path class="st5" d="M517.4,1725l-10.6,1.6v0c2.4,7.6,13.4,12.6,24.4,10.9l10.6-1.6C539.5,1728.2,528.5,1723.3,517.4,1725z
										"/>
									<path class="st5" d="M395.6,1837.8v-2.2c0-7.5-8.9-13.7-19.8-13.7v2.2C375.9,1831.6,384.8,1837.8,395.6,1837.8z"/>
									<path class="st5" d="M373.2,1857.8l3.1,0.3c10.8,0.9,20.7-4.5,22-12l-3.1-0.3C384.4,1845,374.5,1850.3,373.2,1857.8z"/>
								</g>
								<g class="st9">
									<path class="st5" d="M1675.3,1598.1c-7,7.9-14.9,15.6-24.5,21.8c-9.6,5.8-22,9.4-34.6,12c-7.3,1.5-14.9,2.6-22.5,3.5v-0.1
										c0.1-42.9-0.1-85.9-2.4-129c-1.1-21.5-3-43.2-6.5-64.7l-0.6-4.8l1.1-1.4l-1.3-0.4l-7.6-57.4l-13.6-102.9l73.3-61.9
										l-75.3,47l-1.4-10.3c-2.6-21.4-4.9-42.7-7.1-64.1c-1-10.7-2.1-21.4-2.4-32c0.4-10.5,1.1-21.3,2.9-31.8
										c3.4-21.2,9.6-42.2,20.7-62.1c5.4-10,12-19.7,19.7-29c3.9-4.6,7.9-9.2,12-13.8c4-4.6,8.5-9.1,10.6-14.3
										c-2.4,5.1-7,9.5-11.2,14c-4.3,4.5-8.5,9-12.6,13.5c-8.1,9.2-15.2,18.8-21.1,28.7c-12.2,19.9-19.4,41-23.8,62.4
										c-2.3,10.7-3.5,21.4-4.4,32.3c-0.1,10.9,0.5,21.6,1,32.3c1.2,21.5,2.5,42.9,4.2,64.3l11.2,128.5l4.4,49.9l-86.5-27.2
										l87.6,39.1l0.2,2.5c2.4,21.2,3.3,42.3,3.5,63.7c0.3,42-1.4,84.2-3.3,126.4l-36-9.4l-5.5,11.4l41,8.2l-5.7,120.5
										c-0.3,7.2-0.7,14.3-1,21.4l-33.8-12.1l33.5,21.8c0,0.4,0,0.8,0,1.2c-0.1,11,0.3,21.9,0.8,32.7c1.2,21.7,3.5,43.3,6.1,64.8
										c5.4,43.1,12.5,85.8,20.9,128.7l45.7-5c-10.2-41.9-19.2-84.3-26.4-126.5c-3.5-21.1-6.8-42.3-8.9-63.4
										c-1-10.5-1.9-21.1-2.2-31.5c-0.4-10.5-0.1-21.4-0.1-32l0.3-120.2c8.7-1.4,17.2-3.2,25.7-5.4c12.9-3.5,25.8-7.9,36-15.1
										c9.6-7.2,16.5-15.5,22.8-23.9c6.1-8.4,11.4-17.1,15.8-26C1688.5,1581.8,1682.2,1590.1,1675.3,1598.1z"/>
									<path class="st5" d="M1495,1399.2l2-3.1c9-14.1-0.4-30.7-20.8-36.9l-2,3.1C1465.3,1376.4,1474.6,1393,1495,1399.2z"/>
									<path class="st5" d="M1430.2,1433.6l4.8,0.7c21.8,3.2,43.4-6.4,48.1-21.5v0l-4.8-0.7
										C1456.6,1408.9,1434.9,1418.6,1430.2,1433.6z"/>
									<path class="st5" d="M1665,1592.3l4.8,0.9c6-14.8-6.6-30.4-28.1-34.6l-4.8-0.9C1630.9,1572.5,1643.5,1588.1,1665,1592.3z"
										/>
									<path class="st5" d="M1694.2,1606.8l-15.3,2.3v0c3.5,11.1,19.4,18.2,35.4,15.8l15.3-2.3
										C1726.2,1611.5,1710.2,1604.4,1694.2,1606.8z"/>
									<path class="st5" d="M1517.6,1770.4v-3.2c0-10.9-12.9-19.8-28.6-19.8v3.2C1489,1761.4,1501.9,1770.4,1517.6,1770.4z"/>
									<path class="st5" d="M1485.1,1799.4l4.6,0.4c15.6,1.3,30-6.5,31.8-17.3l-4.6-0.4C1501.3,1780.8,1487,1788.6,1485.1,1799.4z
										"/>
								</g>
								<g>
									<path class="st5" d="M97,1613.1c-7,7.9-14.9,15.6-24.5,21.8c-9.6,5.8-22,9.4-34.6,12c-7.3,1.5-14.9,2.6-22.5,3.5v-0.1
										c0.1-42.9-0.1-85.9-2.4-129c-1.1-21.5-3-43.2-6.5-64.7l-0.6-4.8l1.1-1.4l-1.3-0.4l-7.6-57.4l-13.6-102.9l73.3-61.9
										l-75.3,47l-1.4-10.3c-2.6-21.4-4.9-42.7-7.1-64.1c-1-10.7-2.1-21.4-2.4-32c0.4-10.5,1.1-21.3,2.9-31.8
										c3.4-21.2,9.6-42.2,20.7-62.1c5.4-10,12-19.7,19.7-29c3.9-4.6,7.9-9.2,12-13.8c4-4.6,8.5-9.1,10.6-14.3
										c-2.4,5.1-7,9.5-11.2,14c-4.3,4.5-8.5,9-12.6,13.5c-8.1,9.2-15.2,18.8-21.1,28.7c-12.2,19.9-19.4,41-23.8,62.4
										c-2.3,10.7-3.5,21.4-4.4,32.3c-0.1,10.9,0.5,21.6,1,32.3c1.2,21.5,2.5,42.9,4.2,64.3l11.2,128.5l4.4,49.9l-86.5-27.2
										l87.6,39.1l0.2,2.5c2.4,21.2,3.3,42.3,3.5,63.7c0.3,42-1.4,84.2-3.3,126.4l-36-9.4l-5.5,11.4l41,8.2l-5.7,120.5
										c-0.3,7.2-0.7,14.3-1,21.4l-33.8-12.1l33.5,21.8c0,0.4,0,0.8,0,1.2c-0.1,11,0.3,21.9,0.8,32.7c1.2,21.7,3.5,43.3,6.1,64.8
										c5.4,43.1,12.5,85.8,20.9,128.7l45.7-5c-10.2-41.9-19.2-84.3-26.4-126.5c-3.5-21.1-6.8-42.3-8.9-63.4
										c-1-10.5-1.9-21.1-2.2-31.5c-0.4-10.5-0.1-21.4-0.1-32l0.3-120.2c8.7-1.4,17.2-3.2,25.7-5.4c12.9-3.5,25.8-7.9,36-15.1
										c9.6-7.2,16.5-15.5,22.8-23.9c6.1-8.4,11.4-17.1,15.8-26C110.2,1596.8,104,1605.1,97,1613.1z"/>
									<path class="st5" d="M-83.2,1414.3l2-3.1c9-14.1-0.4-30.7-20.8-36.9l-2,3.1C-113,1391.4-103.6,1408.1-83.2,1414.3z"/>
									<path class="st5" d="M-148,1448.7l4.8,0.7c21.8,3.2,43.4-6.4,48.1-21.5v0l-4.8-0.7C-121.7,1423.9-143.3,1433.6-148,1448.7z
										"/>
									<path class="st5" d="M86.7,1607.3l4.8,0.9c6-14.8-6.6-30.4-28.1-34.6l-4.8-0.9C52.6,1587.6,65.3,1603.1,86.7,1607.3z"/>
									<path class="st5" d="M116,1621.8l-15.3,2.3v0c3.5,11.1,19.4,18.2,35.4,15.8l15.3-2.3C147.9,1626.6,132,1619.4,116,1621.8z"
										/>
									<path class="st5" d="M-60.6,1785.4v-3.2c0-10.9-12.9-19.8-28.6-19.8v3.2C-89.2,1776.5-76.4,1785.4-60.6,1785.4z"/>
									<path class="st5" d="M-93.1,1814.4l4.6,0.4c15.6,1.3,30-6.5,31.8-17.3l-4.6-0.4C-76.9,1795.8-91.3,1803.6-93.1,1814.4z"/>
								</g>
								<g class="st4">
									<path class="st5" d="M1622,1553.3c6.5,8.6,13.8,16.9,22.7,23.6c8.9,6.3,20.4,10.2,32,13c6.8,1.6,13.8,2.9,20.9,3.8v-0.1
										c-0.1-46.6,0.1-93.2,2.2-139.9c1.1-23.3,2.8-46.8,6-70.2l0.6-5.2l-1-1.5l1.2-0.4l7.1-62.3l12.6-111.7l-67.9-67.1l69.7,51
										l1.3-11.1c2.4-23.2,4.6-46.4,6.5-69.5c0.9-11.6,1.9-23.2,2.2-34.7c-0.4-11.4-1-23.1-2.7-34.5c-3.1-22.9-8.9-45.8-19.2-67.4
										c-5-10.8-11.1-21.3-18.3-31.4c-3.6-5-7.3-10-11.1-14.9c-3.7-5-7.8-9.9-9.8-15.5c2.2,5.6,6.5,10.3,10.4,15.2
										c4,4.8,7.9,9.7,11.7,14.7c7.5,9.9,14.1,20.4,19.6,31.2c11.3,21.5,18,44.5,22,67.7c2.1,11.6,3.2,23.2,4,35
										c0.1,11.8-0.4,23.4-0.9,35c-1.1,23.3-2.3,46.5-3.9,69.8l-10.4,139.4l-4,54.2l80.2-29.5l-81.1,42.4l-0.2,2.7
										c-2.2,22.9-3.1,45.9-3.2,69.1c-0.3,45.6,1.3,91.3,3.1,137.1l33.3-10.2l5.1,12.4l-38,8.9l5.3,130.7
										c0.3,7.8,0.6,15.5,0.9,23.3l31.3-13.2l-31,23.7c0,0.4,0,0.8,0,1.3c0.1,11.9-0.3,23.7-0.8,35.5c-1.1,23.6-3.2,47-5.7,70.3
										c-5,46.7-11.6,93-19.4,139.6l-42.4-5.4c9.4-45.4,17.8-91.4,24.4-137.2c3.3-22.9,6.3-45.9,8.2-68.8
										c0.9-11.4,1.8-22.9,2.1-34.2c0.4-11.4,0.1-23.2,0.1-34.7l-0.3-130.3c-8.1-1.6-16-3.5-23.8-5.9c-12-3.8-23.9-8.6-33.3-16.4
										c-8.9-7.8-15.3-16.8-21.1-25.9c-5.7-9.2-10.6-18.6-14.7-28.2C1609.8,1535.6,1615.6,1544.7,1622,1553.3z"/>
								</g>
							</g>
							<g class="st4">
								<path class="st5" d="M2257.1,1550c6.5,8.6,13.8,16.9,22.7,23.6c8.9,6.3,20.4,10.2,32,13c6.8,1.6,13.8,2.9,20.9,3.8v-0.1
									c-0.1-46.6,0.1-93.2,2.2-139.9c1.1-23.3,2.8-46.8,6-70.2l0.6-5.2l-1-1.5l1.2-0.4l7.1-62.3l12.6-111.7l-67.9-67.1l69.7,51
									l1.3-11.1c2.4-23.2,4.6-46.4,6.5-69.5c0.9-11.6,1.9-23.2,2.2-34.7c-0.4-11.4-1-23.1-2.7-34.5c-3.1-22.9-8.9-45.8-19.2-67.4
									c-5-10.8-11.1-21.3-18.3-31.4c-3.6-5-7.3-10-11.1-14.9c-3.7-5-7.8-9.9-9.8-15.5c2.2,5.6,6.5,10.3,10.4,15.2
									c4,4.8,7.9,9.7,11.7,14.7c7.5,9.9,14.1,20.4,19.6,31.2c11.3,21.5,18,44.5,22,67.7c2.1,11.6,3.2,23.2,4,35
									c0.1,11.8-0.4,23.4-0.9,35c-1.1,23.3-2.3,46.5-3.9,69.8l-10.4,139.4l-4,54.2l80.2-29.5l-81.1,42.4l-0.2,2.7
									c-2.2,22.9-3.1,45.9-3.2,69.1c-0.3,45.6,1.3,91.3,3.1,137.1l33.3-10.2l5.1,12.4l-38,8.9l5.3,130.7
									c0.3,7.8,0.6,15.5,0.9,23.3l31.3-13.2l-31,23.7c0,0.4,0,0.8,0,1.3c0.1,11.9-0.3,23.7-0.8,35.5c-1.1,23.6-3.2,47-5.7,70.3
									c-5,46.7-11.6,93-19.4,139.6l-42.4-5.4c9.4-45.4,17.8-91.4,24.4-137.2c3.3-22.9,6.3-45.9,8.2-68.8
									c0.9-11.4,1.8-22.9,2.1-34.2c0.4-11.4,0.1-23.2,0.1-34.7l-0.3-130.3c-8.1-1.6-16-3.5-23.8-5.9c-12-3.8-23.9-8.6-33.3-16.4
									c-8.9-7.8-15.3-16.8-21.1-25.9c-5.7-9.2-10.6-18.6-14.7-28.2C2244.8,1532.3,2250.6,1541.4,2257.1,1550z"/>
							</g>
							<g class="st6">
								<path class="st7" d="M2339.8,1743.6c-6.5,5.2-13.8,10.2-22.7,14.1c-8.9,3.8-20.4,6.1-32,7.8c-6.8,1-13.8,1.7-20.9,2.3v0
									c0.1-27.9-0.1-55.9-2.2-83.9c-1.1-14-2.8-28.1-6-42.1l-0.6-3.1l1-0.9l-1.2-0.3l-7.1-37.4l-12.6-66.9l67.9-40.2l-69.7,30.6
									l-1.3-6.7c-2.4-13.9-4.6-27.8-6.5-41.7c-0.9-6.9-1.9-13.9-2.2-20.8c0.4-6.8,1-13.8,2.7-20.7c3.1-13.8,8.9-27.5,19.2-40.4
									c5-6.5,11.1-12.8,18.3-18.8c3.6-3,7.3-6,11.1-9c3.7-3,7.8-5.9,9.8-9.3c-2.2,3.3-6.5,6.2-10.4,9.1c-4,2.9-7.9,5.8-11.7,8.8
									c-7.5,6-14.1,12.2-19.6,18.7c-11.3,12.9-18,26.7-22,40.6c-2.1,7-3.2,13.9-4,21c-0.1,7.1,0.4,14,0.9,21
									c1.1,14,2.3,27.9,3.9,41.8l10.4,83.6l4,32.5l-80.2-17.7l81.1,25.4l0.2,1.6c2.2,13.8,3.1,27.5,3.2,41.4
									c0.3,27.3-1.3,54.7-3.1,82.2l-33.3-6.1l-5.1,7.4l38,5.3l-5.3,78.4c-0.3,4.7-0.6,9.3-0.9,13.9l-31.3-7.9l31,14.2
									c0,0.3,0,0.5,0,0.8c-0.1,7.1,0.3,14.2,0.8,21.3c1.1,14.1,3.2,28.2,5.7,42.2c5,28,11.6,55.8,19.4,83.7l42.4-3.2
									c-9.4-27.2-17.8-54.8-24.4-82.3c-3.3-13.7-6.3-27.5-8.2-41.2c-0.9-6.9-1.8-13.7-2.1-20.5c-0.4-6.8-0.1-13.9-0.1-20.8
									l0.3-78.1c8.1-0.9,16-2.1,23.8-3.5c12-2.3,23.9-5.2,33.3-9.8c8.9-4.7,15.3-10.1,21.1-15.5c5.7-5.5,10.6-11.1,14.7-16.9
									C2352.1,1733,2346.3,1738.4,2339.8,1743.6z"/>
							</g>
							<g class="st6">
								<path class="st7" d="M2934.4,1716.9c-6.5,5.2-13.8,10.2-22.7,14.1c-8.9,3.8-20.4,6.1-32,7.8c-6.8,1-13.8,1.7-20.9,2.3v0
									c0.1-27.9-0.1-55.9-2.2-83.9c-1.1-14-2.8-28.1-6-42.1l-0.6-3.1l1-0.9l-1.2-0.3l-7.1-37.4l-12.6-66.9l67.9-40.2l-69.7,30.6
									l-1.3-6.7c-2.4-13.9-4.6-27.8-6.5-41.7c-0.9-6.9-1.9-13.9-2.2-20.8c0.4-6.8,1-13.8,2.7-20.7c3.1-13.8,8.9-27.5,19.2-40.4
									c5-6.5,11.1-12.8,18.3-18.8c3.6-3,7.3-6,11.1-9c3.7-3,7.8-5.9,9.8-9.3c-2.2,3.3-6.5,6.2-10.4,9.1c-4,2.9-7.9,5.8-11.7,8.8
									c-7.5,6-14.1,12.2-19.6,18.7c-11.3,12.9-18,26.7-22,40.6c-2.1,7-3.2,13.9-4,21c-0.1,7.1,0.4,14,0.9,21
									c1.1,14,2.3,27.9,3.9,41.8l10.4,83.6l4,32.5l-80.2-17.7l81.1,25.4l0.2,1.6c2.2,13.8,3.1,27.5,3.2,41.4
									c0.3,27.3-1.3,54.7-3.1,82.2l-33.3-6.1l-5.1,7.4l38,5.3l-5.3,78.4c-0.3,4.7-0.6,9.3-0.9,13.9l-31.3-7.9l31,14.2
									c0,0.3,0,0.5,0,0.8c-0.1,7.1,0.3,14.2,0.8,21.3c1.1,14.1,3.2,28.2,5.7,42.1c5,28,11.6,55.8,19.4,83.7l42.4-3.2
									c-9.4-27.2-17.8-54.8-24.4-82.3c-3.3-13.7-6.3-27.5-8.2-41.2c-0.9-6.9-1.8-13.7-2.1-20.5c-0.4-6.8-0.1-13.9-0.1-20.8
									l0.3-78.1c8.1-0.9,16-2.1,23.8-3.5c12-2.3,23.9-5.2,33.3-9.8c8.9-4.7,15.3-10.1,21.1-15.5c5.7-5.5,10.6-11.1,14.7-16.9
									C2946.7,1706.3,2940.9,1711.7,2934.4,1716.9z"/>
							</g>
						</g>
						<g>
							<path class="st5" d="M3136.5,1537.7c-7.9,8.8-16.6,17.5-27.3,24.3c-10.8,6.5-24.6,10.5-38.6,13.4c-8.2,1.7-16.7,2.9-25.2,3.9
								v-0.1c0.1-48-0.1-96-2.6-144.1c-1.3-24-3.4-48.3-7.2-72.3l-0.7-5.3l1.2-1.5l-1.5-0.5l-8.5-64.2l-15.2-115l81.9-69.1
								l-84.1,52.6l-1.5-11.5c-2.9-23.9-5.5-47.7-7.9-71.6c-1.1-11.9-2.3-23.9-2.7-35.7c0.4-11.7,1.2-23.8,3.2-35.5
								c3.8-23.6,10.7-47.2,23.2-69.4c6.1-11.2,13.4-22,22-32.4c4.3-5.2,8.8-10.3,13.4-15.4c4.4-5.1,9.4-10.1,11.9-15.9
								c-2.7,5.7-7.9,10.6-12.5,15.6c-4.8,5-9.5,10-14.1,15.1c-9.1,10.2-17,21-23.6,32.1c-13.6,22.2-21.7,45.9-26.6,69.7
								c-2.5,12-3.9,23.9-4.9,36.1c-0.1,12.1,0.5,24.1,1.1,36.1c1.3,24,2.8,47.9,4.7,71.9l12.5,143.6l4.9,55.8l-96.7-30.4l97.8,43.6
								l0.2,2.8c2.7,23.6,3.7,47.3,3.9,71.2c0.4,47-1.5,94.1-3.7,141.2l-40.2-10.5l-6.1,12.7l45.8,9.2l-6.4,134.6
								c-0.3,8-0.7,16-1.1,23.9l-37.8-13.6l37.4,24.4c0,0.4,0,0.9,0,1.3c-0.1,12.3,0.3,24.4,0.9,36.6c1.3,24.3,3.9,48.4,6.8,72.4
								c6,48.1,13.9,95.8,23.4,143.8l51.1-5.6c-11.4-46.8-21.4-94.1-29.5-141.4c-4-23.6-7.6-47.3-9.9-70.8
								c-1.1-11.8-2.1-23.5-2.5-35.2c-0.4-11.8-0.1-23.9-0.1-35.8l0.3-134.2c9.7-1.6,19.3-3.6,28.7-6c14.5-3.9,28.9-8.9,40.2-16.9
								c10.7-8.1,18.5-17.3,25.4-26.7c6.8-9.4,12.7-19.1,17.7-29.1C3151.3,1519.4,3144.3,1528.8,3136.5,1537.7z"/>
							<path class="st5" d="M2935.2,1315.5l2.2-3.5c10-15.8-0.5-34.3-23.2-41.3l-2.2,3.5C2901.9,1290,2912.4,1308.6,2935.2,1315.5z"
								/>
							<path class="st5" d="M2862.7,1354l5.4,0.8c24.3,3.6,48.5-7.2,53.8-24v0l-5.4-0.8C2892.2,1326.3,2868,1337.1,2862.7,1354z"/>
							<path class="st5" d="M3125,1531.2l5.3,1c6.7-16.6-7.4-34-31.4-38.6l-5.3-1C3086.9,1509.2,3101,1526.5,3125,1531.2z"/>
							<path class="st5" d="M3157.7,1547.5l-17.1,2.6v0c3.9,12.4,21.7,20.3,39.6,17.7l17.1-2.6
								C3193.4,1552.7,3175.6,1544.8,3157.7,1547.5z"/>
							<path class="st5" d="M2960.4,1730.2v-3.6c0-12.2-14.4-22.1-32-22.1v3.6C2928.4,1720.2,2942.8,1730.2,2960.4,1730.2z"/>
							<path class="st5" d="M2924.1,1762.6l5.1,0.4c17.5,1.4,33.5-7.3,35.6-19.4l-5.1-0.4
								C2942.2,1741.8,2926.2,1750.5,2924.1,1762.6z"/>
						</g>
					</g>
					<g id="XMLID_101_" class="st10">
						<path id="XMLID_106_" class="st11" d="M2742.6,277.9c0,0-18.3-76.1-95-48.2c0,0,22.8-89.1-89.1-84.9
							c-120.9,4.5-81.5,82.3-81.5,82.3s-56.1-19.9-77.8-0.1c-11.4,10.4-16.2,30.1-18.2,46.5c-64-36.5-113.4,22.6-96.3,26.9
							c17.2,4.3,95,0,95,0s48.1,7.5,74.4,0c0,0,93.8,17.4,194.6,3.3c0,0,46.9,10.8,93.8,1.1c0,0,65.2,2,88.1-4.4
							C2853.6,293.9,2793.1,247,2742.6,277.9z"/>
						<g id="XMLID_103_">
							<linearGradient id="XMLID_2_" gradientUnits="userSpaceOnUse" x1="2493.4016" y1="445.0631" x2="2586.5317" y2="155.3247">
								<stop  offset="1.642628e-03" style="stop-color:#EDCB60"/>
								<stop  offset="7.963607e-02" style="stop-color:#E1D184"/>
								<stop  offset="0.1873" style="stop-color:#D3D7AF"/>
								<stop  offset="0.2841" style="stop-color:#C9DCCF"/>
								<stop  offset="0.3656" style="stop-color:#C2DFE2"/>
								<stop  offset="0.422" style="stop-color:#C0E0E9"/>
								<stop  offset="0.4932" style="stop-color:#B4D7E3"/>
								<stop  offset="0.6227" style="stop-color:#93C1D2"/>
								<stop  offset="0.7959" style="stop-color:#5F9CB6"/>
								<stop  offset="1" style="stop-color:#186B91"/>
							</linearGradient>
							<path id="XMLID_105_" class="st12" d="M2729.2,297.5c-33,16.1-104.5-26.1-104.5-26.1c-5,4.5-10.8,7.6-16.8,9.7
								c-18.2,6.3-38.6,3.3-54.5-7c-120-77.5-1.7-128.7-1-129c-97.8,6-82.7,62.9-76.8,78.2c8.7,13.9,19.2,23.4,24.4,27.6
								c-46.2-35.1-83.6-31.4-86.1-31.1c-5.6,1.3-10.6,3.6-14.4,7.1c-11.4,10.4-16.2,30-18.2,46.4c1.4,7.9,3,13.1,3,13.1
								c-8.4-10-16.6-17.2-24.7-22.1c-52.9-14.3-89.7,32.2-74.5,36c17.2,4.3,95,0,95,0s48.1,7.5,74.4,0c0,0,93.8,17.4,194.6,3.3
								c0,0,46.9,10.8,93.8,1.1c0,0,30,0.9,56.4-0.5C2769.8,304.5,2729.2,297.5,2729.2,297.5z"/>
							<linearGradient id="XMLID_3_" gradientUnits="userSpaceOnUse" x1="2817.0625" y1="303.0675" x2="2817.2131" y2="302.5989">
								<stop  offset="1.642628e-03" style="stop-color:#EDCB60"/>
								<stop  offset="7.963607e-02" style="stop-color:#E1D184"/>
								<stop  offset="0.1873" style="stop-color:#D3D7AF"/>
								<stop  offset="0.2841" style="stop-color:#C9DCCF"/>
								<stop  offset="0.3656" style="stop-color:#C2DFE2"/>
								<stop  offset="0.422" style="stop-color:#C0E0E9"/>
								<stop  offset="0.4932" style="stop-color:#B4D7E3"/>
								<stop  offset="0.6227" style="stop-color:#93C1D2"/>
								<stop  offset="0.7959" style="stop-color:#5F9CB6"/>
								<stop  offset="1" style="stop-color:#186B91"/>
							</linearGradient>
							<polygon id="XMLID_104_" class="st13" points="2817.1,302.8 2817.1,302.8 2817.1,302.8 							"/>
						</g>
						<path id="XMLID_102_" class="st14" d="M2742.6,277.9c0,0-18.3-76.1-95-48.2c0,0,16.3-63.7-46.3-80.8
							c15.1,9,48.1,34.8,38.9,85.5c0,0,70.9-31.1,96.5,50.2c0,0,60.5-39.5,94,15.9C2853.6,293.9,2793.1,247,2742.6,277.9z"/>
					</g>
					<g id="XMLID_95_">
						<path id="XMLID_100_" class="st11" d="M2959.4,756.6c0,0-14-58.3-72.7-36.9c0,0,17.5-68.2-68.2-65
							c-92.6,3.5-62.4,63.1-62.4,63.1s-42.9-15.3-59.6-0.1c-8.7,8-12.4,23.1-13.9,35.6c-49-28-86.9,17.3-73.7,20.6
							c13.1,3.3,72.7,0,72.7,0s36.8,5.7,57,0c0,0,71.9,13.3,149,2.6c0,0,35.9,8.3,71.9,0.8c0,0,50,1.5,67.5-3.4
							C3044.4,768.9,2998.1,733,2959.4,756.6z"/>
						<g id="XMLID_97_">
							<linearGradient id="XMLID_4_" gradientUnits="userSpaceOnUse" x1="2768.5576" y1="884.6151" x2="2839.8728" y2="662.7458">
								<stop  offset="0" style="stop-color:#186B91"/>
								<stop  offset="0.2041" style="stop-color:#5F9CB6"/>
								<stop  offset="0.3773" style="stop-color:#93C1D2"/>
								<stop  offset="0.5068" style="stop-color:#B4D7E3"/>
								<stop  offset="0.578" style="stop-color:#C0E0E9"/>
								<stop  offset="0.6344" style="stop-color:#C2DFE2"/>
								<stop  offset="0.7159" style="stop-color:#C9DCCF"/>
								<stop  offset="0.8127" style="stop-color:#D3D7AF"/>
								<stop  offset="0.9204" style="stop-color:#E1D184"/>
								<stop  offset="0.9984" style="stop-color:#EDCB60"/>
							</linearGradient>
							<path id="XMLID_99_" class="st15" d="M2949.1,771.6c-25.3,12.3-80-20-80-20c-3.8,3.5-8.3,5.8-12.9,7.4
								c-13.9,4.8-29.5,2.5-41.8-5.4c-91.9-59.4-1.3-98.5-0.8-98.8c-74.9,4.6-63.4,48.1-58.8,59.9c6.7,10.7,14.7,17.9,18.6,21.1
								c-35.3-26.9-64-24-65.9-23.8c-4.3,1-8.1,2.8-11.1,5.5c-8.7,8-12.4,23-13.9,35.5c1.1,6,2.3,10,2.3,10
								c-6.4-7.7-12.7-13.2-18.9-17c-40.5-11-68.7,24.7-57.1,27.6c13.1,3.3,72.7,0,72.7,0s36.8,5.7,57,0c0,0,71.9,13.3,149,2.6
								c0,0,35.9,8.3,71.9,0.8c0,0,22.9,0.7,43.2-0.4C2980.2,776.9,2949.1,771.6,2949.1,771.6z"/>
							<linearGradient id="XMLID_5_" gradientUnits="userSpaceOnUse" x1="3016.4243" y1="775.8162" x2="3016.4978" y2="775.5872">
								<stop  offset="1.602564e-03" style="stop-color:#A085A5"/>
								<stop  offset="0.578" style="stop-color:#BE4C55;stop-opacity:0.2"/>
								<stop  offset="0.6373" style="stop-color:#C25358;stop-opacity:0.3129"/>
								<stop  offset="0.7231" style="stop-color:#CB6661;stop-opacity:0.4762"/>
								<stop  offset="0.825" style="stop-color:#DB866F;stop-opacity:0.67"/>
								<stop  offset="0.9382" style="stop-color:#F2B182;stop-opacity:0.8856"/>
								<stop  offset="0.9984" style="stop-color:#FFCB8E"/>
							</linearGradient>
							<polygon id="XMLID_98_" class="st16" points="3016.5,775.7 3016.5,775.7 3016.5,775.7 							"/>
						</g>
						<path id="XMLID_96_" class="st14" d="M2959.4,756.6c0,0-14-58.3-72.7-36.9c0,0,12.5-48.8-35.4-61.9
							c11.6,6.9,36.8,26.6,29.8,65.5c0,0,54.3-23.8,73.9,38.4c0,0,46.3-30.2,72,12.2C3044.4,768.9,2998.1,733,2959.4,756.6z"/>
					</g>
					<g id="XMLID_89_">
						<path id="XMLID_94_" class="st11" d="M900.9,489.6c0,0-12.3-51.2-63.9-32.4c0,0,15.3-59.9-59.9-57.1
							c-81.3,3-54.8,55.4-54.8,55.4s-37.7-13.4-52.4-0.1c-7.7,7-10.9,20.3-12.2,31.3c-43-24.6-76.3,15.2-64.8,18.1
							c11.5,2.9,63.9,0,63.9,0s32.3,5,50,0c0,0,63.1,11.7,130.9,2.2c0,0,31.6,7.3,63.1,0.7c0,0,43.9,1.4,59.3-3
							C975.6,500.4,934.8,468.8,900.9,489.6z"/>
						<g id="XMLID_91_">
							<linearGradient id="XMLID_6_" gradientUnits="userSpaceOnUse" x1="733.2401" y1="602.0354" x2="795.8882" y2="407.1302">
								<stop  offset="0" style="stop-color:#186B91"/>
								<stop  offset="0.2041" style="stop-color:#5F9CB6"/>
								<stop  offset="0.3773" style="stop-color:#93C1D2"/>
								<stop  offset="0.5068" style="stop-color:#B4D7E3"/>
								<stop  offset="0.578" style="stop-color:#C0E0E9"/>
								<stop  offset="0.6344" style="stop-color:#C2DFE2"/>
								<stop  offset="0.7159" style="stop-color:#C9DCCF"/>
								<stop  offset="0.8127" style="stop-color:#D3D7AF"/>
								<stop  offset="0.9204" style="stop-color:#E1D184"/>
								<stop  offset="0.9984" style="stop-color:#EDCB60"/>
							</linearGradient>
							<path id="XMLID_93_" class="st17" d="M891.9,502.8c-22.2,10.8-70.3-17.6-70.3-17.6c-3.3,3-7.3,5.1-11.3,6.5
								c-12.2,4.2-26,2.2-36.7-4.7c-80.7-52.1-1.1-86.6-0.7-86.8c-65.8,4-55.7,42.3-51.7,52.6c5.9,9.4,12.9,15.7,16.4,18.6
								c-31.1-23.6-56.2-21.1-57.9-20.9c-3.7,0.9-7.1,2.4-9.7,4.8c-7.7,7-10.9,20.2-12.2,31.2c0.9,5.3,2,8.8,2,8.8
								c-5.6-6.7-11.2-11.6-16.6-14.9c-35.6-9.6-60.3,21.7-50.1,24.2c11.5,2.9,63.9,0,63.9,0s32.3,5,50,0c0,0,63.1,11.7,130.9,2.2
								c0,0,31.6,7.3,63.1,0.7c0,0,20.1,0.6,37.9-0.3C919.2,507.4,891.9,502.8,891.9,502.8z"/>
							<linearGradient id="XMLID_7_" gradientUnits="userSpaceOnUse" x1="950.9364" y1="506.6041" x2="951.0944" y2="506.1126">
								<stop  offset="0" style="stop-color:#186B91"/>
								<stop  offset="0.2041" style="stop-color:#5F9CB6"/>
								<stop  offset="0.3773" style="stop-color:#93C1D2"/>
								<stop  offset="0.5068" style="stop-color:#B4D7E3"/>
								<stop  offset="0.578" style="stop-color:#C0E0E9"/>
								<stop  offset="0.6344" style="stop-color:#C2DFE2"/>
								<stop  offset="0.7159" style="stop-color:#C9DCCF"/>
								<stop  offset="0.8127" style="stop-color:#D3D7AF"/>
								<stop  offset="0.9204" style="stop-color:#E1D184"/>
								<stop  offset="0.9984" style="stop-color:#EDCB60"/>
							</linearGradient>
							<polygon id="XMLID_92_" class="st18" points="951,506.4 951,506.4 951,506.4 							"/>
						</g>
						<path id="XMLID_90_" class="st14" d="M900.9,489.6c0,0-12.3-51.2-63.9-32.4c0,0,11-42.8-31.1-54.4c10.2,6,32.3,23.4,26.2,57.5
							c0,0,47.7-20.9,64.9,33.8c0,0,40.7-26.6,63.2,10.7C975.6,500.4,934.8,468.8,900.9,489.6z"/>
					</g>
					<g id="XMLID_83_">
						<path id="XMLID_88_" class="st11" d="M1993.7,605.7c0,0-22.4-93.2-116.3-59.1c0,0,27.9-109.1-109.1-104
							c-148.1,5.5-99.8,100.9-99.8,100.9s-68.7-24.4-95.3-0.1c-14,12.7-19.8,36.9-22.3,57c-78.3-44.8-138.9,27.7-117.9,33
							c21,5.3,116.3,0,116.3,0s58.9,9.2,91.1,0c0,0,114.9,21.3,238.3,4.1c0,0,57.5,13.3,114.9,1.3c0,0,79.9,2.5,107.9-5.4
							C2129.6,625.4,2055.5,567.9,1993.7,605.7z"/>
						<g id="XMLID_85_">
							<linearGradient id="XMLID_8_" gradientUnits="userSpaceOnUse" x1="1688.4313" y1="810.4713" x2="1802.4951" y2="455.6063">
								<stop  offset="1.602564e-03" style="stop-color:#A085A5"/>
								<stop  offset="0.578" style="stop-color:#BE4C55;stop-opacity:0.2"/>
								<stop  offset="0.6373" style="stop-color:#C25358;stop-opacity:0.3129"/>
								<stop  offset="0.7231" style="stop-color:#CB6661;stop-opacity:0.4762"/>
								<stop  offset="0.825" style="stop-color:#DB866F;stop-opacity:0.67"/>
								<stop  offset="0.9382" style="stop-color:#F2B182;stop-opacity:0.8856"/>
								<stop  offset="0.9984" style="stop-color:#FFCB8E"/>
							</linearGradient>
							<path id="XMLID_87_" class="st19" d="M1977.2,629.8c-40.5,19.7-128-32-128-32c-6.1,5.5-13.3,9.3-20.6,11.8
								c-22.3,7.7-47.3,4.1-66.8-8.6c-147-94.9-2-157.6-1.3-158c-119.8,7.4-101.3,77-94.1,95.8c10.7,17.1,23.5,28.6,29.8,33.8
								c-56.5-43-102.4-38.4-105.5-38c-6.8,1.6-12.9,4.4-17.7,8.7c-14,12.7-19.8,36.8-22.3,56.8c1.7,9.6,3.6,16.1,3.6,16.1
								c-10.3-12.3-20.4-21.1-30.3-27.1c-64.7-17.5-109.8,39.5-91.3,44.1c21,5.3,116.3,0,116.3,0s58.9,9.2,91.1,0
								c0,0,114.9,21.3,238.3,4.1c0,0,57.5,13.3,114.9,1.3c0,0,36.7,1.1,69.1-0.6C2027,638.3,1977.2,629.8,1977.2,629.8z"/>
							<linearGradient id="XMLID_9_" gradientUnits="userSpaceOnUse" x1="2084.864" y1="636.4951" x2="2085.0081" y2="636.0476">
								<stop  offset="1.602564e-03" style="stop-color:#A085A5"/>
								<stop  offset="0.578" style="stop-color:#BE4C55;stop-opacity:0.2"/>
								<stop  offset="0.6373" style="stop-color:#C25358;stop-opacity:0.3129"/>
								<stop  offset="0.7231" style="stop-color:#CB6661;stop-opacity:0.4762"/>
								<stop  offset="0.825" style="stop-color:#DB866F;stop-opacity:0.67"/>
								<stop  offset="0.9382" style="stop-color:#F2B182;stop-opacity:0.8856"/>
								<stop  offset="0.9984" style="stop-color:#FFCB8E"/>
							</linearGradient>
							<polygon id="XMLID_86_" class="st20" points="2084.9,636.3 2084.9,636.3 2084.9,636.3 							"/>
						</g>
						<path id="XMLID_84_" class="st14" d="M1993.7,605.7c0,0-22.4-93.2-116.3-59.1c0,0,19.9-78-56.7-99
							c18.5,11,58.9,42.6,47.6,104.7c0,0,86.9-38.1,118.1,61.5c0,0,74.1-48.4,115.2,19.5C2129.6,625.4,2055.5,567.9,1993.7,605.7z"
							/>
					</g>
					<ellipse class="st21" cx="1905.5" cy="-368.8" rx="4.7" ry="4.4"/>
					<path id="XMLID_159_" class="st22" d="M3164.5,639.9c0,0-792.7-168.8-1100.2-103.2c0,0,502.3-22.6,1066.1,126.7L3164.5,639.9z"
						/>
					<path id="XMLID_153_" class="st22" d="M2468.8,115.5c-303.7,22.7-489.6,16.8-692.7-1.6c301.9,8.4,634.6-7.3,692.7-24.2
						c82-24,536.7-0.3,536.7-0.3l40.8-11.4c0,0-358.8-32.5-626.4,11.4C2152.3,133.3,1433.5,78,1433.5,78l0,0
						c-33.7-3.6-68.9-7.2-105.9-10.9C866.3,21.2-189.5,209.9-189.5,209.9l92.3,128c0,0,1049-189.3,1276.1-188.4
						c227.2,0.9,791.1,86.8,1194.4,39.5s925.8,57.7,925.8,57.7l85.4-111.9C3384.6,134.9,2967.7,78.2,2468.8,115.5z M632.2,137.9
						c-18.2,16.2-77.9,33.4-158.9,35.8c0,0-81-2.7-57.8-22.6C438.7,131.2,650.4,121.7,632.2,137.9z M663.9,163.7
						c-53-25,65.7-70.4,318.6-59.7S778.8,217.9,663.9,163.7z M2000.5,175.1c-267.5-2.8-827-52.5-659.5-46.6
						C1675.9,140.4,2293.2,178.2,2000.5,175.1z M2093,151.7c0,0,140.5-16.2,174.5,0C2301.4,167.9,2055.4,164.3,2093,151.7z"/>
					<path id="XMLID_149_" class="st22" d="M3215,847.7c-22.8,7.8-1012.6-63.6-1164.2-103.5c-151.6-39.9-439.5,30.8-757.9,59.1
						s-1321.8,5.5-1321.8,5.5l64.9,41.5c0,0,949.9,145.4,1435.1,14.3c485.2-131.1,1811,50.6,1811,50.6S3237.7,840,3215,847.7z
						 M589.4,859.9c-13.4-4.1-5.8-12.3,11.4-12.4c121.3-0.6,437.8-1.9,516.6,0.2C1257.2,851.5,892,952.4,589.4,859.9z M2123.6,785.4
						c0,0,163.9-1.3,181.2,23.4C2322,833.5,2007.1,798.4,2123.6,785.4z"/>
					<path id="XMLID_145_" class="st22" d="M1671.7,1126.5c0,0,461.7-115.5,630.7-32.2s499.8-9.1,499.8-9.1l22.6-26.4
						c0,0-349.4,14.4-460.3-3.5c-110.9-17.9-211.1-62.9-263.9-37.5c-52.8,25.4-397.5,70.7-405.4,65.8
						C1687.2,1078.7,1671.7,1126.5,1671.7,1126.5z M2425.6,1083.6c27.4-1.3,137.7-0.5,179.9-0.2c6,0.1,8.6,5.3,4,7.9
						C2504.1,1150.1,2376.9,1086,2425.6,1083.6z M2012.1,1058.9c6-15.7,63.1-14.8,63.1-14.8
						C2115.8,1052.3,2006.1,1074.5,2012.1,1058.9z"/>
					<g id="XMLID_136_">
						<path id="XMLID_138_" class="st22" d="M2613.5,390.9c203.8,9.1,531.6,9.1,531.6,9.1l-20.1-31.3c-124.4,39.8-473.9,8.9-635-8.3
							c-13.1-3.7-25.6-7.3-37.2-11c-227.5-71.5-554.9-15.1-700.7,32.3c-185.9,8.5-428.2-4.2-607-17.2c-28.1-4.7-57.8-9.8-89.4-15.1
							C603.1,272.9,70,515.9,59.8,515.9v48.1c-76.7-3.5-141.8-8.2-183.4-11.4c-29.9-2.3-47.6-3.8-48.9-3.6
							c0,0,146.9,68.6,252.8,59.7c96.8,7.3,221.7,3.5,375.3-26.5c323.8-63.1,455.4-43.2,499.4-30.3c-41.5-13.4-155-37.8-370.3-2.8
							c-117,19-266.5,22.1-401.6,19.2c195.9-73.5,576.8-196.9,778.8-132c279.6,89.9,649.2,70,972.9,0
							c323.7-70,1396.7,169.8,1396.7,169.8v-90.2C3331.4,515.9,2903,455.8,2613.5,390.9z M470.3,436.3
							c-5.1-9.1,58.3-71.3,150.3-54.7C712.6,398.2,487.8,467.8,470.3,436.3z M783.4,389.9c-53.9,19.8-113,12-66.3-8.3
							C726.9,377.3,837.2,370.1,783.4,389.9z M1033.6,397.4c0,0,218,18.4,230.3,39.5C1276.2,458,920.8,411,1033.6,397.4z
							 M1717,394.2c-82.4,33.3-149.6,35.8-328.7,9.6c128.7,4.8,242.8-1.5,330-10.1C1717.8,393.9,1717.4,394,1717,394.2z
							 M1934.7,397.5c-82.5,3.7,236.3-60.5,301.4-28.2C2301.3,401.6,2106.5,389.9,1934.7,397.5z"/>
						<path id="XMLID_137_" class="st22" d="M954.9,551.9c12.8,4.1,18.7,7.2,18.7,7.2S968.4,555.9,954.9,551.9z"/>
					</g>
					<g>
						<path class="st23" d="M672.9,304.8l-4.3,0.9l-1-4c-0.2-0.8-1-1.2-1.8-1.1c-0.8,0.2-1.3,0.9-1.1,1.7l1,4l-4.3,0.9
							c-0.8,0.2-1.3,0.9-1.1,1.7c0.2,0.8,1,1.2,1.8,1.1l4.3-0.9l1,4c0.2,0.8,1,1.2,1.8,1.1c0.4-0.1,0.7-0.3,0.9-0.5
							c0.3-0.3,0.4-0.7,0.3-1.2l-1-4l4.3-0.9c0.4-0.1,0.7-0.3,0.9-0.5c0.3-0.3,0.4-0.7,0.3-1.2C674.6,305.1,673.8,304.6,672.9,304.8
							z"/>
						<path class="st23" d="M452.8,44.1l-2.8,1.3l-1.4-2.7c-0.3-0.5-0.9-0.7-1.5-0.5c-0.5,0.3-0.8,0.9-0.5,1.4l1.4,2.7l-2.8,1.3
							c-0.5,0.3-0.8,0.9-0.5,1.4c0.3,0.5,0.9,0.7,1.5,0.5l2.8-1.3l1.4,2.7c0.3,0.5,0.9,0.7,1.5,0.5c0.2-0.1,0.4-0.3,0.5-0.5
							c0.1-0.3,0.1-0.6,0-0.9l-1.4-2.7l2.8-1.3c0.2-0.1,0.4-0.3,0.5-0.5c0.1-0.3,0.1-0.6,0-0.9C454,44.1,453.4,43.9,452.8,44.1z"/>
						<ellipse class="st21" cx="-4.9" cy="446.5" rx="8.5" ry="7.9"/>
						<ellipse class="st21" cx="684.9" cy="737.5" rx="8.5" ry="7.9"/>
						<ellipse class="st21" cx="1122.4" cy="391.9" rx="4.7" ry="4.4"/>
						<ellipse class="st21" cx="494.7" cy="1088.9" rx="4.7" ry="4.4"/>
						<path class="st23" d="M1580.3,846.1l-4.3,0.9l-1-4c-0.2-0.8-1-1.2-1.8-1.1c-0.8,0.2-1.3,0.9-1.1,1.7l1,4l-4.3,0.9
							c-0.8,0.2-1.3,0.9-1.1,1.7c0.2,0.8,1,1.2,1.8,1.1l4.3-0.9l1,4c0.2,0.8,1,1.2,1.8,1.1c0.4-0.1,0.7-0.3,0.9-0.5
							c0.3-0.3,0.4-0.7,0.3-1.2l-1-4l4.3-0.9c0.4-0.1,0.7-0.3,0.9-0.5c0.3-0.3,0.4-0.7,0.3-1.2
							C1581.9,846.4,1581.1,845.9,1580.3,846.1z"/>
						<path class="st23" d="M760.1,152l-5.1-1.7l1.8-4.8c0.3-0.9-0.2-1.9-1.1-2.2c-1-0.3-2,0.1-2.4,1l-1.8,4.8l-5.1-1.7
							c-1-0.3-2,0.1-2.4,1c-0.3,0.9,0.2,1.9,1.1,2.2l5.1,1.7l-1.8,4.8c-0.3,0.9,0.2,1.9,1.1,2.2c0.4,0.1,0.9,0.1,1.3,0
							c0.5-0.2,0.9-0.5,1.1-1l1.8-4.8l5.1,1.7c0.4,0.1,0.9,0.1,1.3,0c0.5-0.2,0.9-0.5,1.1-1C761.5,153.3,761,152.3,760.1,152z"/>
						<path class="st23" d="M191.8,620.3l-2.8,1.3l-1.4-2.7c-0.3-0.5-0.9-0.7-1.5-0.5c-0.5,0.3-0.8,0.9-0.5,1.4l1.4,2.7l-2.8,1.3
							c-0.5,0.3-0.8,0.9-0.5,1.4c0.3,0.5,0.9,0.7,1.5,0.5l2.8-1.3l1.4,2.7c0.3,0.5,0.9,0.7,1.5,0.5c0.2-0.1,0.4-0.3,0.5-0.5
							c0.1-0.3,0.1-0.6,0-0.9l-1.4-2.7l2.8-1.3c0.2-0.1,0.4-0.3,0.5-0.5c0.1-0.3,0.1-0.6,0-0.9C193,620.3,192.4,620.1,191.8,620.3z"
							/>
						<path class="st23" d="M446.6,736.7l-2.8,1.3l-1.4-2.7c-0.3-0.5-0.9-0.7-1.5-0.5c-0.5,0.3-0.8,0.9-0.5,1.4l1.4,2.7l-2.8,1.3
							c-0.5,0.3-0.8,0.9-0.5,1.4c0.3,0.5,0.9,0.7,1.5,0.5l2.8-1.3l1.4,2.7c0.3,0.5,0.9,0.7,1.5,0.5c0.2-0.1,0.4-0.3,0.5-0.5
							c0.1-0.3,0.1-0.6,0-0.9l-1.4-2.7l2.8-1.3c0.2-0.1,0.4-0.3,0.5-0.5c0.1-0.3,0.1-0.6,0-0.9C447.8,736.7,447.2,736.5,446.6,736.7
							z"/>
						<path class="st23" d="M570.9,439.9l-2.8,1.3l-1.4-2.7c-0.3-0.5-0.9-0.7-1.5-0.5c-0.5,0.3-0.8,0.9-0.5,1.4l1.4,2.7l-2.8,1.3
							c-0.5,0.3-0.8,0.9-0.5,1.4c0.3,0.5,0.9,0.7,1.5,0.5l2.8-1.3l1.4,2.7c0.3,0.5,0.9,0.7,1.5,0.5c0.2-0.1,0.4-0.3,0.5-0.5
							c0.1-0.3,0.1-0.6,0-0.9l-1.4-2.7l2.8-1.3c0.2-0.1,0.4-0.3,0.5-0.5c0.1-0.3,0.1-0.6,0-0.9C572.1,439.9,571.5,439.6,570.9,439.9
							z"/>
					</g>
					<g>
						<path class="st23" d="M2538.2,376.2l3.6-2.8l2.3,3.2c0.4,0.6,1.3,0.7,2,0.1c0.7-0.5,0.9-1.5,0.4-2.1l-2.3-3.2l3.6-2.8
							c0.7-0.5,0.9-1.5,0.4-2.1c-0.4-0.6-1.3-0.7-2-0.1l-3.6,2.8l-2.3-3.2c-0.4-0.6-1.3-0.7-2-0.1c-0.3,0.2-0.5,0.6-0.6,0.9
							c-0.1,0.4-0.1,0.9,0.2,1.2l2.3,3.2l-3.6,2.8c-0.3,0.2-0.5,0.6-0.6,0.9c-0.1,0.4-0.1,0.9,0.2,1.2
							C2536.7,376.6,2537.6,376.7,2538.2,376.2z"/>
						<path class="st23" d="M2832,508.9l2.1-2.6l2.2,1.8c0.4,0.3,1.1,0.2,1.5-0.3c0.4-0.5,0.4-1.2,0-1.5l-2.2-1.8l2.1-2.6
							c0.4-0.5,0.4-1.2,0-1.5c-0.4-0.3-1.1-0.2-1.5,0.3l-2.1,2.6l-2.2-1.8c-0.4-0.3-1.1-0.2-1.5,0.3c-0.2,0.2-0.3,0.5-0.3,0.7
							c0,0.3,0.1,0.6,0.3,0.8l2.2,1.8l-2.1,2.6c-0.2,0.2-0.3,0.5-0.3,0.7c0,0.3,0.1,0.6,0.3,0.8
							C2830.9,509.5,2831.6,509.3,2832,508.9z"/>
						<path class="st21" d="M3097.3-71.5c-1.6-4,0.6-9,4.9-11.3c4.3-2.2,9-0.8,10.6,3.2c1.6,4-0.6,9-4.9,11.3
							S3098.8-67.5,3097.3-71.5z"/>
						<path class="st21" d="M2364.8-8.2c-1.6-4,0.6-9,4.9-11.3c4.3-2.2,9-0.8,10.6,3.2c1.6,4-0.6,9-4.9,11.3
							C2371.1-2.8,2366.3-4.2,2364.8-8.2z"/>
						<path class="st21" d="M2093.5,512.9c-0.9-2.2,0.3-5,2.7-6.2c2.3-1.2,4.9-0.4,5.8,1.8c0.9,2.2-0.3,5-2.7,6.2
							C2096.9,515.9,2094.3,515.1,2093.5,512.9z"/>
						<path class="st21" d="M2415.8-420.7c-0.9-2.2,0.3-5,2.7-6.2c2.3-1.2,4.9-0.4,5.8,1.8c0.9,2.2-0.3,5-2.7,6.2
							C2419.2-417.7,2416.6-418.5,2415.8-420.7z"/>
						<path class="st23" d="M1518.1,314.9l3.6-2.8l2.3,3.2c0.4,0.6,1.3,0.7,2,0.1c0.7-0.5,0.9-1.5,0.4-2.1l-2.3-3.2l3.6-2.8
							c0.7-0.5,0.9-1.5,0.4-2.1c-0.4-0.6-1.3-0.7-2-0.1l-3.6,2.8l-2.3-3.2c-0.4-0.6-1.3-0.7-2-0.1c-0.3,0.2-0.5,0.6-0.6,0.9
							c-0.1,0.4-0.1,0.9,0.2,1.2l2.3,3.2l-3.6,2.8c-0.3,0.2-0.5,0.6-0.6,0.9c-0.1,0.4-0.1,0.9,0.2,1.2
							C1516.5,315.4,1517.4,315.5,1518.1,314.9z"/>
						<path class="st23" d="M2513.6,556.8l5.2-0.9l0,5.2c0,1,0.8,1.7,1.8,1.5c1-0.2,1.8-1.1,1.8-2.1l0-5.2l5.2-0.9
							c1-0.2,1.8-1.1,1.8-2.1c0-1-0.8-1.7-1.8-1.5l-5.2,0.9l0-5.2c0-1-0.8-1.7-1.8-1.5c-0.4,0.1-0.8,0.3-1.2,0.6
							c-0.4,0.4-0.6,0.9-0.6,1.5l0,5.2l-5.2,0.9c-0.4,0.1-0.8,0.3-1.2,0.6c-0.4,0.4-0.6,0.9-0.6,1.5
							C2511.8,556.3,2512.6,557,2513.6,556.8z"/>
						<path class="st23" d="M2076.5,635.2l2.1-2.6l2.2,1.8c0.4,0.3,1.1,0.2,1.5-0.3c0.4-0.5,0.4-1.2,0-1.5l-2.2-1.8l2.1-2.6
							c0.4-0.5,0.4-1.2,0-1.5c-0.4-0.3-1.1-0.2-1.5,0.3l-2.1,2.6l-2.2-1.8c-0.4-0.3-1.1-0.2-1.5,0.3c-0.2,0.2-0.3,0.5-0.3,0.7
							c0,0.3,0.1,0.6,0.3,0.8l2.2,1.8l-2.1,2.6c-0.2,0.2-0.3,0.5-0.3,0.7c0,0.3,0.1,0.6,0.3,0.8
							C2075.5,635.8,2076.1,635.7,2076.5,635.2z"/>
						<path class="st23" d="M2863.6-140.2l2.1-2.6l2.2,1.8c0.4,0.3,1.1,0.2,1.5-0.3c0.4-0.5,0.4-1.2,0-1.5l-2.2-1.8l2.1-2.6
							c0.4-0.5,0.4-1.2,0-1.5c-0.4-0.3-1.1-0.2-1.5,0.3l-2.1,2.6l-2.2-1.8c-0.4-0.3-1.1-0.2-1.5,0.3c-0.2,0.2-0.3,0.5-0.3,0.7
							c0,0.3,0.1,0.6,0.3,0.8l2.2,1.8l-2.1,2.6c-0.2,0.2-0.3,0.5-0.3,0.7c0,0.3,0.1,0.6,0.3,0.8
							C2862.5-139.6,2863.2-139.7,2863.6-140.2z"/>
						<path class="st23" d="M2589.8-124.9l2.1-2.6l2.2,1.8c0.4,0.3,1.1,0.2,1.5-0.3c0.4-0.5,0.4-1.2,0-1.5l-2.2-1.8l2.1-2.6
							c0.4-0.5,0.4-1.2,0-1.5c-0.4-0.3-1.1-0.2-1.5,0.3l-2.1,2.6l-2.2-1.8c-0.4-0.3-1.1-0.2-1.5,0.3c-0.2,0.2-0.3,0.5-0.3,0.7
							c0,0.3,0.1,0.6,0.3,0.8l2.2,1.8l-2.1,2.6c-0.2,0.2-0.3,0.5-0.3,0.7c0,0.3,0.1,0.6,0.3,0.8
							C2588.7-124.3,2589.4-124.5,2589.8-124.9z"/>
						<path class="st23" d="M2582.8,204.6l2.1-2.6l2.2,1.8c0.4,0.3,1.1,0.2,1.5-0.3c0.4-0.5,0.4-1.2,0-1.5l-2.2-1.8l2.1-2.6
							c0.4-0.5,0.4-1.2,0-1.5c-0.4-0.3-1.1-0.2-1.5,0.3l-2.1,2.6l-2.2-1.8c-0.4-0.3-1.1-0.2-1.5,0.3c-0.2,0.2-0.3,0.5-0.3,0.7
							c0,0.3,0.1,0.6,0.3,0.8l2.2,1.8l-2.1,2.6c-0.2,0.2-0.3,0.5-0.3,0.7c0,0.3,0.1,0.6,0.3,0.8
							C2581.7,205.2,2582.4,205.1,2582.8,204.6z"/>
					</g>
					<g>
						<path class="st24" d="M3205,165.4c-1.6-4,0.6-9,4.9-11.2c4.3-2.2,9.1-0.8,10.7,3.2c1.6,4-0.6,9-4.9,11.2
							C3211.4,170.8,3206.6,169.3,3205,165.4z"/>
						<path class="st25" d="M2968.1,96.7l2.2-2.6l2.3,1.8c0.4,0.3,1.1,0.2,1.5-0.3c0.4-0.5,0.4-1.1,0-1.5l-2.3-1.8l2.2-2.6
							c0.4-0.5,0.4-1.1,0-1.5c-0.4-0.3-1.1-0.2-1.5,0.3l-2.2,2.6l-2.3-1.8c-0.4-0.3-1.1-0.2-1.5,0.3c-0.2,0.2-0.3,0.5-0.3,0.7
							c0,0.3,0.1,0.6,0.3,0.8l2.3,1.8l-2.2,2.6c-0.2,0.2-0.3,0.5-0.3,0.7c0,0.3,0.1,0.6,0.3,0.8C2967,97.3,2967.7,97.2,2968.1,96.7z
							"/>
						<path class="st25" d="M2690.6,111.9l2.2-2.6l2.3,1.8c0.4,0.3,1.1,0.2,1.5-0.3c0.4-0.5,0.4-1.1,0-1.5l-2.3-1.8l2.2-2.6
							c0.4-0.5,0.4-1.1,0-1.5c-0.4-0.3-1.1-0.2-1.5,0.3l-2.2,2.6l-2.3-1.8c-0.4-0.3-1.1-0.2-1.5,0.3c-0.2,0.2-0.3,0.5-0.3,0.7
							c0,0.3,0.1,0.6,0.3,0.8l2.3,1.8l-2.2,2.6c-0.2,0.2-0.3,0.5-0.3,0.7c0,0.3,0.1,0.6,0.3,0.8
							C2689.5,112.5,2690.2,112.4,2690.6,111.9z"/>
					</g>
					<g>
						<path id="XMLID_164_" class="st11" d="M1440.2,217.2c0,0,3.4-106.8-82.2-75.7c0,0,1.6-77.7-123.3-73c-135.1,5.1-91,92-91,92
							s-62.6-22.3-86.9-0.1c-12.8,11.6-18.1,33.6-20.3,51.9c-71.4-40.8-126.7,25.3-107.5,30.1c19.2,4.8,106.1,0,106.1,0
							s53.7,8.4,83.1,0c0,0,104.8,19.4,217.3,3.7c0,0,52.4,12.1,104.8,1.2c0,0,72.9,2.3,98.4-4.9
							C1564.2,235.1,1496.6,182.7,1440.2,217.2z"/>
						<g id="XMLID_161_">
							<linearGradient id="XMLID_10_" gradientUnits="userSpaceOnUse" x1="1161.835" y1="403.9209" x2="1265.855" y2="80.3032">
								<stop  offset="0" style="stop-color:#186B91"/>
								<stop  offset="0.2041" style="stop-color:#5F9CB6"/>
								<stop  offset="0.3773" style="stop-color:#93C1D2"/>
								<stop  offset="0.5068" style="stop-color:#B4D7E3"/>
								<stop  offset="0.578" style="stop-color:#C0E0E9"/>
								<stop  offset="0.6344" style="stop-color:#C2DFE2"/>
								<stop  offset="0.7159" style="stop-color:#C9DCCF"/>
								<stop  offset="0.8127" style="stop-color:#D3D7AF"/>
								<stop  offset="0.9204" style="stop-color:#E1D184"/>
								<stop  offset="0.9984" style="stop-color:#EDCB60"/>
							</linearGradient>
							<path id="XMLID_163_" class="st26" d="M1425.2,239.1c-36.9,17.9-116.7-29.1-116.7-29.1c-5.5,5-12.1,8.5-18.8,10.8
								c-20.3,7-43.1,3.7-60.9-7.8c-134-86.6-1.9-143.7-1.2-144.1c-109.3,6.7-92.4,70.2-85.8,87.4c9.8,15.6,21.4,26.1,27.2,30.8
								c-51.6-39.2-93.3-35-96.2-34.7c-6.2,1.5-11.8,4-16.1,8c-12.7,11.6-18.1,33.6-20.3,51.8c1.6,8.8,3.3,14.6,3.3,14.6
								c-9.3-11.2-18.6-19.2-27.6-24.7c-59-16-100.2,36-83.2,40.2c19.2,4.8,106.1,0,106.1,0s53.7,8.4,83.1,0
								c0,0,104.8,19.4,217.3,3.7c0,0,52.4,12.1,104.8,1.2c0,0,33.5,1,63-0.5C1470.6,246.9,1425.2,239.1,1425.2,239.1z"/>
							<linearGradient id="XMLID_11_" gradientUnits="userSpaceOnUse" x1="1523.3503" y1="245.2944" x2="1523.501" y2="244.8259">
								<stop  offset="0" style="stop-color:#186B91"/>
								<stop  offset="0.2041" style="stop-color:#5F9CB6"/>
								<stop  offset="0.3773" style="stop-color:#93C1D2"/>
								<stop  offset="0.5068" style="stop-color:#B4D7E3"/>
								<stop  offset="0.578" style="stop-color:#C0E0E9"/>
								<stop  offset="0.6344" style="stop-color:#C2DFE2"/>
								<stop  offset="0.7159" style="stop-color:#C9DCCF"/>
								<stop  offset="0.8127" style="stop-color:#D3D7AF"/>
								<stop  offset="0.9204" style="stop-color:#E1D184"/>
								<stop  offset="0.9984" style="stop-color:#EDCB60"/>
							</linearGradient>
							<polygon id="XMLID_162_" class="st27" points="1523.4,245.1 1523.4,245.1 1523.4,245.1 							"/>
						</g>
						<path id="XMLID_160_" class="st14" d="M1440.2,217.2c0,0,3.4-101-82.2-69.9c0,0-5.7-55.1-75.5-74.3
							c16.9,10,79.6,17.6,69.3,74.3c0,0,53.3-13.5,81.9,77.3c0,0,67.6-44.1,105,17.8C1564.2,235.1,1496.6,182.7,1440.2,217.2z"/>
					</g>
					<g id="XMLID_165_">
						<path id="XMLID_170_" class="st11" d="M1616.4,271c0,0-14-58.3-72.7-36.9c0,0,17.5-68.2-68.2-65
							c-92.6,3.5-62.4,63.1-62.4,63.1s-42.9-15.3-59.6-0.1c-8.7,8-12.4,23.1-13.9,35.6c-49-28-86.9,17.3-73.7,20.6
							c13.1,3.3,72.7,0,72.7,0s36.8,5.7,57,0c0,0,71.9,13.3,149,2.6c0,0,35.9,8.3,71.9,0.8c0,0,50,1.5,67.5-3.4
							C1701.5,283.3,1655.1,247.3,1616.4,271z"/>
						<g id="XMLID_167_">
							<linearGradient id="XMLID_12_" gradientUnits="userSpaceOnUse" x1="1425.6084" y1="399.0068" x2="1496.9236" y2="177.1376">
								<stop  offset="0" style="stop-color:#186B91"/>
								<stop  offset="0.2041" style="stop-color:#5F9CB6"/>
								<stop  offset="0.3773" style="stop-color:#93C1D2"/>
								<stop  offset="0.5068" style="stop-color:#B4D7E3"/>
								<stop  offset="0.578" style="stop-color:#C0E0E9"/>
								<stop  offset="0.6344" style="stop-color:#C2DFE2"/>
								<stop  offset="0.7159" style="stop-color:#C9DCCF"/>
								<stop  offset="0.8127" style="stop-color:#D3D7AF"/>
								<stop  offset="0.9204" style="stop-color:#E1D184"/>
								<stop  offset="0.9984" style="stop-color:#EDCB60"/>
							</linearGradient>
							<path id="XMLID_169_" class="st28" d="M1606.2,286c-25.3,12.3-80-20-80-20c-3.8,3.5-8.3,5.8-12.9,7.4
								c-13.9,4.8-29.5,2.5-41.8-5.4c-91.9-59.4-1.3-98.5-0.8-98.8c-74.9,4.6-63.4,48.1-58.8,59.9c6.7,10.7,14.7,17.9,18.6,21.1
								c-35.3-26.9-64-24-65.9-23.8c-4.3,1-8.1,2.8-11.1,5.5c-8.7,8-12.4,23-13.9,35.5c1.1,6,2.3,10,2.3,10
								c-6.4-7.7-12.7-13.2-18.9-17c-40.5-11-68.7,24.7-57.1,27.6c13.1,3.3,72.7,0,72.7,0s36.8,5.7,57,0c0,0,71.9,13.3,149,2.6
								c0,0,35.9,8.3,71.9,0.8c0,0,22.9,0.7,43.2-0.4C1637.3,291.3,1606.2,286,1606.2,286z"/>
							<linearGradient id="XMLID_13_" gradientUnits="userSpaceOnUse" x1="1673.4751" y1="290.2079" x2="1673.5487" y2="289.9789">
								<stop  offset="1.602564e-03" style="stop-color:#A085A5"/>
								<stop  offset="0.578" style="stop-color:#BE4C55;stop-opacity:0.2"/>
								<stop  offset="0.6373" style="stop-color:#C25358;stop-opacity:0.3129"/>
								<stop  offset="0.7231" style="stop-color:#CB6661;stop-opacity:0.4762"/>
								<stop  offset="0.825" style="stop-color:#DB866F;stop-opacity:0.67"/>
								<stop  offset="0.9382" style="stop-color:#F2B182;stop-opacity:0.8856"/>
								<stop  offset="0.9984" style="stop-color:#FFCB8E"/>
							</linearGradient>
							<polygon id="XMLID_168_" class="st29" points="1673.5,290.1 1673.5,290.1 1673.5,290.1 							"/>
						</g>
						<path id="XMLID_166_" class="st14" d="M1616.4,271c0,0-14-58.3-72.7-36.9c0,0,12.5-48.8-35.4-61.9
							c11.6,6.9,36.8,26.6,29.8,65.5c0,0,54.3-23.8,73.9,38.4c0,0,46.3-30.2,72,12.2C1701.5,283.3,1655.1,247.3,1616.4,271z"/>
					</g>
					<g>
						<path id="XMLID_177_" class="st11" d="M228.5,191.5c0,0,3.4-106.8-82.2-75.7c0,0,1.6-77.7-123.3-73c-135.1,5.1-91,92-91,92
							s-62.6-22.3-86.9-0.1c-12.8,11.6-18.1,33.6-20.3,51.9c-71.4-40.8-126.7,25.3-107.5,30.1c19.2,4.8,106.1,0,106.1,0
							s53.7,8.4,83.1,0c0,0,104.8,19.4,217.3,3.7c0,0,52.4,12.1,104.8,1.2c0,0,72.9,2.3,98.4-4.9
							C352.5,209.5,284.9,157.1,228.5,191.5z"/>
						<g id="XMLID_174_">
							<linearGradient id="XMLID_14_" gradientUnits="userSpaceOnUse" x1="-49.8758" y1="378.2763" x2="54.1442" y2="54.6587">
								<stop  offset="0" style="stop-color:#186B91"/>
								<stop  offset="0.2041" style="stop-color:#5F9CB6"/>
								<stop  offset="0.3773" style="stop-color:#93C1D2"/>
								<stop  offset="0.5068" style="stop-color:#B4D7E3"/>
								<stop  offset="0.578" style="stop-color:#C0E0E9"/>
								<stop  offset="0.6344" style="stop-color:#C2DFE2"/>
								<stop  offset="0.7159" style="stop-color:#C9DCCF"/>
								<stop  offset="0.8127" style="stop-color:#D3D7AF"/>
								<stop  offset="0.9204" style="stop-color:#E1D184"/>
								<stop  offset="0.9984" style="stop-color:#EDCB60"/>
							</linearGradient>
							<path id="XMLID_176_" class="st30" d="M213.5,213.5c-36.9,17.9-116.7-29.1-116.7-29.1c-5.5,5-12.1,8.5-18.8,10.8
								c-20.3,7-43.1,3.7-60.9-7.8c-134-86.6-1.9-143.7-1.2-144.1c-109.3,6.7-92.4,70.2-85.8,87.4c9.8,15.6,21.4,26.1,27.2,30.8
								c-51.6-39.2-93.3-35-96.2-34.7c-6.2,1.5-11.8,4-16.1,8c-12.7,11.6-18.1,33.6-20.3,51.8c1.6,8.8,3.3,14.6,3.3,14.6
								c-9.3-11.2-18.6-19.2-27.6-24.7c-59-16-100.2,36-83.2,40.2c19.2,4.8,106.1,0,106.1,0s53.7,8.4,83.1,0
								c0,0,104.8,19.4,217.3,3.7c0,0,52.4,12.1,104.8,1.2c0,0,33.5,1,63-0.5C258.9,221.2,213.5,213.5,213.5,213.5z"/>
							<linearGradient id="XMLID_15_" gradientUnits="userSpaceOnUse" x1="311.6396" y1="219.6499" x2="311.7902" y2="219.1813">
								<stop  offset="0" style="stop-color:#186B91"/>
								<stop  offset="0.2041" style="stop-color:#5F9CB6"/>
								<stop  offset="0.3773" style="stop-color:#93C1D2"/>
								<stop  offset="0.5068" style="stop-color:#B4D7E3"/>
								<stop  offset="0.578" style="stop-color:#C0E0E9"/>
								<stop  offset="0.6344" style="stop-color:#C2DFE2"/>
								<stop  offset="0.7159" style="stop-color:#C9DCCF"/>
								<stop  offset="0.8127" style="stop-color:#D3D7AF"/>
								<stop  offset="0.9204" style="stop-color:#E1D184"/>
								<stop  offset="0.9984" style="stop-color:#EDCB60"/>
							</linearGradient>
							<polygon id="XMLID_175_" class="st31" points="311.7,219.4 311.7,219.4 311.7,219.4 							"/>
						</g>
						<path id="XMLID_171_" class="st14" d="M228.5,191.5c0,0,3.4-101-82.2-69.9c0,0-5.7-55.1-75.5-74.3
							c16.9,10,79.6,17.6,69.3,74.3c0,0,53.3-13.5,81.9,77.3c0,0,67.6-44.1,105,17.8C352.5,209.5,284.9,157.1,228.5,191.5z"/>
					</g>
					<g id="XMLID_178_">
						<path id="XMLID_636_" class="st11" d="M420.4,810.7c0,0-12.3-51.2-63.9-32.4c0,0,15.3-59.9-59.9-57.1
							c-81.3,3-54.8,55.4-54.8,55.4s-37.7-13.4-52.4-0.1c-7.7,7-10.9,20.3-12.2,31.3c-43-24.6-76.3,15.2-64.8,18.1
							c11.5,2.9,63.9,0,63.9,0s32.3,5,50,0c0,0,63.1,11.7,130.9,2.2c0,0,31.6,7.3,63.1,0.7c0,0,43.9,1.4,59.3-3
							C495,821.5,454.3,789.9,420.4,810.7z"/>
						<g id="XMLID_186_">
							<linearGradient id="XMLID_16_" gradientUnits="userSpaceOnUse" x1="252.7106" y1="923.1566" x2="315.3587" y2="728.2513">
								<stop  offset="0" style="stop-color:#186B91"/>
								<stop  offset="0.2041" style="stop-color:#5F9CB6"/>
								<stop  offset="0.3773" style="stop-color:#93C1D2"/>
								<stop  offset="0.5068" style="stop-color:#B4D7E3"/>
								<stop  offset="0.578" style="stop-color:#C0E0E9"/>
								<stop  offset="0.6344" style="stop-color:#C2DFE2"/>
								<stop  offset="0.7159" style="stop-color:#C9DCCF"/>
								<stop  offset="0.8127" style="stop-color:#D3D7AF"/>
								<stop  offset="0.9204" style="stop-color:#E1D184"/>
								<stop  offset="0.9984" style="stop-color:#EDCB60"/>
							</linearGradient>
							<path id="XMLID_191_" class="st32" d="M411.3,823.9c-22.2,10.8-70.3-17.6-70.3-17.6c-3.3,3-7.3,5.1-11.3,6.5
								c-12.2,4.2-26,2.2-36.7-4.7c-80.7-52.1-1.1-86.6-0.7-86.8c-65.8,4-55.7,42.3-51.7,52.6c5.9,9.4,12.9,15.7,16.4,18.6
								c-31.1-23.6-56.2-21.1-57.9-20.9c-3.7,0.9-7.1,2.4-9.7,4.8c-7.7,7-10.9,20.2-12.2,31.2c0.9,5.3,2,8.8,2,8.8
								c-5.6-6.7-11.2-11.6-16.6-14.9c-35.6-9.6-60.3,21.7-50.1,24.2c11.5,2.9,63.9,0,63.9,0s32.3,5,50,0c0,0,63.1,11.7,130.9,2.2
								c0,0,31.6,7.3,63.1,0.7c0,0,20.1,0.6,37.9-0.3C438.7,828.6,411.3,823.9,411.3,823.9z"/>
							<linearGradient id="XMLID_17_" gradientUnits="userSpaceOnUse" x1="470.407" y1="827.7252" x2="470.5649" y2="827.2337">
								<stop  offset="0" style="stop-color:#186B91"/>
								<stop  offset="0.2041" style="stop-color:#5F9CB6"/>
								<stop  offset="0.3773" style="stop-color:#93C1D2"/>
								<stop  offset="0.5068" style="stop-color:#B4D7E3"/>
								<stop  offset="0.578" style="stop-color:#C0E0E9"/>
								<stop  offset="0.6344" style="stop-color:#C2DFE2"/>
								<stop  offset="0.7159" style="stop-color:#C9DCCF"/>
								<stop  offset="0.8127" style="stop-color:#D3D7AF"/>
								<stop  offset="0.9204" style="stop-color:#E1D184"/>
								<stop  offset="0.9984" style="stop-color:#EDCB60"/>
							</linearGradient>
							<polygon id="XMLID_190_" class="st33" points="470.5,827.5 470.5,827.5 470.5,827.5 							"/>
						</g>
						<path id="XMLID_183_" class="st14" d="M420.4,810.7c0,0-12.3-51.2-63.9-32.4c0,0,11-42.8-31.1-54.4
							c10.2,6,32.3,23.4,26.2,57.5c0,0,47.7-20.9,64.9,33.8c0,0,40.7-26.6,63.2,10.7C495,821.5,454.3,789.9,420.4,810.7z"/>
					</g>
				</g>
			</g>
		</g>
	</g>
</g>
</svg>
